STARTFONT 2.1
FONT -FontForge-Anton-Book-R-Normal--208-2000-75-75-P-892-ISO10646-1
SIZE 200 75 75
FONTBOUNDINGBOX 356 360 -52 -68
COMMENT "Generated by fontforge, http://fontforge.sourceforge.net"
COMMENT "Copyright 2011 The Anton Project Authors"
STARTPROPERTIES 31
FOUNDRY "FontForge"
FAMILY_NAME "Anton"
WEIGHT_NAME "Book"
SLANT "R"
SETWIDTH_NAME "Normal"
ADD_STYLE_NAME ""
PIXEL_SIZE 208
POINT_SIZE 2000
RESOLUTION_X 75
RESOLUTION_Y 75
SPACING "P"
AVERAGE_WIDTH 892
CHARSET_REGISTRY "ISO10646"
CHARSET_ENCODING "1"
FONTNAME_REGISTRY ""
CHARSET_COLLECTIONS "ISO8859-2 ISO8859-9 ISO8859-4 ISO10646-1"
FONT_NAME "Anton-Regular"
FACE_NAME "Anton Regular"
COPYRIGHT "Copyright 2011 The Anton Project Authors"
FONT_VERSION "001.000"
FONT_ASCENT 166
FONT_DESCENT 42
UNDERLINE_POSITION 1
UNDERLINE_THICKNESS 11
X_HEIGHT 151
CAP_HEIGHT 177
RAW_ASCENT 798
RAW_DESCENT 202
NORM_SPACE 49
AVG_LOWERCASE_WIDTH 966
AVG_UPPERCASE_WIDTH 984
ENDPROPERTIES
CHARS 658
STARTCHAR NULL.dup1
ENCODING 0
SWIDTH 0 0
DWIDTH 0 0
BBX 1 1 1 0
BITMAP
00
ENDCHAR
STARTCHAR uni0002
ENCODING 2
SWIDTH 293 0
DWIDTH 61 0
BBX 1 1 1 0
BITMAP
00
ENDCHAR
STARTCHAR uni0009
ENCODING 9
SWIDTH 293 0
DWIDTH 61 0
BBX 1 1 1 0
BITMAP
00
ENDCHAR
STARTCHAR uni000A
ENCODING 10
SWIDTH 293 0
DWIDTH 61 0
BBX 1 1 1 0
BITMAP
00
ENDCHAR
STARTCHAR nonmarkingreturn
ENCODING 13
SWIDTH 234 0
DWIDTH 49 0
BBX 1 1 1 0
BITMAP
00
ENDCHAR
STARTCHAR space
ENCODING 32
SWIDTH 234 0
DWIDTH 49 0
BBX 1 1 1 0
BITMAP
00
ENDCHAR
STARTCHAR exclam
ENCODING 33
SWIDTH 229 0
DWIDTH 48 0
BBX 36 178 6 0
BITMAP
FFFFFFFFF0
FFFFFFFFF0
FFFFFFFFF0
FFFFFFFFF0
FFFFFFFFF0
FFFFFFFFF0
FFFFFFFFF0
FFFFFFFFF0
FFFFFFFFF0
FFFFFFFFF0
FFFFFFFFF0
FFFFFFFFF0
FFFFFFFFF0
FFFFFFFFF0
FFFFFFFFF0
FFFFFFFFF0
FFFFFFFFF0
FFFFFFFFF0
FFFFFFFFC0
FFFFFFFFC0
FFFFFFFFC0
FFFFFFFFC0
FFFFFFFFC0
FFFFFFFFC0
FFFFFFFFC0
FFFFFFFFC0
3FFFFFFFC0
3FFFFFFFC0
3FFFFFFFC0
3FFFFFFFC0
3FFFFFFFC0
3FFFFFFFC0
3FFFFFFFC0
3FFFFFFFC0
3FFFFFFFC0
3FFFFFFFC0
3FFFFFFFC0
3FFFFFFFC0
3FFFFFFFC0
3FFFFFFFC0
3FFFFFFFC0
3FFFFFFFC0
3FFFFFFFC0
3FFFFFFFC0
3FFFFFFFC0
3FFFFFFFC0
3FFFFFFFC0
3FFFFFFFC0
3FFFFFFFC0
3FFFFFFFC0
3FFFFFFFC0
3FFFFFFFC0
3FFFFFFFC0
3FFFFFFFC0
3FFFFFFF00
3FFFFFFF00
3FFFFFFF00
3FFFFFFF00
3FFFFFFF00
3FFFFFFF00
3FFFFFFF00
3FFFFFFF00
0FFFFFFF00
0FFFFFFF00
0FFFFFFF00
0FFFFFFF00
0FFFFFFF00
0FFFFFFF00
0FFFFFFF00
0FFFFFFF00
0FFFFFFF00
0FFFFFFF00
0FFFFFFF00
0FFFFFFF00
0FFFFFFF00
0FFFFFFF00
0FFFFFFF00
0FFFFFFF00
0FFFFFFF00
0FFFFFFF00
0FFFFFFF00
0FFFFFFF00
0FFFFFFF00
0FFFFFFF00
0FFFFFFF00
0FFFFFFF00
0FFFFFFF00
0FFFFFFF00
0FFFFFFF00
0FFFFFFF00
0FFFFFFC00
0FFFFFFC00
0FFFFFFC00
0FFFFFFC00
0FFFFFFC00
0FFFFFFC00
0FFFFFFC00
0FFFFFFC00
0FFFFFFC00
0FFFFFFC00
03FFFFFC00
03FFFFFC00
03FFFFFC00
03FFFFFC00
03FFFFFC00
03FFFFFC00
03FFFFFC00
03FFFFFC00
03FFFFFC00
03FFFFFC00
03FFFFFC00
03FFFFFC00
03FFFFFC00
03FFFFFC00
03FFFFFC00
03FFFFFC00
03FFFFFC00
03FFFFFC00
03FFFFFC00
03FFFFFC00
03FFFFFC00
03FFFFFC00
03FFFFFC00
03FFFFFC00
03FFFFFC00
03FFFFFC00
03FFFFF000
03FFFFF000
03FFFFF000
03FFFFF000
0000000000
0000000000
0000000000
0000000000
0000000000
0000000000
0000000000
0000000000
0000000000
0000000000
0000000000
0000000000
0000000000
0000000000
0000000000
0000000000
0000000000
0000000000
FFFFFFFFF0
FFFFFFFFF0
FFFFFFFFF0
FFFFFFFFF0
FFFFFFFFF0
FFFFFFFFF0
FFFFFFFFF0
FFFFFFFFF0
FFFFFFFFF0
FFFFFFFFF0
FFFFFFFFF0
FFFFFFFFF0
FFFFFFFFF0
FFFFFFFFF0
FFFFFFFFF0
FFFFFFFFF0
FFFFFFFFF0
FFFFFFFFF0
FFFFFFFFF0
FFFFFFFFF0
FFFFFFFFF0
FFFFFFFFF0
FFFFFFFFF0
FFFFFFFFF0
FFFFFFFFF0
FFFFFFFFF0
FFFFFFFFF0
FFFFFFFFF0
FFFFFFFFF0
FFFFFFFFF0
ENDCHAR
STARTCHAR quotedbl
ENCODING 34
SWIDTH 429 0
DWIDTH 90 0
BBX 80 64 4 114
BITMAP
FFFFFFFFF00FFFFFFFFF
FFFFFFFFF00FFFFFFFFF
FFFFFFFFF003FFFFFFFF
FFFFFFFFF003FFFFFFFF
FFFFFFFFF003FFFFFFFF
FFFFFFFFF003FFFFFFFF
3FFFFFFFF003FFFFFFFF
3FFFFFFFF003FFFFFFFF
3FFFFFFFC003FFFFFFFF
3FFFFFFFC003FFFFFFFF
3FFFFFFFC003FFFFFFFF
3FFFFFFFC003FFFFFFFF
3FFFFFFFC003FFFFFFFF
3FFFFFFFC003FFFFFFFF
3FFFFFFFC000FFFFFFFC
3FFFFFFFC000FFFFFFFC
3FFFFFFFC000FFFFFFFC
3FFFFFFFC000FFFFFFFC
0FFFFFFFC000FFFFFFFC
0FFFFFFFC000FFFFFFFC
0FFFFFFFC000FFFFFFFC
0FFFFFFFC000FFFFFFFC
0FFFFFFFC000FFFFFFFC
0FFFFFFFC000FFFFFFFC
0FFFFFFF0000FFFFFFFC
0FFFFFFF0000FFFFFFFC
0FFFFFFF00003FFFFFFC
0FFFFFFF00003FFFFFFC
0FFFFFFF00003FFFFFFC
0FFFFFFF00003FFFFFFC
03FFFFFF00003FFFFFF0
03FFFFFF00003FFFFFF0
03FFFFFF00003FFFFFF0
03FFFFFF00003FFFFFF0
03FFFFFF00003FFFFFF0
03FFFFFF00003FFFFFF0
03FFFFFF00003FFFFFF0
03FFFFFF00003FFFFFF0
03FFFFFF00000FFFFFF0
03FFFFFF00000FFFFFF0
03FFFFFF00000FFFFFF0
03FFFFFF00000FFFFFF0
00FFFFFC00000FFFFFF0
00FFFFFC00000FFFFFF0
00FFFFFC00000FFFFFF0
00FFFFFC00000FFFFFF0
00FFFFFC00000FFFFFF0
00FFFFFC00000FFFFFF0
00FFFFFC00000FFFFFC0
00FFFFFC00000FFFFFC0
00FFFFFC00000FFFFFC0
00FFFFFC00000FFFFFC0
00FFFFFC000003FFFFC0
00FFFFFC000003FFFFC0
00FFFFFC000003FFFFC0
00FFFFFC000003FFFFC0
003FFFFC000003FFFFC0
003FFFFC000003FFFFC0
003FFFF0000003FFFFC0
003FFFF0000003FFFFC0
003FFFF0000003FFFFC0
003FFFF0000003FFFFC0
003FFFF0000003FFFFC0
003FFFF0000003FFFFC0
ENDCHAR
STARTCHAR numbersign
ENCODING 35
SWIDTH 546 0
DWIDTH 114 0
BBX 106 162 4 0
BITMAP
00000000FFFFFFF0000FFFFFFFC0
00000000FFFFFFF0000FFFFFFFC0
00000003FFFFFFF0000FFFFFFFC0
00000003FFFFFFF0000FFFFFFFC0
00000003FFFFFFF0000FFFFFFF00
00000003FFFFFFF0000FFFFFFF00
00000003FFFFFFC0000FFFFFFF00
00000003FFFFFFC0000FFFFFFF00
00000003FFFFFFC0000FFFFFFF00
00000003FFFFFFC0000FFFFFFF00
00000003FFFFFFC0003FFFFFFF00
00000003FFFFFFC0003FFFFFFF00
0000000FFFFFFFC0003FFFFFFF00
0000000FFFFFFFC0003FFFFFFF00
0000000FFFFFFFC0003FFFFFFC00
0000000FFFFFFFC0003FFFFFFC00
0000000FFFFFFF00003FFFFFFC00
0000000FFFFFFF00003FFFFFFC00
0000000FFFFFFF00003FFFFFFC00
0000000FFFFFFF00003FFFFFFC00
0000000FFFFFFF0000FFFFFFFC00
0000000FFFFFFF0000FFFFFFFC00
0000003FFFFFFF0000FFFFFFFC00
0000003FFFFFFF0000FFFFFFFC00
0000003FFFFFFF0000FFFFFFF000
0000003FFFFFFF0000FFFFFFF000
0000003FFFFFFC0000FFFFFFF000
0000003FFFFFFC0000FFFFFFF000
0000003FFFFFFC0000FFFFFFF000
0000003FFFFFFC0000FFFFFFF000
0000003FFFFFFC0003FFFFFFF000
0000003FFFFFFC0003FFFFFFF000
000000FFFFFFFC0003FFFFFFF000
000000FFFFFFFC0003FFFFFFF000
000000FFFFFFFC0003FFFFFFF000
000000FFFFFFFC0003FFFFFFF000
000000FFFFFFF00003FFFFFFC000
000000FFFFFFF00003FFFFFFC000
000000FFFFFFF00003FFFFFFC000
000000FFFFFFF00003FFFFFFC000
000000FFFFFFF0000FFFFFFFC000
000000FFFFFFF0000FFFFFFFC000
000003FFFFFFF0000FFFFFFFC000
000003FFFFFFF0000FFFFFFFC000
000003FFFFFFF0000FFFFFFFC000
000003FFFFFFF0000FFFFFFFC000
000003FFFFFFC0000FFFFFFF0000
000003FFFFFFC0000FFFFFFF0000
03FFFFFFFFFFFFFFFFFFFFFFFFC0
03FFFFFFFFFFFFFFFFFFFFFFFFC0
03FFFFFFFFFFFFFFFFFFFFFFFFC0
03FFFFFFFFFFFFFFFFFFFFFFFFC0
03FFFFFFFFFFFFFFFFFFFFFFFFC0
03FFFFFFFFFFFFFFFFFFFFFFFFC0
03FFFFFFFFFFFFFFFFFFFFFFFFC0
03FFFFFFFFFFFFFFFFFFFFFFFFC0
03FFFFFFFFFFFFFFFFFFFFFFFFC0
03FFFFFFFFFFFFFFFFFFFFFFFFC0
03FFFFFFFFFFFFFFFFFFFFFFFFC0
03FFFFFFFFFFFFFFFFFFFFFFFFC0
03FFFFFFFFFFFFFFFFFFFFFFFFC0
03FFFFFFFFFFFFFFFFFFFFFFFFC0
03FFFFFFFFFFFFFFFFFFFFFFFFC0
03FFFFFFFFFFFFFFFFFFFFFFFFC0
03FFFFFFFFFFFFFFFFFFFFFFFFC0
03FFFFFFFFFFFFFFFFFFFFFFFFC0
03FFFFFFFFFFFFFFFFFFFFFFFFC0
03FFFFFFFFFFFFFFFFFFFFFFFFC0
03FFFFFFFFFFFFFFFFFFFFFFFFC0
03FFFFFFFFFFFFFFFFFFFFFFFFC0
03FFFFFFFFFFFFFFFFFFFFFFFFC0
03FFFFFFFFFFFFFFFFFFFFFFFFC0
00003FFFFFFC0003FFFFFFF00000
00003FFFFFFC0003FFFFFFF00000
0000FFFFFFFC0003FFFFFFF00000
0000FFFFFFFC0003FFFFFFF00000
0000FFFFFFFC0003FFFFFFC00000
0000FFFFFFFC0003FFFFFFC00000
0000FFFFFFF00003FFFFFFC00000
0000FFFFFFF00003FFFFFFC00000
0000FFFFFFF00003FFFFFFC00000
0000FFFFFFF00003FFFFFFC00000
0000FFFFFFF0000FFFFFFFC00000
0000FFFFFFF0000FFFFFFFC00000
0003FFFFFFF0000FFFFFFFC00000
0003FFFFFFF0000FFFFFFFC00000
FFFFFFFFFFFFFFFFFFFFFFFFF000
FFFFFFFFFFFFFFFFFFFFFFFFF000
FFFFFFFFFFFFFFFFFFFFFFFFF000
FFFFFFFFFFFFFFFFFFFFFFFFF000
FFFFFFFFFFFFFFFFFFFFFFFFF000
FFFFFFFFFFFFFFFFFFFFFFFFF000
FFFFFFFFFFFFFFFFFFFFFFFFF000
FFFFFFFFFFFFFFFFFFFFFFFFF000
FFFFFFFFFFFFFFFFFFFFFFFFF000
FFFFFFFFFFFFFFFFFFFFFFFFF000
FFFFFFFFFFFFFFFFFFFFFFFFF000
FFFFFFFFFFFFFFFFFFFFFFFFF000
FFFFFFFFFFFFFFFFFFFFFFFFF000
FFFFFFFFFFFFFFFFFFFFFFFFF000
FFFFFFFFFFFFFFFFFFFFFFFFF000
FFFFFFFFFFFFFFFFFFFFFFFFF000
FFFFFFFFFFFFFFFFFFFFFFFFF000
FFFFFFFFFFFFFFFFFFFFFFFFF000
FFFFFFFFFFFFFFFFFFFFFFFFF000
FFFFFFFFFFFFFFFFFFFFFFFFF000
FFFFFFFFFFFFFFFFFFFFFFFFF000
FFFFFFFFFFFFFFFFFFFFFFFFF000
FFFFFFFFFFFFFFFFFFFFFFFFF000
FFFFFFFFFFFFFFFFFFFFFFFFF000
003FFFFFFC0000FFFFFFF0000000
003FFFFFFC0000FFFFFFF0000000
003FFFFFFC0000FFFFFFF0000000
003FFFFFFC0000FFFFFFF0000000
00FFFFFFFC0003FFFFFFF0000000
00FFFFFFFC0003FFFFFFF0000000
00FFFFFFFC0003FFFFFFF0000000
00FFFFFFFC0003FFFFFFF0000000
00FFFFFFF00003FFFFFFC0000000
00FFFFFFF00003FFFFFFC0000000
00FFFFFFF00003FFFFFFC0000000
00FFFFFFF00003FFFFFFC0000000
00FFFFFFF00003FFFFFFC0000000
00FFFFFFF00003FFFFFFC0000000
00FFFFFFF0000FFFFFFFC0000000
00FFFFFFF0000FFFFFFFC0000000
03FFFFFFF0000FFFFFFFC0000000
03FFFFFFF0000FFFFFFFC0000000
03FFFFFFF0000FFFFFFF00000000
03FFFFFFF0000FFFFFFF00000000
03FFFFFFC0000FFFFFFF00000000
03FFFFFFC0000FFFFFFF00000000
03FFFFFFC0000FFFFFFF00000000
03FFFFFFC0000FFFFFFF00000000
03FFFFFFC0003FFFFFFF00000000
03FFFFFFC0003FFFFFFF00000000
0FFFFFFFC0003FFFFFFF00000000
0FFFFFFFC0003FFFFFFF00000000
0FFFFFFFC0003FFFFFFC00000000
0FFFFFFFC0003FFFFFFC00000000
0FFFFFFF00003FFFFFFC00000000
0FFFFFFF00003FFFFFFC00000000
0FFFFFFF00003FFFFFFC00000000
0FFFFFFF00003FFFFFFC00000000
0FFFFFFF0000FFFFFFFC00000000
0FFFFFFF0000FFFFFFFC00000000
3FFFFFFF0000FFFFFFFC00000000
3FFFFFFF0000FFFFFFFC00000000
3FFFFFFF0000FFFFFFF000000000
3FFFFFFF0000FFFFFFF000000000
3FFFFFFC0000FFFFFFF000000000
3FFFFFFC0000FFFFFFF000000000
3FFFFFFC0000FFFFFFF000000000
3FFFFFFC0000FFFFFFF000000000
3FFFFFFC0003FFFFFFF000000000
3FFFFFFC0003FFFFFFF000000000
FFFFFFFC0003FFFFFFF000000000
FFFFFFFC0003FFFFFFF000000000
FFFFFFFC0003FFFFFFC000000000
FFFFFFFC0003FFFFFFC000000000
FFFFFFF00003FFFFFFC000000000
FFFFFFF00003FFFFFFC000000000
ENDCHAR
STARTCHAR dollar
ENCODING 36
SWIDTH 462 0
DWIDTH 97 0
BBX 88 182 4 -12
BITMAP
000000000FFFF000000000
000000000FFFF000000000
000000000FFFF000000000
000000000FFFF000000000
000000000FFFF000000000
000000000FFFF000000000
000000000FFFF000000000
000000000FFFF000000000
000000000FFFF000000000
000000000FFFF000000000
000000000FFFF000000000
000000000FFFF000000000
00000000FFFFFF00000000
00000000FFFFFF00000000
0000003FFFFFFFFF000000
0000003FFFFFFFFF000000
000003FFFFFFFFFFF00000
000003FFFFFFFFFFF00000
00003FFFFFFFFFFFFF0000
00003FFFFFFFFFFFFF0000
0000FFFFFFFFFFFFFFC000
0000FFFFFFFFFFFFFFC000
0003FFFFFFFFFFFFFFF000
0003FFFFFFFFFFFFFFF000
003FFFFFFFFFFFFFFFFC00
003FFFFFFFFFFFFFFFFC00
003FFFFFFFFFFFFFFFFF00
003FFFFFFFFFFFFFFFFF00
00FFFFFFFFFFFFFFFFFF00
00FFFFFFFFFFFFFFFFFF00
03FFFFFFFFFFFFFFFFFFC0
03FFFFFFFFFFFFFFFFFFC0
03FFFFFFFFFFFFFFFFFFC0
03FFFFFFFFFFFFFFFFFFC0
0FFFFFFFFFFFFFFFFFFFF0
0FFFFFFFFFFFFFFFFFFFF0
0FFFFFFFFFFFFFFFFFFFF0
0FFFFFFFFFFFFFFFFFFFF0
3FFFFFFFFFFFFFFFFFFFFC
3FFFFFFFFFFFFFFFFFFFFC
3FFFFFFFFFFFFFFFFFFFFC
3FFFFFFFFFFFFFFFFFFFFC
3FFFFFFFFF03FFFFFFFFFC
3FFFFFFFFF03FFFFFFFFFC
3FFFFFFFF0003FFFFFFFFC
3FFFFFFFF0003FFFFFFFFC
3FFFFFFFF0003FFFFFFFFF
3FFFFFFFF0003FFFFFFFFF
3FFFFFFFC0000FFFFFFFFF
3FFFFFFFC0000FFFFFFFFF
3FFFFFFFC0000FFFFFFFFF
3FFFFFFFC0000FFFFFFFFF
3FFFFFFFF0000FFFFFFFFF
3FFFFFFFF0000FFFFFFFFF
3FFFFFFFF0000FFFFFFFFF
3FFFFFFFF0000FFFFFFFFF
3FFFFFFFFC000FFFFFFFFF
3FFFFFFFFC000FFFFFFFFF
3FFFFFFFFF000000000000
3FFFFFFFFF000000000000
3FFFFFFFFF000000000000
3FFFFFFFFF000000000000
0FFFFFFFFFC00000000000
0FFFFFFFFFC00000000000
0FFFFFFFFFF00000000000
0FFFFFFFFFF00000000000
0FFFFFFFFFFC0000000000
0FFFFFFFFFFC0000000000
03FFFFFFFFFF0000000000
03FFFFFFFFFF0000000000
03FFFFFFFFFFC000000000
03FFFFFFFFFFC000000000
00FFFFFFFFFFF000000000
00FFFFFFFFFFF000000000
003FFFFFFFFFFC00000000
003FFFFFFFFFFC00000000
003FFFFFFFFFFF00000000
003FFFFFFFFFFF00000000
000FFFFFFFFFFFC0000000
000FFFFFFFFFFFC0000000
0003FFFFFFFFFFF0000000
0003FFFFFFFFFFF0000000
0000FFFFFFFFFFFC000000
0000FFFFFFFFFFFC000000
00003FFFFFFFFFFF000000
00003FFFFFFFFFFF000000
00000FFFFFFFFFFFC00000
00000FFFFFFFFFFFC00000
000003FFFFFFFFFFF00000
000003FFFFFFFFFFF00000
000000FFFFFFFFFFFC0000
000000FFFFFFFFFFFC0000
0000003FFFFFFFFFFF0000
0000003FFFFFFFFFFF0000
0000000FFFFFFFFFFFC000
0000000FFFFFFFFFFFC000
00000003FFFFFFFFFFF000
00000003FFFFFFFFFFF000
00000000FFFFFFFFFFFC00
00000000FFFFFFFFFFFC00
000000003FFFFFFFFFFF00
000000003FFFFFFFFFFF00
000000000FFFFFFFFFFF00
000000000FFFFFFFFFFF00
0000000003FFFFFFFFFFC0
0000000003FFFFFFFFFFC0
0000000000FFFFFFFFFFF0
0000000000FFFFFFFFFFF0
00000000003FFFFFFFFFF0
00000000003FFFFFFFFFF0
00000000000FFFFFFFFFFC
00000000000FFFFFFFFFFC
000000000003FFFFFFFFFC
000000000003FFFFFFFFFC
000000000000FFFFFFFFFC
000000000000FFFFFFFFFC
FFFFFFFFC000FFFFFFFFFF
FFFFFFFFC000FFFFFFFFFF
FFFFFFFFC0003FFFFFFFFF
FFFFFFFFC0003FFFFFFFFF
FFFFFFFFC0000FFFFFFFFF
FFFFFFFFC0000FFFFFFFFF
FFFFFFFFC0000FFFFFFFFF
FFFFFFFFC0000FFFFFFFFF
FFFFFFFFF0000FFFFFFFFF
FFFFFFFFF0000FFFFFFFFF
FFFFFFFFF0000FFFFFFFFF
FFFFFFFFF0000FFFFFFFFF
FFFFFFFFF0000FFFFFFFFF
FFFFFFFFF0000FFFFFFFFF
FFFFFFFFF0000FFFFFFFFF
FFFFFFFFF0000FFFFFFFFF
FFFFFFFFFC003FFFFFFFFF
FFFFFFFFFC003FFFFFFFFF
FFFFFFFFFF00FFFFFFFFFF
FFFFFFFFFF00FFFFFFFFFF
FFFFFFFFFFFFFFFFFFFFFF
FFFFFFFFFFFFFFFFFFFFFF
3FFFFFFFFFFFFFFFFFFFFF
3FFFFFFFFFFFFFFFFFFFFF
3FFFFFFFFFFFFFFFFFFFFC
3FFFFFFFFFFFFFFFFFFFFC
3FFFFFFFFFFFFFFFFFFFFC
3FFFFFFFFFFFFFFFFFFFFC
3FFFFFFFFFFFFFFFFFFFFC
3FFFFFFFFFFFFFFFFFFFFC
0FFFFFFFFFFFFFFFFFFFF0
0FFFFFFFFFFFFFFFFFFFF0
0FFFFFFFFFFFFFFFFFFFF0
0FFFFFFFFFFFFFFFFFFFF0
03FFFFFFFFFFFFFFFFFFC0
03FFFFFFFFFFFFFFFFFFC0
00FFFFFFFFFFFFFFFFFF00
00FFFFFFFFFFFFFFFFFF00
00FFFFFFFFFFFFFFFFFC00
00FFFFFFFFFFFFFFFFFC00
003FFFFFFFFFFFFFFFF000
003FFFFFFFFFFFFFFFF000
000FFFFFFFFFFFFFFFC000
000FFFFFFFFFFFFFFFC000
0000FFFFFFFFFFFFFF0000
0000FFFFFFFFFFFFFF0000
00000FFFFFFFFFFFF00000
00000FFFFFFFFFFFF00000
000000FFFFFFFFFC000000
000000FFFFFFFFFC000000
000000003FFFFC00000000
000000003FFFFC00000000
000000000FFFF000000000
000000000FFFF000000000
000000000FFFF000000000
000000000FFFF000000000
000000000FFFF000000000
000000000FFFF000000000
000000000FFFF000000000
000000000FFFF000000000
000000000FFFF000000000
000000000FFFF000000000
000000000FFFF000000000
000000000FFFF000000000
000000000FFFF000000000
000000000FFFF000000000
ENDCHAR
STARTCHAR percent
ENCODING 37
SWIDTH 1057 0
DWIDTH 220 0
BBX 212 182 4 -2
BITMAP
000000000000000000000000000003FFFFFFFC0000000000000000
000000000000000000000000000003FFFFFFFC0000000000000000
00000000000000000000000000000FFFFFFFFC0000000000000000
00000000000000000000000000000FFFFFFFFC0000000000000000
00000003FFFFC0000000000000000FFFFFFFFC0000000000000000
00000003FFFFC0000000000000000FFFFFFFFC0000000000000000
000003FFFFFFFFC00000000000000FFFFFFFF00000000000000000
000003FFFFFFFFC00000000000000FFFFFFFF00000000000000000
00003FFFFFFFFFFC0000000000000FFFFFFFF00000000000000000
00003FFFFFFFFFFC0000000000000FFFFFFFF00000000000000000
0003FFFFFFFFFFFFC000000000003FFFFFFFF00000000000000000
0003FFFFFFFFFFFFC000000000003FFFFFFFF00000000000000000
000FFFFFFFFFFFFFF000000000003FFFFFFFC00000000000000000
000FFFFFFFFFFFFFF000000000003FFFFFFFC00000000000000000
003FFFFFFFFFFFFFFC00000000003FFFFFFFC00000000000000000
003FFFFFFFFFFFFFFC00000000003FFFFFFFC00000000000000000
00FFFFFFFFFFFFFFFF0000000000FFFFFFFFC00000000000000000
00FFFFFFFFFFFFFFFF0000000000FFFFFFFFC00000000000000000
00FFFFFFFFFFFFFFFF0000000000FFFFFFFF000000000000000000
00FFFFFFFFFFFFFFFF0000000000FFFFFFFF000000000000000000
03FFFFFFFFFFFFFFFFC000000000FFFFFFFF000000000000000000
03FFFFFFFFFFFFFFFFC000000000FFFFFFFF000000000000000000
0FFFFFFFFFFFFFFFFFF000000003FFFFFFFF000000000000000000
0FFFFFFFFFFFFFFFFFF000000003FFFFFFFF000000000000000000
0FFFFFFFFFFFFFFFFFF000000003FFFFFFFF000000000000000000
0FFFFFFFFFFFFFFFFFF000000003FFFFFFFF000000000000000000
0FFFFFFFFFFFFFFFFFF000000003FFFFFFFC000000000000000000
0FFFFFFFFFFFFFFFFFF000000003FFFFFFFC000000000000000000
3FFFFFFFC00FFFFFFFFC00000003FFFFFFFC000000000000000000
3FFFFFFFC00FFFFFFFFC00000003FFFFFFFC000000000000000000
3FFFFFFF0000FFFFFFFC0000000FFFFFFFFC000000000000000000
3FFFFFFF0000FFFFFFFC0000000FFFFFFFFC000000000000000000
3FFFFFFF0000FFFFFFFC0000000FFFFFFFF0000000000000000000
3FFFFFFF0000FFFFFFFC0000000FFFFFFFF0000000000000000000
3FFFFFFF0000FFFFFFFC0000000FFFFFFFF0000000000000000000
3FFFFFFF0000FFFFFFFC0000000FFFFFFFF0000000000000000000
FFFFFFFC00003FFFFFFF0000003FFFFFFFF0000000000000000000
FFFFFFFC00003FFFFFFF0000003FFFFFFFF0000000000000000000
FFFFFFFC00003FFFFFFF0000003FFFFFFFC0000000000000000000
FFFFFFFC00003FFFFFFF0000003FFFFFFFC0000000000000000000
FFFFFFFC00003FFFFFFF0000003FFFFFFFC0000000000000000000
FFFFFFFC00003FFFFFFF0000003FFFFFFFC0000000000000000000
FFFFFFFC00003FFFFFFF000000FFFFFFFFC0000000000000000000
FFFFFFFC00003FFFFFFF000000FFFFFFFFC0000000000000000000
FFFFFFFC00003FFFFFFF000000FFFFFFFFC0000000000000000000
FFFFFFFC00003FFFFFFF000000FFFFFFFFC0000000000000000000
FFFFFFFC00003FFFFFFF000000FFFFFFFF00000000000000000000
FFFFFFFC00003FFFFFFF000000FFFFFFFF00000000000000000000
FFFFFFFC00003FFFFFFF000003FFFFFFFF00000000000000000000
FFFFFFFC00003FFFFFFF000003FFFFFFFF00000000000000000000
FFFFFFFC00003FFFFFFF000003FFFFFFFF00000000000000000000
FFFFFFFC00003FFFFFFF000003FFFFFFFF00000000000000000000
FFFFFFFC00003FFFFFFF000003FFFFFFFC00000000000000000000
FFFFFFFC00003FFFFFFF000003FFFFFFFC00000000000000000000
FFFFFFFC00003FFFFFFF000003FFFFFFFC00000000000000000000
FFFFFFFC00003FFFFFFF000003FFFFFFFC00000000000000000000
FFFFFFFC00003FFFFFFF00000FFFFFFFFC00000000000000000000
FFFFFFFC00003FFFFFFF00000FFFFFFFFC00000000000000000000
FFFFFFFC00003FFFFFFF00000FFFFFFFF000000000000000000000
FFFFFFFC00003FFFFFFF00000FFFFFFFF000000000000000000000
FFFFFFFC00003FFFFFFF00000FFFFFFFF0000000FFFFFC00000000
FFFFFFFC00003FFFFFFF00000FFFFFFFF0000000FFFFFC00000000
FFFFFFFC00003FFFFFFF00003FFFFFFFF000003FFFFFFFFC000000
FFFFFFFC00003FFFFFFF00003FFFFFFFF000003FFFFFFFFC000000
FFFFFFFC00003FFFFFFF00003FFFFFFFC00003FFFFFFFFFFC00000
FFFFFFFC00003FFFFFFF00003FFFFFFFC00003FFFFFFFFFFC00000
FFFFFFFC00003FFFFFFF00003FFFFFFFC0003FFFFFFFFFFFFC0000
FFFFFFFC00003FFFFFFF00003FFFFFFFC0003FFFFFFFFFFFFC0000
FFFFFFFC00003FFFFFFF0000FFFFFFFFC000FFFFFFFFFFFFFF0000
FFFFFFFC00003FFFFFFF0000FFFFFFFFC000FFFFFFFFFFFFFF0000
FFFFFFFC00003FFFFFFF0000FFFFFFFFC003FFFFFFFFFFFFFFC000
FFFFFFFC00003FFFFFFF0000FFFFFFFFC003FFFFFFFFFFFFFFC000
FFFFFFFC00003FFFFFFF0000FFFFFFFF000FFFFFFFFFFFFFFFF000
FFFFFFFC00003FFFFFFF0000FFFFFFFF000FFFFFFFFFFFFFFFF000
FFFFFFFC00003FFFFFFF0003FFFFFFFF003FFFFFFFFFFFFFFFF000
FFFFFFFC00003FFFFFFF0003FFFFFFFF003FFFFFFFFFFFFFFFF000
FFFFFFFC00003FFFFFFF0003FFFFFFFF003FFFFFFFFFFFFFFFFC00
FFFFFFFC00003FFFFFFF0003FFFFFFFF003FFFFFFFFFFFFFFFFC00
FFFFFFFC00003FFFFFFF0003FFFFFFFC00FFFFFFFFFFFFFFFFFC00
FFFFFFFC00003FFFFFFF0003FFFFFFFC00FFFFFFFFFFFFFFFFFC00
FFFFFFFC00003FFFFFFF0003FFFFFFFC00FFFFFFFFFFFFFFFFFF00
FFFFFFFC00003FFFFFFF0003FFFFFFFC00FFFFFFFFFFFFFFFFFF00
FFFFFFFC00003FFFFFFF000FFFFFFFFC03FFFFFFFFFFFFFFFFFF00
FFFFFFFC00003FFFFFFF000FFFFFFFFC03FFFFFFFFFFFFFFFFFF00
FFFFFFFC00003FFFFFFF000FFFFFFFF003FFFFFFFC00FFFFFFFFC0
FFFFFFFC00003FFFFFFF000FFFFFFFF003FFFFFFFC00FFFFFFFFC0
FFFFFFFC00003FFFFFFF000FFFFFFFF003FFFFFFF0000FFFFFFFC0
FFFFFFFC00003FFFFFFF000FFFFFFFF003FFFFFFF0000FFFFFFFC0
FFFFFFFC00003FFFFFFF003FFFFFFFF003FFFFFFF0000FFFFFFFC0
FFFFFFFC00003FFFFFFF003FFFFFFFF003FFFFFFF0000FFFFFFFC0
FFFFFFFC00003FFFFFFF003FFFFFFFF00FFFFFFFC0000FFFFFFFC0
FFFFFFFC00003FFFFFFF003FFFFFFFF00FFFFFFFC0000FFFFFFFC0
3FFFFFFC00003FFFFFFF003FFFFFFFC00FFFFFFFC0000FFFFFFFC0
3FFFFFFC00003FFFFFFF003FFFFFFFC00FFFFFFFC0000FFFFFFFC0
3FFFFFFF0000FFFFFFFC00FFFFFFFFC00FFFFFFFC00003FFFFFFF0
3FFFFFFF0000FFFFFFFC00FFFFFFFFC00FFFFFFFC00003FFFFFFF0
3FFFFFFFC003FFFFFFFC00FFFFFFFFC00FFFFFFFC00003FFFFFFF0
3FFFFFFFC003FFFFFFFC00FFFFFFFFC00FFFFFFFC00003FFFFFFF0
3FFFFFFFF00FFFFFFFFC00FFFFFFFF000FFFFFFFC00003FFFFFFF0
3FFFFFFFF00FFFFFFFFC00FFFFFFFF000FFFFFFFC00003FFFFFFF0
3FFFFFFFFFFFFFFFFFFC00FFFFFFFF000FFFFFFFC00003FFFFFFF0
3FFFFFFFFFFFFFFFFFFC00FFFFFFFF000FFFFFFFC00003FFFFFFF0
0FFFFFFFFFFFFFFFFFF003FFFFFFFF000FFFFFFFC00003FFFFFFF0
0FFFFFFFFFFFFFFFFFF003FFFFFFFF000FFFFFFFC00003FFFFFFF0
0FFFFFFFFFFFFFFFFFF003FFFFFFFC000FFFFFFFC00003FFFFFFF0
0FFFFFFFFFFFFFFFFFF003FFFFFFFC000FFFFFFFC00003FFFFFFF0
03FFFFFFFFFFFFFFFFC003FFFFFFFC000FFFFFFFC00003FFFFFFF0
03FFFFFFFFFFFFFFFFC003FFFFFFFC000FFFFFFFC00003FFFFFFF0
03FFFFFFFFFFFFFFFFC00FFFFFFFFC000FFFFFFFC00003FFFFFFF0
03FFFFFFFFFFFFFFFFC00FFFFFFFFC000FFFFFFFC00003FFFFFFF0
00FFFFFFFFFFFFFFFF000FFFFFFFF0000FFFFFFFC00003FFFFFFF0
00FFFFFFFFFFFFFFFF000FFFFFFFF0000FFFFFFFC00003FFFFFFF0
003FFFFFFFFFFFFFFC000FFFFFFFF0000FFFFFFFC00003FFFFFFF0
003FFFFFFFFFFFFFFC000FFFFFFFF0000FFFFFFFC00003FFFFFFF0
000FFFFFFFFFFFFFF0003FFFFFFFF0000FFFFFFFC00003FFFFFFF0
000FFFFFFFFFFFFFF0003FFFFFFFF0000FFFFFFFC00003FFFFFFF0
0003FFFFFFFFFFFFC0003FFFFFFFF0000FFFFFFFC00003FFFFFFF0
0003FFFFFFFFFFFFC0003FFFFFFFF0000FFFFFFFC00003FFFFFFF0
0000FFFFFFFFFFFF00003FFFFFFFC0000FFFFFFFC00003FFFFFFF0
0000FFFFFFFFFFFF00003FFFFFFFC0000FFFFFFFC00003FFFFFFF0
00003FFFFFFFFFFC0000FFFFFFFFC0000FFFFFFFC00003FFFFFFF0
00003FFFFFFFFFFC0000FFFFFFFFC0000FFFFFFFC00003FFFFFFF0
000003FFFFFFFFC00000FFFFFFFFC0000FFFFFFFC00003FFFFFFF0
000003FFFFFFFFC00000FFFFFFFFC0000FFFFFFFC00003FFFFFFF0
00000003FFFFC0000000FFFFFFFF00000FFFFFFFC00003FFFFFFF0
00000003FFFFC0000000FFFFFFFF00000FFFFFFFC00003FFFFFFF0
00000000000000000000FFFFFFFF00000FFFFFFFC00003FFFFFFF0
00000000000000000000FFFFFFFF00000FFFFFFFC00003FFFFFFF0
00000000000000000003FFFFFFFF00000FFFFFFFC00003FFFFFFF0
00000000000000000003FFFFFFFF00000FFFFFFFC00003FFFFFFF0
00000000000000000003FFFFFFFC00000FFFFFFFC00003FFFFFFF0
00000000000000000003FFFFFFFC00000FFFFFFFC00003FFFFFFF0
00000000000000000003FFFFFFFC00000FFFFFFFC00003FFFFFFF0
00000000000000000003FFFFFFFC00000FFFFFFFC00003FFFFFFF0
0000000000000000000FFFFFFFFC00000FFFFFFFC00003FFFFFFF0
0000000000000000000FFFFFFFFC00000FFFFFFFC00003FFFFFFF0
0000000000000000000FFFFFFFF000000FFFFFFFC00003FFFFFFF0
0000000000000000000FFFFFFFF000000FFFFFFFC00003FFFFFFF0
0000000000000000000FFFFFFFF000000FFFFFFFC00003FFFFFFF0
0000000000000000000FFFFFFFF000000FFFFFFFC00003FFFFFFF0
0000000000000000003FFFFFFFF000000FFFFFFFC00003FFFFFFF0
0000000000000000003FFFFFFFF000000FFFFFFFC00003FFFFFFF0
0000000000000000003FFFFFFFF000000FFFFFFFC00003FFFFFFF0
0000000000000000003FFFFFFFF000000FFFFFFFC00003FFFFFFF0
0000000000000000003FFFFFFFC000000FFFFFFFC00003FFFFFFF0
0000000000000000003FFFFFFFC000000FFFFFFFC00003FFFFFFF0
0000000000000000003FFFFFFFC000000FFFFFFFC00003FFFFFFF0
0000000000000000003FFFFFFFC000000FFFFFFFC00003FFFFFFF0
000000000000000000FFFFFFFFC000000FFFFFFFC0000FFFFFFFC0
000000000000000000FFFFFFFFC000000FFFFFFFC0000FFFFFFFC0
000000000000000000FFFFFFFF00000003FFFFFFF0000FFFFFFFC0
000000000000000000FFFFFFFF00000003FFFFFFF0000FFFFFFFC0
000000000000000000FFFFFFFF00000003FFFFFFF0003FFFFFFFC0
000000000000000000FFFFFFFF00000003FFFFFFF0003FFFFFFFC0
000000000000000003FFFFFFFF00000003FFFFFFFF00FFFFFFFFC0
000000000000000003FFFFFFFF00000003FFFFFFFF00FFFFFFFFC0
000000000000000003FFFFFFFC00000003FFFFFFFFFFFFFFFFFF00
000000000000000003FFFFFFFC00000003FFFFFFFFFFFFFFFFFF00
000000000000000003FFFFFFFC00000000FFFFFFFFFFFFFFFFFF00
000000000000000003FFFFFFFC00000000FFFFFFFFFFFFFFFFFF00
00000000000000000FFFFFFFFC00000000FFFFFFFFFFFFFFFFFF00
00000000000000000FFFFFFFFC00000000FFFFFFFFFFFFFFFFFF00
00000000000000000FFFFFFFFC000000003FFFFFFFFFFFFFFFFC00
00000000000000000FFFFFFFFC000000003FFFFFFFFFFFFFFFFC00
00000000000000000FFFFFFFF0000000003FFFFFFFFFFFFFFFFC00
00000000000000000FFFFFFFF0000000003FFFFFFFFFFFFFFFFC00
00000000000000003FFFFFFFF0000000000FFFFFFFFFFFFFFFF000
00000000000000003FFFFFFFF0000000000FFFFFFFFFFFFFFFF000
00000000000000003FFFFFFFF00000000003FFFFFFFFFFFFFFC000
00000000000000003FFFFFFFF00000000003FFFFFFFFFFFFFFC000
00000000000000003FFFFFFFC00000000003FFFFFFFFFFFFFF0000
00000000000000003FFFFFFFC00000000003FFFFFFFFFFFFFF0000
00000000000000003FFFFFFFC000000000003FFFFFFFFFFFFC0000
00000000000000003FFFFFFFC000000000003FFFFFFFFFFFFC0000
0000000000000000FFFFFFFFC000000000000FFFFFFFFFFFF00000
0000000000000000FFFFFFFFC000000000000FFFFFFFFFFFF00000
0000000000000000FFFFFFFF00000000000003FFFFFFFFFF000000
0000000000000000FFFFFFFF00000000000003FFFFFFFFFF000000
0000000000000003FFFFFFFF000000000000003FFFFFFFF0000000
0000000000000003FFFFFFFF000000000000003FFFFFFFF0000000
00000000000000000000000000000000000000003FFFFC00000000
00000000000000000000000000000000000000003FFFFC00000000
ENDCHAR
STARTCHAR ampersand
ENCODING 38
SWIDTH 505 0
DWIDTH 106 0
BBX 98 162 4 -2
BITMAP
0000000000FFFFC00000000000
0000000000FFFFC00000000000
00000000FFFFFFFFC000000000
00000000FFFFFFFFC000000000
0000000FFFFFFFFFFC00000000
0000000FFFFFFFFFFC00000000
0000003FFFFFFFFFFF00000000
0000003FFFFFFFFFFF00000000
000003FFFFFFFFFFFFC0000000
000003FFFFFFFFFFFFC0000000
00000FFFFFFFFFFFFFF0000000
00000FFFFFFFFFFFFFF0000000
00000FFFFFFFFFFFFFFC000000
00000FFFFFFFFFFFFFFC000000
00003FFFFFFFFFFFFFFF000000
00003FFFFFFFFFFFFFFF000000
0000FFFFFFFFFFFFFFFFC00000
0000FFFFFFFFFFFFFFFFC00000
0000FFFFFFFFFFFFFFFFC00000
0000FFFFFFFFFFFFFFFFC00000
0000FFFFFFFFFFFFFFFFC00000
0000FFFFFFFFFFFFFFFFC00000
0003FFFFFFFFFFFFFFFFF00000
0003FFFFFFFFFFFFFFFFF00000
0003FFFFFFFF00FFFFFFF00000
0003FFFFFFFF00FFFFFFF00000
0003FFFFFFFF003FFFFFF00000
0003FFFFFFFF003FFFFFF00000
0003FFFFFFFC003FFFFFF00000
0003FFFFFFFC003FFFFFF00000
0003FFFFFFFC003FFFFFF00000
0003FFFFFFFC003FFFFFF00000
0003FFFFFFFC003FFFFFF00000
0003FFFFFFFC003FFFFFF00000
0003FFFFFFFF003FFFFFF00000
0003FFFFFFFF003FFFFFF00000
0003FFFFFFFF00FFFFFFF00000
0003FFFFFFFF00FFFFFFF00000
0003FFFFFFFF00FFFFFFF00000
0003FFFFFFFF00FFFFFFF00000
0003FFFFFFFF00FFFFFFC00000
0003FFFFFFFF00FFFFFFC00000
0003FFFFFFFFC3FFFFFFC00000
0003FFFFFFFFC3FFFFFFC00000
0000FFFFFFFFCFFFFFFFC00000
0000FFFFFFFFCFFFFFFFC00000
0000FFFFFFFFFFFFFFFF000000
0000FFFFFFFFFFFFFFFF000000
0000FFFFFFFFFFFFFFFF000000
0000FFFFFFFFFFFFFFFF000000
0000FFFFFFFFFFFFFFFC000000
0000FFFFFFFFFFFFFFFC000000
00003FFFFFFFFFFFFFFC000000
00003FFFFFFFFFFFFFFC000000
00003FFFFFFFFFFFFFF0000000
00003FFFFFFFFFFFFFF0000000
00000FFFFFFFFFFFFFC0000000
00000FFFFFFFFFFFFFC0000000
00000FFFFFFFFFFFFF00000000
00000FFFFFFFFFFFFF00000000
000003FFFFFFFFFFFF00000000
000003FFFFFFFFFFFF00000000
000003FFFFFFFFFFFC00300000
000003FFFFFFFFFFFC00300000
000003FFFFFFFFFFF000FC0000
000003FFFFFFFFFFF000FC0000
000003FFFFFFFFFF0003FC0000
000003FFFFFFFFFF0003FC0000
00000FFFFFFFFFFC000FFF0000
00000FFFFFFFFFFC000FFF0000
00003FFFFFFFFFF0003FFFC000
00003FFFFFFFFFF0003FFFC000
0000FFFFFFFFFFF0003FFFC000
0000FFFFFFFFFFF0003FFFC000
0003FFFFFFFFFFFC00FFFFF000
0003FFFFFFFFFFFC00FFFFF000
000FFFFFFFFFFFFC03FFFFFC00
000FFFFFFFFFFFFC03FFFFFC00
003FFFFFFFFFFFFF03FFFFFC00
003FFFFFFFFFFFFF03FFFFFC00
003FFFFFFFFFFFFF0FFFFFFF00
003FFFFFFFFFFFFF0FFFFFFF00
00FFFFFFFFFFFFFFCFFFFFFFC0
00FFFFFFFFFFFFFFCFFFFFFFC0
03FFFFFFFFFFFFFFFFFFFFFFC0
03FFFFFFFFFFFFFFFFFFFFFFC0
03FFFFFFFFFFFFFFFFFFFFFF00
03FFFFFFFFFFFFFFFFFFFFFF00
0FFFFFFFFFFFFFFFFFFFFFFC00
0FFFFFFFFFFFFFFFFFFFFFFC00
0FFFFFFFFFFFFFFFFFFFFFF000
0FFFFFFFFFFFFFFFFFFFFFF000
0FFFFFFFFFFFFFFFFFFFFFC000
0FFFFFFFFFFFFFFFFFFFFFC000
3FFFFFFFFFFFFFFFFFFFFF0000
3FFFFFFFFFFFFFFFFFFFFF0000
3FFFFFFFFFFFFFFFFFFFFF0000
3FFFFFFFFFFFFFFFFFFFFF0000
3FFFFFFFCFFFFFFFFFFFFC0000
3FFFFFFFCFFFFFFFFFFFFC0000
3FFFFFFFC3FFFFFFFFFFF00000
3FFFFFFFC3FFFFFFFFFFF00000
FFFFFFFF03FFFFFFFFFFF00000
FFFFFFFF03FFFFFFFFFFF00000
FFFFFFFF00FFFFFFFFFFC00000
FFFFFFFF00FFFFFFFFFFC00000
FFFFFFFF00FFFFFFFFFFC00000
FFFFFFFF00FFFFFFFFFFC00000
FFFFFFFF00FFFFFFFFFF000000
FFFFFFFF00FFFFFFFFFF000000
FFFFFFFF003FFFFFFFFF000000
FFFFFFFF003FFFFFFFFF000000
FFFFFFFC003FFFFFFFFF000000
FFFFFFFC003FFFFFFFFF000000
FFFFFFFC000FFFFFFFFC000000
FFFFFFFC000FFFFFFFFC000000
FFFFFFFC000FFFFFFFFC000000
FFFFFFFC000FFFFFFFFC000000
FFFFFFFC0003FFFFFFFF000000
FFFFFFFC0003FFFFFFFF000000
FFFFFFFC0003FFFFFFFF000000
FFFFFFFC0003FFFFFFFF000000
FFFFFFFC0003FFFFFFFFC00000
FFFFFFFC0003FFFFFFFFC00000
FFFFFFFF0000FFFFFFFFC00000
FFFFFFFF0000FFFFFFFFC00000
FFFFFFFF0000FFFFFFFFC00000
FFFFFFFF0000FFFFFFFFC00000
FFFFFFFF0003FFFFFFFFF00000
FFFFFFFF0003FFFFFFFFF00000
FFFFFFFF0003FFFFFFFFF00000
FFFFFFFF0003FFFFFFFFF00000
FFFFFFFF000FFFFFFFFFFC0000
FFFFFFFF000FFFFFFFFFFC0000
FFFFFFFFC03FFFFFFFFFFC0000
FFFFFFFFC03FFFFFFFFFFC0000
3FFFFFFFFFFFFFFFFFFFFC0000
3FFFFFFFFFFFFFFFFFFFFC0000
3FFFFFFFFFFFFFFFFFFFFF0000
3FFFFFFFFFFFFFFFFFFFFF0000
3FFFFFFFFFFFFFFFFFFFFF0000
3FFFFFFFFFFFFFFFFFFFFF0000
0FFFFFFFFFFFFFFFFFFFFFC000
0FFFFFFFFFFFFFFFFFFFFFC000
0FFFFFFFFFFFFFFFFFFFFFC000
0FFFFFFFFFFFFFFFFFFFFFC000
03FFFFFFFFFFFFFFFFFFFFC000
03FFFFFFFFFFFFFFFFFFFFC000
03FFFFFFFFFFFFFFFFFFFFF000
03FFFFFFFFFFFFFFFFFFFFF000
00FFFFFFFFFFFFFFFFFFFFF000
00FFFFFFFFFFFFFFFFFFFFF000
003FFFFFFFFFFF0FFFFFFFFC00
003FFFFFFFFFFF0FFFFFFFFC00
000FFFFFFFFFF00FFFFFFFFC00
000FFFFFFFFFF00FFFFFFFFC00
0003FFFFFFFFC00FFFFFFFFF00
0003FFFFFFFFC00FFFFFFFFF00
00003FFFFFFC0003FFFFFFFF00
00003FFFFFFC0003FFFFFFFF00
000000FFFF0000000000000000
000000FFFF0000000000000000
ENDCHAR
STARTCHAR quotesingle
ENCODING 39
SWIDTH 214 0
DWIDTH 45 0
BBX 36 64 4 114
BITMAP
FFFFFFFFF0
FFFFFFFFF0
FFFFFFFFF0
FFFFFFFFF0
FFFFFFFFF0
FFFFFFFFF0
3FFFFFFFF0
3FFFFFFFF0
3FFFFFFFC0
3FFFFFFFC0
3FFFFFFFC0
3FFFFFFFC0
3FFFFFFFC0
3FFFFFFFC0
3FFFFFFFC0
3FFFFFFFC0
3FFFFFFFC0
3FFFFFFFC0
0FFFFFFFC0
0FFFFFFFC0
0FFFFFFFC0
0FFFFFFFC0
0FFFFFFFC0
0FFFFFFFC0
0FFFFFFF00
0FFFFFFF00
0FFFFFFF00
0FFFFFFF00
0FFFFFFF00
0FFFFFFF00
03FFFFFF00
03FFFFFF00
03FFFFFF00
03FFFFFF00
03FFFFFF00
03FFFFFF00
03FFFFFF00
03FFFFFF00
03FFFFFF00
03FFFFFF00
03FFFFFF00
03FFFFFF00
00FFFFFC00
00FFFFFC00
00FFFFFC00
00FFFFFC00
00FFFFFC00
00FFFFFC00
00FFFFFC00
00FFFFFC00
00FFFFFC00
00FFFFFC00
00FFFFFC00
00FFFFFC00
00FFFFFC00
00FFFFFC00
003FFFFC00
003FFFFC00
003FFFF000
003FFFF000
003FFFF000
003FFFF000
003FFFF000
003FFFF000
ENDCHAR
STARTCHAR parenleft
ENCODING 40
SWIDTH 291 0
DWIDTH 61 0
BBX 50 180 6 -2
BITMAP
0000000003FFC0
0000000003FFC0
00000003FFFFC0
00000003FFFFC0
0000003FFFFFC0
0000003FFFFFC0
000003FFFFFFC0
000003FFFFFFC0
00003FFFFFFFC0
00003FFFFFFFC0
0000FFFFFFFFC0
0000FFFFFFFFC0
0003FFFFFFFFC0
0003FFFFFFFFC0
000FFFFFFFFFC0
000FFFFFFFFFC0
003FFFFFFFFFC0
003FFFFFFFFFC0
00FFFFFFFFFFC0
00FFFFFFFFFFC0
00FFFFFFFFFFC0
00FFFFFFFFFFC0
03FFFFFFFFFFC0
03FFFFFFFFFFC0
03FFFFFFFFFFC0
03FFFFFFFFFFC0
0FFFFFFFFFFFC0
0FFFFFFFFFFFC0
0FFFFFFFFFF000
0FFFFFFFFFF000
3FFFFFFFFFC000
3FFFFFFFFFC000
3FFFFFFFFF0000
3FFFFFFFFF0000
3FFFFFFFFC0000
3FFFFFFFFC0000
3FFFFFFFFC0000
3FFFFFFFFC0000
FFFFFFFFFC0000
FFFFFFFFFC0000
FFFFFFFFFC0000
FFFFFFFFFC0000
FFFFFFFFFC0000
FFFFFFFFFC0000
FFFFFFFFF00000
FFFFFFFFF00000
FFFFFFFFF00000
FFFFFFFFF00000
FFFFFFFFF00000
FFFFFFFFF00000
FFFFFFFFF00000
FFFFFFFFF00000
FFFFFFFFF00000
FFFFFFFFF00000
FFFFFFFFF00000
FFFFFFFFF00000
FFFFFFFFF00000
FFFFFFFFF00000
FFFFFFFFF00000
FFFFFFFFF00000
FFFFFFFFF00000
FFFFFFFFF00000
FFFFFFFFF00000
FFFFFFFFF00000
FFFFFFFFF00000
FFFFFFFFF00000
FFFFFFFFF00000
FFFFFFFFF00000
FFFFFFFFF00000
FFFFFFFFF00000
FFFFFFFFF00000
FFFFFFFFF00000
FFFFFFFFF00000
FFFFFFFFF00000
FFFFFFFFF00000
FFFFFFFFF00000
FFFFFFFFF00000
FFFFFFFFF00000
FFFFFFFFF00000
FFFFFFFFF00000
FFFFFFFFF00000
FFFFFFFFF00000
FFFFFFFFF00000
FFFFFFFFF00000
FFFFFFFFF00000
FFFFFFFFF00000
FFFFFFFFF00000
FFFFFFFFF00000
FFFFFFFFF00000
FFFFFFFFF00000
FFFFFFFFF00000
FFFFFFFFF00000
FFFFFFFFF00000
FFFFFFFFF00000
FFFFFFFFF00000
FFFFFFFFF00000
FFFFFFFFF00000
FFFFFFFFF00000
FFFFFFFFF00000
FFFFFFFFF00000
FFFFFFFFF00000
FFFFFFFFF00000
FFFFFFFFF00000
FFFFFFFFF00000
FFFFFFFFF00000
FFFFFFFFF00000
FFFFFFFFF00000
FFFFFFFFF00000
FFFFFFFFF00000
FFFFFFFFF00000
FFFFFFFFF00000
FFFFFFFFF00000
FFFFFFFFF00000
FFFFFFFFF00000
FFFFFFFFF00000
FFFFFFFFF00000
FFFFFFFFF00000
FFFFFFFFF00000
FFFFFFFFF00000
FFFFFFFFF00000
FFFFFFFFF00000
FFFFFFFFF00000
FFFFFFFFF00000
FFFFFFFFF00000
FFFFFFFFF00000
FFFFFFFFF00000
FFFFFFFFF00000
FFFFFFFFF00000
FFFFFFFFF00000
FFFFFFFFF00000
FFFFFFFFF00000
FFFFFFFFF00000
FFFFFFFFF00000
FFFFFFFFF00000
FFFFFFFFF00000
FFFFFFFFF00000
FFFFFFFFFC0000
FFFFFFFFFC0000
FFFFFFFFFC0000
FFFFFFFFFC0000
3FFFFFFFFC0000
3FFFFFFFFC0000
3FFFFFFFFF0000
3FFFFFFFFF0000
3FFFFFFFFF0000
3FFFFFFFFF0000
0FFFFFFFFFC000
0FFFFFFFFFC000
0FFFFFFFFFFC00
0FFFFFFFFFFC00
0FFFFFFFFFFFC0
0FFFFFFFFFFFC0
03FFFFFFFFFFC0
03FFFFFFFFFFC0
03FFFFFFFFFFC0
03FFFFFFFFFFC0
00FFFFFFFFFFC0
00FFFFFFFFFFC0
003FFFFFFFFFC0
003FFFFFFFFFC0
003FFFFFFFFFC0
003FFFFFFFFFC0
000FFFFFFFFFC0
000FFFFFFFFFC0
0003FFFFFFFFC0
0003FFFFFFFFC0
0000FFFFFFFFC0
0000FFFFFFFFC0
00003FFFFFFFC0
00003FFFFFFFC0
00000FFFFFFFC0
00000FFFFFFFC0
000000FFFFFFC0
000000FFFFFFC0
0000000FFFFFC0
0000000FFFFFC0
00000000FFFFC0
00000000FFFFC0
0000000000FFC0
0000000000FFC0
ENDCHAR
STARTCHAR parenright
ENCODING 41
SWIDTH 291 0
DWIDTH 61 0
BBX 52 180 4 -2
BITMAP
FFF00000000000
FFF00000000000
FFFFF000000000
FFFFF000000000
FFFFFFC0000000
FFFFFFC0000000
FFFFFFF0000000
FFFFFFF0000000
FFFFFFFF000000
FFFFFFFF000000
FFFFFFFFC00000
FFFFFFFFC00000
FFFFFFFFF00000
FFFFFFFFF00000
FFFFFFFFFC0000
FFFFFFFFFC0000
FFFFFFFFFF0000
FFFFFFFFFF0000
FFFFFFFFFFC000
FFFFFFFFFFC000
FFFFFFFFFFC000
FFFFFFFFFFC000
FFFFFFFFFFF000
FFFFFFFFFFF000
FFFFFFFFFFF000
FFFFFFFFFFF000
FFFFFFFFFFFC00
FFFFFFFFFFFC00
03FFFFFFFFFC00
03FFFFFFFFFC00
00FFFFFFFFFF00
00FFFFFFFFFF00
003FFFFFFFFF00
003FFFFFFFFF00
000FFFFFFFFF00
000FFFFFFFFF00
000FFFFFFFFFC0
000FFFFFFFFFC0
000FFFFFFFFFC0
000FFFFFFFFFC0
0003FFFFFFFFC0
0003FFFFFFFFC0
0003FFFFFFFFC0
0003FFFFFFFFC0
0003FFFFFFFFC0
0003FFFFFFFFC0
0003FFFFFFFFC0
0003FFFFFFFFC0
0003FFFFFFFFF0
0003FFFFFFFFF0
0003FFFFFFFFF0
0003FFFFFFFFF0
0003FFFFFFFFF0
0003FFFFFFFFF0
0003FFFFFFFFF0
0003FFFFFFFFF0
0003FFFFFFFFF0
0003FFFFFFFFF0
0003FFFFFFFFF0
0003FFFFFFFFF0
0003FFFFFFFFF0
0003FFFFFFFFF0
0003FFFFFFFFF0
0003FFFFFFFFF0
0003FFFFFFFFF0
0003FFFFFFFFF0
0003FFFFFFFFF0
0003FFFFFFFFF0
0003FFFFFFFFF0
0003FFFFFFFFF0
0003FFFFFFFFF0
0003FFFFFFFFF0
0003FFFFFFFFF0
0003FFFFFFFFF0
0003FFFFFFFFF0
0003FFFFFFFFF0
0003FFFFFFFFF0
0003FFFFFFFFF0
0003FFFFFFFFF0
0003FFFFFFFFF0
0003FFFFFFFFF0
0003FFFFFFFFF0
0003FFFFFFFFF0
0003FFFFFFFFF0
0003FFFFFFFFF0
0003FFFFFFFFF0
0003FFFFFFFFF0
0003FFFFFFFFF0
0003FFFFFFFFF0
0003FFFFFFFFF0
0003FFFFFFFFF0
0003FFFFFFFFF0
0003FFFFFFFFF0
0003FFFFFFFFF0
0003FFFFFFFFF0
0003FFFFFFFFF0
0003FFFFFFFFF0
0003FFFFFFFFF0
0003FFFFFFFFF0
0003FFFFFFFFF0
0003FFFFFFFFF0
0003FFFFFFFFF0
0003FFFFFFFFF0
0003FFFFFFFFF0
0003FFFFFFFFF0
0003FFFFFFFFF0
0003FFFFFFFFF0
0003FFFFFFFFF0
0003FFFFFFFFF0
0003FFFFFFFFF0
0003FFFFFFFFF0
0003FFFFFFFFF0
0003FFFFFFFFF0
0003FFFFFFFFF0
0003FFFFFFFFF0
0003FFFFFFFFF0
0003FFFFFFFFF0
0003FFFFFFFFF0
0003FFFFFFFFF0
0003FFFFFFFFF0
0003FFFFFFFFF0
0003FFFFFFFFF0
0003FFFFFFFFF0
0003FFFFFFFFF0
0003FFFFFFFFF0
0003FFFFFFFFF0
0003FFFFFFFFF0
0003FFFFFFFFF0
0003FFFFFFFFF0
0003FFFFFFFFF0
0003FFFFFFFFF0
0003FFFFFFFFF0
0003FFFFFFFFC0
0003FFFFFFFFC0
0003FFFFFFFFC0
0003FFFFFFFFC0
0003FFFFFFFFC0
0003FFFFFFFFC0
000FFFFFFFFFC0
000FFFFFFFFFC0
000FFFFFFFFFC0
000FFFFFFFFFC0
000FFFFFFFFF00
000FFFFFFFFF00
003FFFFFFFFF00
003FFFFFFFFF00
00FFFFFFFFFF00
00FFFFFFFFFF00
03FFFFFFFFFC00
03FFFFFFFFFC00
3FFFFFFFFFFC00
3FFFFFFFFFFC00
FFFFFFFFFFF000
FFFFFFFFFFF000
FFFFFFFFFFF000
FFFFFFFFFFF000
FFFFFFFFFFC000
FFFFFFFFFFC000
FFFFFFFFFFC000
FFFFFFFFFFC000
FFFFFFFFFF0000
FFFFFFFFFF0000
FFFFFFFFFC0000
FFFFFFFFFC0000
FFFFFFFFF00000
FFFFFFFFF00000
FFFFFFFFC00000
FFFFFFFFC00000
FFFFFFFF000000
FFFFFFFF000000
FFFFFFFC000000
FFFFFFFC000000
FFFFFFC0000000
FFFFFFC0000000
FFFFFC00000000
FFFFFC00000000
FFFFC000000000
FFFFC000000000
FFC00000000000
FFC00000000000
ENDCHAR
STARTCHAR asterisk
ENCODING 42
SWIDTH 452 0
DWIDTH 95 0
BBX 86 86 4 76
BITMAP
00000000FFFFFC00000000
00000000FFFFFC00000000
00000000FFFFFC00000000
00000000FFFFFC00000000
00000000FFFFFC00000000
00000000FFFFFC00000000
00000000FFFFFC00000000
00000000FFFFFC00000000
00000000FFFFFC00000000
00000000FFFFFC00000000
00000000FFFFFC00000000
00000000FFFFFC00000000
003000003FFFFC00003000
003000003FFFFC00003000
003F00003FFFFC0003F000
003F00003FFFFC0003F000
00FFC0003FFFF0000FFC00
00FFC0003FFFF0000FFC00
00FFF0003FFFF0003FFC00
00FFF0003FFFF0003FFC00
03FFFF003FFFF003FFFF00
03FFFF003FFFF003FFFF00
0FFFFFC03FFFF00FFFFFC0
0FFFFFC03FFFF00FFFFFC0
0FFFFFF03FFFF03FFFFFC0
0FFFFFF03FFFF03FFFFFC0
3FFFFFFF0FFFF3FFFFFFF0
3FFFFFFF0FFFF3FFFFFFF0
3FFFFFFFCFFFFFFFFFFFF0
3FFFFFFFCFFFFFFFFFFFF0
FFFFFFFFFFFFFFFFFFFFFC
FFFFFFFFFFFFFFFFFFFFFC
3FFFFFFFFFFFFFFFFFFFF0
3FFFFFFFFFFFFFFFFFFFF0
00FFFFFFFFFFFFFFFFFC00
00FFFFFFFFFFFFFFFFFC00
000FFFFFFFFFFFFFFFC000
000FFFFFFFFFFFFFFFC000
00003FFFFFFFFFFFF00000
00003FFFFFFFFFFFF00000
000003FFFFFFFFFF000000
000003FFFFFFFFFF000000
0000000FFFFFFFC0000000
0000000FFFFFFFC0000000
000003FFFFFFFFFF000000
000003FFFFFFFFFF000000
00003FFFFFFFFFFFF00000
00003FFFFFFFFFFFF00000
0003FFFFFFFFFFFFFF0000
0003FFFFFFFFFFFFFF0000
00FFFFFFFFFFFFFFFFFC00
00FFFFFFFFFFFFFFFFFC00
0FFFFFFFFFFFFFFFFFFFC0
0FFFFFFFFFFFFFFFFFFFC0
FFFFFFFFFFFFFFFFFFFFFC
FFFFFFFFFFFFFFFFFFFFFC
3FFFFFFFCFFFFFFFFFFFFC
3FFFFFFFCFFFFFFFFFFFFC
3FFFFFFF0FFFF3FFFFFFF0
3FFFFFFF0FFFF3FFFFFFF0
0FFFFFFC3FFFF0FFFFFFC0
0FFFFFFC3FFFF0FFFFFFC0
0FFFFFC03FFFF00FFFFFC0
0FFFFFC03FFFF00FFFFFC0
03FFFF003FFFF003FFFF00
03FFFF003FFFF003FFFF00
03FFFC003FFFF000FFFF00
03FFFC003FFFF000FFFF00
00FFC0003FFFF0000FFC00
00FFC0003FFFF0000FFC00
003F00003FFFF00003F000
003F00003FFFF00003F000
003C00003FFFFC0000F000
003C00003FFFFC0000F000
00000000FFFFFC00000000
00000000FFFFFC00000000
00000000FFFFFC00000000
00000000FFFFFC00000000
00000000FFFFFC00000000
00000000FFFFFC00000000
00000000FFFFFC00000000
00000000FFFFFC00000000
00000000FFFFFC00000000
00000000FFFFFC00000000
00000000FFFFFC00000000
00000000FFFFFC00000000
ENDCHAR
STARTCHAR plus
ENCODING 43
SWIDTH 355 0
DWIDTH 74 0
BBX 66 66 4 30
BITMAP
000003FFFFF0000000
000003FFFFF0000000
000003FFFFF0000000
000003FFFFF0000000
000003FFFFF0000000
000003FFFFF0000000
000003FFFFF0000000
000003FFFFF0000000
000003FFFFF0000000
000003FFFFF0000000
000003FFFFF0000000
000003FFFFF0000000
000003FFFFF0000000
000003FFFFF0000000
000003FFFFF0000000
000003FFFFF0000000
000003FFFFF0000000
000003FFFFF0000000
000003FFFFF0000000
000003FFFFF0000000
000003FFFFF0000000
000003FFFFF0000000
FFFFFFFFFFFFFFFFC0
FFFFFFFFFFFFFFFFC0
FFFFFFFFFFFFFFFFC0
FFFFFFFFFFFFFFFFC0
FFFFFFFFFFFFFFFFC0
FFFFFFFFFFFFFFFFC0
FFFFFFFFFFFFFFFFC0
FFFFFFFFFFFFFFFFC0
FFFFFFFFFFFFFFFFC0
FFFFFFFFFFFFFFFFC0
FFFFFFFFFFFFFFFFC0
FFFFFFFFFFFFFFFFC0
FFFFFFFFFFFFFFFFC0
FFFFFFFFFFFFFFFFC0
FFFFFFFFFFFFFFFFC0
FFFFFFFFFFFFFFFFC0
FFFFFFFFFFFFFFFFC0
FFFFFFFFFFFFFFFFC0
FFFFFFFFFFFFFFFFC0
FFFFFFFFFFFFFFFFC0
FFFFFFFFFFFFFFFFC0
FFFFFFFFFFFFFFFFC0
FFFFFFFFFFFFFFFFC0
FFFFFFFFFFFFFFFFC0
000003FFFFF0000000
000003FFFFF0000000
000003FFFFF0000000
000003FFFFF0000000
000003FFFFF0000000
000003FFFFF0000000
000003FFFFF0000000
000003FFFFF0000000
000003FFFFF0000000
000003FFFFF0000000
000003FFFFF0000000
000003FFFFF0000000
000003FFFFF0000000
000003FFFFF0000000
000003FFFFF0000000
000003FFFFF0000000
000003FFFFF0000000
000003FFFFF0000000
000003FFFFF0000000
000003FFFFF0000000
ENDCHAR
STARTCHAR comma
ENCODING 44
SWIDTH 236 0
DWIDTH 50 0
BBX 38 54 6 -24
BITMAP
FFFFFFFFFC
FFFFFFFFFC
FFFFFFFFFC
FFFFFFFFFC
FFFFFFFFFC
FFFFFFFFFC
FFFFFFFFFC
FFFFFFFFFC
FFFFFFFFFC
FFFFFFFFFC
FFFFFFFFFC
FFFFFFFFFC
FFFFFFFFFC
FFFFFFFFFC
FFFFFFFFFC
FFFFFFFFFC
FFFFFFFFFC
FFFFFFFFFC
FFFFFFFFFC
FFFFFFFFFC
FFFFFFFFFC
FFFFFFFFFC
FFFFFFFFFC
FFFFFFFFFC
FFFFFFFFFC
FFFFFFFFFC
FFFFFFFFFC
FFFFFFFFFC
FFFFFFFFFC
FFFFFFFFFC
000FFFFFF0
000FFFFFF0
000FFFFFF0
000FFFFFF0
000FFFFFF0
000FFFFFF0
003FFFFFC0
003FFFFFC0
003FFFFFC0
003FFFFFC0
003FFFFF00
003FFFFF00
00FFFFFF00
00FFFFFF00
00FFFFFC00
00FFFFFC00
00FFFFFC00
00FFFFFC00
00FFFFFC00
00FFFFFC00
03FFFFF000
03FFFFF000
03FFFFF000
03FFFFF000
ENDCHAR
STARTCHAR hyphen
ENCODING 45
SWIDTH 311 0
DWIDTH 65 0
BBX 52 24 6 52
BITMAP
FFFFFFFFFFFFF0
FFFFFFFFFFFFF0
FFFFFFFFFFFFF0
FFFFFFFFFFFFF0
FFFFFFFFFFFFF0
FFFFFFFFFFFFF0
FFFFFFFFFFFFF0
FFFFFFFFFFFFF0
FFFFFFFFFFFFF0
FFFFFFFFFFFFF0
FFFFFFFFFFFFF0
FFFFFFFFFFFFF0
FFFFFFFFFFFFF0
FFFFFFFFFFFFF0
FFFFFFFFFFFFF0
FFFFFFFFFFFFF0
FFFFFFFFFFFFF0
FFFFFFFFFFFFF0
FFFFFFFFFFFFF0
FFFFFFFFFFFFF0
FFFFFFFFFFFFF0
FFFFFFFFFFFFF0
FFFFFFFFFFFFF0
FFFFFFFFFFFFF0
ENDCHAR
STARTCHAR period
ENCODING 46
SWIDTH 229 0
DWIDTH 48 0
BBX 36 30 6 0
BITMAP
FFFFFFFFF0
FFFFFFFFF0
FFFFFFFFF0
FFFFFFFFF0
FFFFFFFFF0
FFFFFFFFF0
FFFFFFFFF0
FFFFFFFFF0
FFFFFFFFF0
FFFFFFFFF0
FFFFFFFFF0
FFFFFFFFF0
FFFFFFFFF0
FFFFFFFFF0
FFFFFFFFF0
FFFFFFFFF0
FFFFFFFFF0
FFFFFFFFF0
FFFFFFFFF0
FFFFFFFFF0
FFFFFFFFF0
FFFFFFFFF0
FFFFFFFFF0
FFFFFFFFF0
FFFFFFFFF0
FFFFFFFFF0
FFFFFFFFF0
FFFFFFFFF0
FFFFFFFFF0
FFFFFFFFF0
ENDCHAR
STARTCHAR slash
ENCODING 47
SWIDTH 405 0
DWIDTH 85 0
BBX 80 180 2 0
BITMAP
00000000003FFFFFFFFF
00000000003FFFFFFFFF
00000000003FFFFFFFFC
00000000003FFFFFFFFC
00000000003FFFFFFFFC
00000000003FFFFFFFFC
0000000000FFFFFFFFFC
0000000000FFFFFFFFFC
0000000000FFFFFFFFFC
0000000000FFFFFFFFFC
0000000000FFFFFFFFFC
0000000000FFFFFFFFFC
0000000000FFFFFFFFF0
0000000000FFFFFFFFF0
0000000003FFFFFFFFF0
0000000003FFFFFFFFF0
0000000003FFFFFFFFF0
0000000003FFFFFFFFF0
0000000003FFFFFFFFF0
0000000003FFFFFFFFF0
0000000003FFFFFFFFC0
0000000003FFFFFFFFC0
0000000003FFFFFFFFC0
0000000003FFFFFFFFC0
000000000FFFFFFFFFC0
000000000FFFFFFFFFC0
000000000FFFFFFFFFC0
000000000FFFFFFFFFC0
000000000FFFFFFFFF00
000000000FFFFFFFFF00
000000000FFFFFFFFF00
000000000FFFFFFFFF00
000000003FFFFFFFFF00
000000003FFFFFFFFF00
000000003FFFFFFFFF00
000000003FFFFFFFFF00
000000003FFFFFFFFC00
000000003FFFFFFFFC00
000000003FFFFFFFFC00
000000003FFFFFFFFC00
00000000FFFFFFFFFC00
00000000FFFFFFFFFC00
00000000FFFFFFFFFC00
00000000FFFFFFFFFC00
00000000FFFFFFFFFC00
00000000FFFFFFFFFC00
00000000FFFFFFFFF000
00000000FFFFFFFFF000
00000000FFFFFFFFF000
00000000FFFFFFFFF000
00000003FFFFFFFFF000
00000003FFFFFFFFF000
00000003FFFFFFFFF000
00000003FFFFFFFFF000
00000003FFFFFFFFC000
00000003FFFFFFFFC000
00000003FFFFFFFFC000
00000003FFFFFFFFC000
0000000FFFFFFFFFC000
0000000FFFFFFFFFC000
0000000FFFFFFFFFC000
0000000FFFFFFFFFC000
0000000FFFFFFFFF0000
0000000FFFFFFFFF0000
0000000FFFFFFFFF0000
0000000FFFFFFFFF0000
0000003FFFFFFFFF0000
0000003FFFFFFFFF0000
0000003FFFFFFFFF0000
0000003FFFFFFFFF0000
0000003FFFFFFFFF0000
0000003FFFFFFFFF0000
0000003FFFFFFFFC0000
0000003FFFFFFFFC0000
0000003FFFFFFFFC0000
0000003FFFFFFFFC0000
000000FFFFFFFFFC0000
000000FFFFFFFFFC0000
000000FFFFFFFFFC0000
000000FFFFFFFFFC0000
000000FFFFFFFFF00000
000000FFFFFFFFF00000
000000FFFFFFFFF00000
000000FFFFFFFFF00000
000003FFFFFFFFF00000
000003FFFFFFFFF00000
000003FFFFFFFFF00000
000003FFFFFFFFF00000
000003FFFFFFFFC00000
000003FFFFFFFFC00000
000003FFFFFFFFC00000
000003FFFFFFFFC00000
00000FFFFFFFFFC00000
00000FFFFFFFFFC00000
00000FFFFFFFFFC00000
00000FFFFFFFFFC00000
00000FFFFFFFFFC00000
00000FFFFFFFFFC00000
00000FFFFFFFFF000000
00000FFFFFFFFF000000
00000FFFFFFFFF000000
00000FFFFFFFFF000000
00003FFFFFFFFF000000
00003FFFFFFFFF000000
00003FFFFFFFFF000000
00003FFFFFFFFF000000
00003FFFFFFFFC000000
00003FFFFFFFFC000000
00003FFFFFFFFC000000
00003FFFFFFFFC000000
0000FFFFFFFFFC000000
0000FFFFFFFFFC000000
0000FFFFFFFFFC000000
0000FFFFFFFFFC000000
0000FFFFFFFFF0000000
0000FFFFFFFFF0000000
0000FFFFFFFFF0000000
0000FFFFFFFFF0000000
0003FFFFFFFFF0000000
0003FFFFFFFFF0000000
0003FFFFFFFFF0000000
0003FFFFFFFFF0000000
0003FFFFFFFFF0000000
0003FFFFFFFFF0000000
0003FFFFFFFFC0000000
0003FFFFFFFFC0000000
0003FFFFFFFFC0000000
0003FFFFFFFFC0000000
000FFFFFFFFFC0000000
000FFFFFFFFFC0000000
000FFFFFFFFFC0000000
000FFFFFFFFFC0000000
000FFFFFFFFF00000000
000FFFFFFFFF00000000
000FFFFFFFFF00000000
000FFFFFFFFF00000000
003FFFFFFFFF00000000
003FFFFFFFFF00000000
003FFFFFFFFF00000000
003FFFFFFFFF00000000
003FFFFFFFFC00000000
003FFFFFFFFC00000000
003FFFFFFFFC00000000
003FFFFFFFFC00000000
00FFFFFFFFFC00000000
00FFFFFFFFFC00000000
00FFFFFFFFFC00000000
00FFFFFFFFFC00000000
00FFFFFFFFF000000000
00FFFFFFFFF000000000
00FFFFFFFFF000000000
00FFFFFFFFF000000000
00FFFFFFFFF000000000
00FFFFFFFFF000000000
03FFFFFFFFF000000000
03FFFFFFFFF000000000
03FFFFFFFFF000000000
03FFFFFFFFF000000000
03FFFFFFFFC000000000
03FFFFFFFFC000000000
03FFFFFFFFC000000000
03FFFFFFFFC000000000
0FFFFFFFFFC000000000
0FFFFFFFFFC000000000
0FFFFFFFFFC000000000
0FFFFFFFFFC000000000
0FFFFFFFFF0000000000
0FFFFFFFFF0000000000
0FFFFFFFFF0000000000
0FFFFFFFFF0000000000
3FFFFFFFFF0000000000
3FFFFFFFFF0000000000
3FFFFFFFFF0000000000
3FFFFFFFFF0000000000
3FFFFFFFFC0000000000
3FFFFFFFFC0000000000
3FFFFFFFFC0000000000
3FFFFFFFFC0000000000
FFFFFFFFFC0000000000
FFFFFFFFFC0000000000
ENDCHAR
STARTCHAR zero
ENCODING 48
SWIDTH 494 0
DWIDTH 103 0
BBX 94 182 4 -2
BITMAP
000000000FFFFFF000000000
000000000FFFFFF000000000
0000000FFFFFFFFFF0000000
0000000FFFFFFFFFF0000000
000003FFFFFFFFFFFF000000
000003FFFFFFFFFFFF000000
00000FFFFFFFFFFFFFF00000
00000FFFFFFFFFFFFFF00000
0000FFFFFFFFFFFFFFFC0000
0000FFFFFFFFFFFFFFFC0000
0003FFFFFFFFFFFFFFFF0000
0003FFFFFFFFFFFFFFFF0000
000FFFFFFFFFFFFFFFFFC000
000FFFFFFFFFFFFFFFFFC000
003FFFFFFFFFFFFFFFFFF000
003FFFFFFFFFFFFFFFFFF000
003FFFFFFFFFFFFFFFFFFC00
003FFFFFFFFFFFFFFFFFFC00
00FFFFFFFFFFFFFFFFFFFF00
00FFFFFFFFFFFFFFFFFFFF00
03FFFFFFFFFFFFFFFFFFFF00
03FFFFFFFFFFFFFFFFFFFF00
03FFFFFFFFFFFFFFFFFFFFC0
03FFFFFFFFFFFFFFFFFFFFC0
0FFFFFFFFFFFFFFFFFFFFFC0
0FFFFFFFFFFFFFFFFFFFFFC0
0FFFFFFFFFFFFFFFFFFFFFC0
0FFFFFFFFFFFFFFFFFFFFFC0
0FFFFFFFFFFFFFFFFFFFFFF0
0FFFFFFFFFFFFFFFFFFFFFF0
3FFFFFFFFFFFFFFFFFFFFFF0
3FFFFFFFFFFFFFFFFFFFFFF0
3FFFFFFFFFC00FFFFFFFFFF0
3FFFFFFFFFC00FFFFFFFFFF0
3FFFFFFFFF0003FFFFFFFFFC
3FFFFFFFFF0003FFFFFFFFFC
3FFFFFFFFF0003FFFFFFFFFC
3FFFFFFFFF0003FFFFFFFFFC
3FFFFFFFFF0000FFFFFFFFFC
3FFFFFFFFF0000FFFFFFFFFC
FFFFFFFFFF0000FFFFFFFFFC
FFFFFFFFFF0000FFFFFFFFFC
FFFFFFFFFC0000FFFFFFFFFC
FFFFFFFFFC0000FFFFFFFFFC
FFFFFFFFFC0000FFFFFFFFFC
FFFFFFFFFC0000FFFFFFFFFC
FFFFFFFFFC0000FFFFFFFFFC
FFFFFFFFFC0000FFFFFFFFFC
FFFFFFFFFC0000FFFFFFFFFC
FFFFFFFFFC0000FFFFFFFFFC
FFFFFFFFFC0000FFFFFFFFFC
FFFFFFFFFC0000FFFFFFFFFC
FFFFFFFFFC0000FFFFFFFFFC
FFFFFFFFFC0000FFFFFFFFFC
FFFFFFFFFC0000FFFFFFFFFC
FFFFFFFFFC0000FFFFFFFFFC
FFFFFFFFFC0000FFFFFFFFFC
FFFFFFFFFC0000FFFFFFFFFC
FFFFFFFFFC0000FFFFFFFFFC
FFFFFFFFFC0000FFFFFFFFFC
FFFFFFFFFC0000FFFFFFFFFC
FFFFFFFFFC0000FFFFFFFFFC
FFFFFFFFFC0000FFFFFFFFFC
FFFFFFFFFC0000FFFFFFFFFC
FFFFFFFFFC0000FFFFFFFFFC
FFFFFFFFFC0000FFFFFFFFFC
FFFFFFFFFC0000FFFFFFFFFC
FFFFFFFFFC0000FFFFFFFFFC
FFFFFFFFFC0000FFFFFFFFFC
FFFFFFFFFC0000FFFFFFFFFC
FFFFFFFFFC0000FFFFFFFFFC
FFFFFFFFFC0000FFFFFFFFFC
FFFFFFFFFC0000FFFFFFFFFC
FFFFFFFFFC0000FFFFFFFFFC
FFFFFFFFFC0000FFFFFFFFFC
FFFFFFFFFC0000FFFFFFFFFC
FFFFFFFFFC0000FFFFFFFFFC
FFFFFFFFFC0000FFFFFFFFFC
FFFFFFFFFC0000FFFFFFFFFC
FFFFFFFFFC0000FFFFFFFFFC
FFFFFFFFFC0000FFFFFFFFFC
FFFFFFFFFC0000FFFFFFFFFC
FFFFFFFFFC0000FFFFFFFFFC
FFFFFFFFFC0000FFFFFFFFFC
FFFFFFFFFC0000FFFFFFFFFC
FFFFFFFFFC0000FFFFFFFFFC
FFFFFFFFFC0000FFFFFFFFFC
FFFFFFFFFC0000FFFFFFFFFC
FFFFFFFFFC0000FFFFFFFFFC
FFFFFFFFFC0000FFFFFFFFFC
FFFFFFFFFC0000FFFFFFFFFC
FFFFFFFFFC0000FFFFFFFFFC
FFFFFFFFFC0000FFFFFFFFFC
FFFFFFFFFC0000FFFFFFFFFC
FFFFFFFFFC0000FFFFFFFFFC
FFFFFFFFFC0000FFFFFFFFFC
FFFFFFFFFC0000FFFFFFFFFC
FFFFFFFFFC0000FFFFFFFFFC
FFFFFFFFFC0000FFFFFFFFFC
FFFFFFFFFC0000FFFFFFFFFC
FFFFFFFFFC0000FFFFFFFFFC
FFFFFFFFFC0000FFFFFFFFFC
FFFFFFFFFC0000FFFFFFFFFC
FFFFFFFFFC0000FFFFFFFFFC
FFFFFFFFFC0000FFFFFFFFFC
FFFFFFFFFC0000FFFFFFFFFC
FFFFFFFFFC0000FFFFFFFFFC
FFFFFFFFFC0000FFFFFFFFFC
FFFFFFFFFC0000FFFFFFFFFC
FFFFFFFFFC0000FFFFFFFFFC
FFFFFFFFFC0000FFFFFFFFFC
FFFFFFFFFC0000FFFFFFFFFC
FFFFFFFFFC0000FFFFFFFFFC
FFFFFFFFFC0000FFFFFFFFFC
FFFFFFFFFC0000FFFFFFFFFC
FFFFFFFFFC0000FFFFFFFFFC
FFFFFFFFFC0000FFFFFFFFFC
FFFFFFFFFC0000FFFFFFFFFC
FFFFFFFFFC0000FFFFFFFFFC
FFFFFFFFFC0000FFFFFFFFFC
FFFFFFFFFC0000FFFFFFFFFC
FFFFFFFFFC0000FFFFFFFFFC
FFFFFFFFFC0000FFFFFFFFFC
FFFFFFFFFC0000FFFFFFFFFC
FFFFFFFFFC0000FFFFFFFFFC
FFFFFFFFFC0000FFFFFFFFFC
FFFFFFFFFC0000FFFFFFFFFC
FFFFFFFFFC0000FFFFFFFFFC
FFFFFFFFFC0000FFFFFFFFFC
FFFFFFFFFC0000FFFFFFFFFC
FFFFFFFFFC0000FFFFFFFFFC
FFFFFFFFFC0000FFFFFFFFFC
FFFFFFFFFC0000FFFFFFFFFC
FFFFFFFFFC0000FFFFFFFFFC
FFFFFFFFFC0000FFFFFFFFFC
FFFFFFFFFC0000FFFFFFFFFC
FFFFFFFFFC0000FFFFFFFFFC
FFFFFFFFFC0000FFFFFFFFFC
FFFFFFFFFC0000FFFFFFFFFC
FFFFFFFFFC0000FFFFFFFFFC
FFFFFFFFFC0000FFFFFFFFFC
FFFFFFFFFC0000FFFFFFFFFC
FFFFFFFFFF0000FFFFFFFFFC
FFFFFFFFFF0000FFFFFFFFFC
3FFFFFFFFF0003FFFFFFFFFC
3FFFFFFFFF0003FFFFFFFFFC
3FFFFFFFFFC003FFFFFFFFFC
3FFFFFFFFFC003FFFFFFFFFC
3FFFFFFFFFF00FFFFFFFFFFC
3FFFFFFFFFF00FFFFFFFFFFC
3FFFFFFFFFFFFFFFFFFFFFF0
3FFFFFFFFFFFFFFFFFFFFFF0
3FFFFFFFFFFFFFFFFFFFFFF0
3FFFFFFFFFFFFFFFFFFFFFF0
0FFFFFFFFFFFFFFFFFFFFFF0
0FFFFFFFFFFFFFFFFFFFFFF0
0FFFFFFFFFFFFFFFFFFFFFC0
0FFFFFFFFFFFFFFFFFFFFFC0
03FFFFFFFFFFFFFFFFFFFFC0
03FFFFFFFFFFFFFFFFFFFFC0
03FFFFFFFFFFFFFFFFFFFF00
03FFFFFFFFFFFFFFFFFFFF00
00FFFFFFFFFFFFFFFFFFFF00
00FFFFFFFFFFFFFFFFFFFF00
00FFFFFFFFFFFFFFFFFFFC00
00FFFFFFFFFFFFFFFFFFFC00
003FFFFFFFFFFFFFFFFFF000
003FFFFFFFFFFFFFFFFFF000
000FFFFFFFFFFFFFFFFFC000
000FFFFFFFFFFFFFFFFFC000
0003FFFFFFFFFFFFFFFF0000
0003FFFFFFFFFFFFFFFF0000
0000FFFFFFFFFFFFFFFC0000
0000FFFFFFFFFFFFFFFC0000
00000FFFFFFFFFFFFFF00000
00000FFFFFFFFFFFFFF00000
000003FFFFFFFFFFFF000000
000003FFFFFFFFFFFF000000
0000000FFFFFFFFFF0000000
0000000FFFFFFFFFF0000000
000000000FFFFFF000000000
000000000FFFFFF000000000
ENDCHAR
STARTCHAR one
ENCODING 49
SWIDTH 331 0
DWIDTH 69 0
BBX 60 178 2 0
BITMAP
00000000FFFFFFF0
00000000FFFFFFF0
00000003FFFFFFF0
00000003FFFFFFF0
00000003FFFFFFF0
00000003FFFFFFF0
0000000FFFFFFFF0
0000000FFFFFFFF0
0000003FFFFFFFF0
0000003FFFFFFFF0
000000FFFFFFFFF0
000000FFFFFFFFF0
000003FFFFFFFFF0
000003FFFFFFFFF0
00000FFFFFFFFFF0
00000FFFFFFFFFF0
0000FFFFFFFFFFF0
0000FFFFFFFFFFF0
000FFFFFFFFFFFF0
000FFFFFFFFFFFF0
00FFFFFFFFFFFFF0
00FFFFFFFFFFFFF0
FFFFFFFFFFFFFFF0
FFFFFFFFFFFFFFF0
FFFFFFFFFFFFFFF0
FFFFFFFFFFFFFFF0
FFFFFFFFFFFFFFF0
FFFFFFFFFFFFFFF0
FFFFFFFFFFFFFFF0
FFFFFFFFFFFFFFF0
FFFFFFFFFFFFFFF0
FFFFFFFFFFFFFFF0
FFFFFFFFFFFFFFF0
FFFFFFFFFFFFFFF0
FFFFFFFFFFFFFFF0
FFFFFFFFFFFFFFF0
FFFFFFFFFFFFFFF0
FFFFFFFFFFFFFFF0
FFFFFFFFFFFFFFF0
FFFFFFFFFFFFFFF0
FFFFFFFFFFFFFFF0
FFFFFFFFFFFFFFF0
FFFFF3FFFFFFFFF0
FFFFF3FFFFFFFFF0
FFFFC3FFFFFFFFF0
FFFFC3FFFFFFFFF0
FFFC03FFFFFFFFF0
FFFC03FFFFFFFFF0
FFC003FFFFFFFFF0
FFC003FFFFFFFFF0
000003FFFFFFFFF0
000003FFFFFFFFF0
000003FFFFFFFFF0
000003FFFFFFFFF0
000003FFFFFFFFF0
000003FFFFFFFFF0
000003FFFFFFFFF0
000003FFFFFFFFF0
000003FFFFFFFFF0
000003FFFFFFFFF0
000003FFFFFFFFF0
000003FFFFFFFFF0
000003FFFFFFFFF0
000003FFFFFFFFF0
000003FFFFFFFFF0
000003FFFFFFFFF0
000003FFFFFFFFF0
000003FFFFFFFFF0
000003FFFFFFFFF0
000003FFFFFFFFF0
000003FFFFFFFFF0
000003FFFFFFFFF0
000003FFFFFFFFF0
000003FFFFFFFFF0
000003FFFFFFFFF0
000003FFFFFFFFF0
000003FFFFFFFFF0
000003FFFFFFFFF0
000003FFFFFFFFF0
000003FFFFFFFFF0
000003FFFFFFFFF0
000003FFFFFFFFF0
000003FFFFFFFFF0
000003FFFFFFFFF0
000003FFFFFFFFF0
000003FFFFFFFFF0
000003FFFFFFFFF0
000003FFFFFFFFF0
000003FFFFFFFFF0
000003FFFFFFFFF0
000003FFFFFFFFF0
000003FFFFFFFFF0
000003FFFFFFFFF0
000003FFFFFFFFF0
000003FFFFFFFFF0
000003FFFFFFFFF0
000003FFFFFFFFF0
000003FFFFFFFFF0
000003FFFFFFFFF0
000003FFFFFFFFF0
000003FFFFFFFFF0
000003FFFFFFFFF0
000003FFFFFFFFF0
000003FFFFFFFFF0
000003FFFFFFFFF0
000003FFFFFFFFF0
000003FFFFFFFFF0
000003FFFFFFFFF0
000003FFFFFFFFF0
000003FFFFFFFFF0
000003FFFFFFFFF0
000003FFFFFFFFF0
000003FFFFFFFFF0
000003FFFFFFFFF0
000003FFFFFFFFF0
000003FFFFFFFFF0
000003FFFFFFFFF0
000003FFFFFFFFF0
000003FFFFFFFFF0
000003FFFFFFFFF0
000003FFFFFFFFF0
000003FFFFFFFFF0
000003FFFFFFFFF0
000003FFFFFFFFF0
000003FFFFFFFFF0
000003FFFFFFFFF0
000003FFFFFFFFF0
000003FFFFFFFFF0
000003FFFFFFFFF0
000003FFFFFFFFF0
000003FFFFFFFFF0
000003FFFFFFFFF0
000003FFFFFFFFF0
000003FFFFFFFFF0
000003FFFFFFFFF0
000003FFFFFFFFF0
000003FFFFFFFFF0
000003FFFFFFFFF0
000003FFFFFFFFF0
000003FFFFFFFFF0
000003FFFFFFFFF0
000003FFFFFFFFF0
000003FFFFFFFFF0
000003FFFFFFFFF0
000003FFFFFFFFF0
000003FFFFFFFFF0
000003FFFFFFFFF0
000003FFFFFFFFF0
000003FFFFFFFFF0
000003FFFFFFFFF0
000003FFFFFFFFF0
000003FFFFFFFFF0
000003FFFFFFFFF0
000003FFFFFFFFF0
000003FFFFFFFFF0
000003FFFFFFFFF0
000003FFFFFFFFF0
000003FFFFFFFFF0
000003FFFFFFFFF0
000003FFFFFFFFF0
000003FFFFFFFFF0
000003FFFFFFFFF0
000003FFFFFFFFF0
000003FFFFFFFFF0
000003FFFFFFFFF0
000003FFFFFFFFF0
000003FFFFFFFFF0
000003FFFFFFFFF0
000003FFFFFFFFF0
000003FFFFFFFFF0
000003FFFFFFFFF0
000003FFFFFFFFF0
000003FFFFFFFFF0
000003FFFFFFFFF0
000003FFFFFFFFF0
000003FFFFFFFFF0
000003FFFFFFFFF0
000003FFFFFFFFF0
ENDCHAR
STARTCHAR two
ENCODING 50
SWIDTH 494 0
DWIDTH 103 0
BBX 94 180 6 0
BITMAP
000000003FFFFFC000000000
000000003FFFFFC000000000
0000003FFFFFFFFFC0000000
0000003FFFFFFFFFC0000000
000003FFFFFFFFFFFF000000
000003FFFFFFFFFFFF000000
00003FFFFFFFFFFFFFC00000
00003FFFFFFFFFFFFFC00000
0000FFFFFFFFFFFFFFFC0000
0000FFFFFFFFFFFFFFFC0000
0003FFFFFFFFFFFFFFFF0000
0003FFFFFFFFFFFFFFFF0000
000FFFFFFFFFFFFFFFFFC000
000FFFFFFFFFFFFFFFFFC000
003FFFFFFFFFFFFFFFFFF000
003FFFFFFFFFFFFFFFFFF000
00FFFFFFFFFFFFFFFFFFFC00
00FFFFFFFFFFFFFFFFFFFC00
00FFFFFFFFFFFFFFFFFFFC00
00FFFFFFFFFFFFFFFFFFFC00
03FFFFFFFFFFFFFFFFFFFF00
03FFFFFFFFFFFFFFFFFFFF00
03FFFFFFFFFFFFFFFFFFFFC0
03FFFFFFFFFFFFFFFFFFFFC0
0FFFFFFFFFFFFFFFFFFFFFC0
0FFFFFFFFFFFFFFFFFFFFFC0
0FFFFFFFFFFFFFFFFFFFFFC0
0FFFFFFFFFFFFFFFFFFFFFC0
0FFFFFFFFFFFFFFFFFFFFFF0
0FFFFFFFFFFFFFFFFFFFFFF0
3FFFFFFFFFFFFFFFFFFFFFF0
3FFFFFFFFFFFFFFFFFFFFFF0
3FFFFFFFFFFFFFFFFFFFFFF0
3FFFFFFFFFFFFFFFFFFFFFF0
3FFFFFFFFFC00FFFFFFFFFFC
3FFFFFFFFFC00FFFFFFFFFFC
3FFFFFFFFF0003FFFFFFFFFC
3FFFFFFFFF0003FFFFFFFFFC
3FFFFFFFFF0003FFFFFFFFFC
3FFFFFFFFF0003FFFFFFFFFC
FFFFFFFFFC0000FFFFFFFFFC
FFFFFFFFFC0000FFFFFFFFFC
FFFFFFFFFC0000FFFFFFFFFC
FFFFFFFFFC0000FFFFFFFFFC
FFFFFFFFFC0000FFFFFFFFFC
FFFFFFFFFC0000FFFFFFFFFC
FFFFFFFFFC0000FFFFFFFFFC
FFFFFFFFFC0000FFFFFFFFFC
FFFFFFFFFC0000FFFFFFFFFC
FFFFFFFFFC0000FFFFFFFFFC
FFFFFFFFFC0000FFFFFFFFFC
FFFFFFFFFC0000FFFFFFFFFC
FFFFFFFFFC0000FFFFFFFFFC
FFFFFFFFFC0000FFFFFFFFFC
FFFFFFFFFC0000FFFFFFFFFC
FFFFFFFFFC0000FFFFFFFFFC
FFFFFFFFFC0000FFFFFFFFFC
FFFFFFFFFC0000FFFFFFFFFC
FFFFFFFFFC0000FFFFFFFFFC
FFFFFFFFFC0000FFFFFFFFFC
FFFFFFFFFC0000FFFFFFFFFC
FFFFFFFFFC0000FFFFFFFFFC
FFFFFFFFFC0000FFFFFFFFFC
FFFFFFFFFC0000FFFFFFFFFC
FFFFFFFFFC0003FFFFFFFFF0
FFFFFFFFFC0003FFFFFFFFF0
FFFFFFFFFC0003FFFFFFFFF0
FFFFFFFFFC0003FFFFFFFFF0
FFFFFFFFFC0003FFFFFFFFF0
FFFFFFFFFC0003FFFFFFFFF0
FFFFFFFFFC000FFFFFFFFFF0
FFFFFFFFFC000FFFFFFFFFF0
0000000000000FFFFFFFFFC0
0000000000000FFFFFFFFFC0
0000000000000FFFFFFFFFC0
0000000000000FFFFFFFFFC0
0000000000003FFFFFFFFFC0
0000000000003FFFFFFFFFC0
0000000000003FFFFFFFFF00
0000000000003FFFFFFFFF00
000000000000FFFFFFFFFF00
000000000000FFFFFFFFFF00
000000000000FFFFFFFFFF00
000000000000FFFFFFFFFF00
000000000003FFFFFFFFFC00
000000000003FFFFFFFFFC00
000000000003FFFFFFFFFC00
000000000003FFFFFFFFFC00
00000000000FFFFFFFFFF000
00000000000FFFFFFFFFF000
00000000000FFFFFFFFFF000
00000000000FFFFFFFFFF000
00000000003FFFFFFFFFC000
00000000003FFFFFFFFFC000
0000000000FFFFFFFFFF0000
0000000000FFFFFFFFFF0000
0000000003FFFFFFFFFF0000
0000000003FFFFFFFFFF0000
0000000003FFFFFFFFFC0000
0000000003FFFFFFFFFC0000
000000000FFFFFFFFFF00000
000000000FFFFFFFFFF00000
000000003FFFFFFFFFF00000
000000003FFFFFFFFFF00000
00000000FFFFFFFFFFC00000
00000000FFFFFFFFFFC00000
00000000FFFFFFFFFF000000
00000000FFFFFFFFFF000000
00000003FFFFFFFFFC000000
00000003FFFFFFFFFC000000
0000000FFFFFFFFFFC000000
0000000FFFFFFFFFFC000000
0000003FFFFFFFFFF0000000
0000003FFFFFFFFFF0000000
000000FFFFFFFFFFC0000000
000000FFFFFFFFFFC0000000
000000FFFFFFFFFF00000000
000000FFFFFFFFFF00000000
000003FFFFFFFFFC00000000
000003FFFFFFFFFC00000000
00000FFFFFFFFFFC00000000
00000FFFFFFFFFFC00000000
00003FFFFFFFFFF000000000
00003FFFFFFFFFF000000000
00003FFFFFFFFFC000000000
00003FFFFFFFFFC000000000
0000FFFFFFFFFF0000000000
0000FFFFFFFFFF0000000000
0003FFFFFFFFFF0000000000
0003FFFFFFFFFF0000000000
000FFFFFFFFFFC0000000000
000FFFFFFFFFFC0000000000
000FFFFFFFFFF00000000000
000FFFFFFFFFF00000000000
003FFFFFFFFFC00000000000
003FFFFFFFFFC00000000000
003FFFFFFFFFC00000000000
003FFFFFFFFFC00000000000
00FFFFFFFFFF000000000000
00FFFFFFFFFF000000000000
00FFFFFFFFFF000000000000
00FFFFFFFFFF000000000000
03FFFFFFFFFC000000000000
03FFFFFFFFFC000000000000
03FFFFFFFFF0000000000000
03FFFFFFFFF0000000000000
0FFFFFFFFFFFFFFFFFFFFFFC
0FFFFFFFFFFFFFFFFFFFFFFC
0FFFFFFFFFFFFFFFFFFFFFFC
0FFFFFFFFFFFFFFFFFFFFFFC
0FFFFFFFFFFFFFFFFFFFFFFC
0FFFFFFFFFFFFFFFFFFFFFFC
3FFFFFFFFFFFFFFFFFFFFFFC
3FFFFFFFFFFFFFFFFFFFFFFC
3FFFFFFFFFFFFFFFFFFFFFFC
3FFFFFFFFFFFFFFFFFFFFFFC
3FFFFFFFFFFFFFFFFFFFFFFC
3FFFFFFFFFFFFFFFFFFFFFFC
3FFFFFFFFFFFFFFFFFFFFFFC
3FFFFFFFFFFFFFFFFFFFFFFC
FFFFFFFFFFFFFFFFFFFFFFFC
FFFFFFFFFFFFFFFFFFFFFFFC
FFFFFFFFFFFFFFFFFFFFFFFC
FFFFFFFFFFFFFFFFFFFFFFFC
FFFFFFFFFFFFFFFFFFFFFFFC
FFFFFFFFFFFFFFFFFFFFFFFC
FFFFFFFFFFFFFFFFFFFFFFFC
FFFFFFFFFFFFFFFFFFFFFFFC
FFFFFFFFFFFFFFFFFFFFFFFC
FFFFFFFFFFFFFFFFFFFFFFFC
FFFFFFFFFFFFFFFFFFFFFFFC
FFFFFFFFFFFFFFFFFFFFFFFC
FFFFFFFFFFFFFFFFFFFFFFFC
FFFFFFFFFFFFFFFFFFFFFFFC
FFFFFFFFFFFFFFFFFFFFFFFC
FFFFFFFFFFFFFFFFFFFFFFFC
FFFFFFFFFFFFFFFFFFFFFFFC
FFFFFFFFFFFFFFFFFFFFFFFC
FFFFFFFFFFFFFFFFFFFFFFFC
FFFFFFFFFFFFFFFFFFFFFFFC
ENDCHAR
STARTCHAR three
ENCODING 51
SWIDTH 494 0
DWIDTH 103 0
BBX 94 180 4 -2
BITMAP
000000003FFFFFF000000000
000000003FFFFFF000000000
0000003FFFFFFFFFF0000000
0000003FFFFFFFFFF0000000
000003FFFFFFFFFFFF000000
000003FFFFFFFFFFFF000000
00003FFFFFFFFFFFFFF00000
00003FFFFFFFFFFFFFF00000
0003FFFFFFFFFFFFFFFC0000
0003FFFFFFFFFFFFFFFC0000
000FFFFFFFFFFFFFFFFFC000
000FFFFFFFFFFFFFFFFFC000
003FFFFFFFFFFFFFFFFFC000
003FFFFFFFFFFFFFFFFFC000
003FFFFFFFFFFFFFFFFFF000
003FFFFFFFFFFFFFFFFFF000
00FFFFFFFFFFFFFFFFFFFC00
00FFFFFFFFFFFFFFFFFFFC00
03FFFFFFFFFFFFFFFFFFFF00
03FFFFFFFFFFFFFFFFFFFF00
03FFFFFFFFFFFFFFFFFFFF00
03FFFFFFFFFFFFFFFFFFFF00
0FFFFFFFFFFFFFFFFFFFFF00
0FFFFFFFFFFFFFFFFFFFFF00
0FFFFFFFFFFFFFFFFFFFFFC0
0FFFFFFFFFFFFFFFFFFFFFC0
0FFFFFFFFFFFFFFFFFFFFFC0
0FFFFFFFFFFFFFFFFFFFFFC0
3FFFFFFFFFFFFFFFFFFFFFF0
3FFFFFFFFFFFFFFFFFFFFFF0
3FFFFFFFFFFFFFFFFFFFFFF0
3FFFFFFFFFFFFFFFFFFFFFF0
3FFFFFFFFFC00FFFFFFFFFF0
3FFFFFFFFFC00FFFFFFFFFF0
3FFFFFFFFF0003FFFFFFFFF0
3FFFFFFFFF0003FFFFFFFFF0
3FFFFFFFFF0003FFFFFFFFF0
3FFFFFFFFF0003FFFFFFFFF0
3FFFFFFFFF0000FFFFFFFFF0
3FFFFFFFFF0000FFFFFFFFF0
FFFFFFFFFC0000FFFFFFFFF0
FFFFFFFFFC0000FFFFFFFFF0
FFFFFFFFFC0000FFFFFFFFFC
FFFFFFFFFC0000FFFFFFFFFC
FFFFFFFFFC0000FFFFFFFFFC
FFFFFFFFFC0000FFFFFFFFFC
FFFFFFFFFC0000FFFFFFFFFC
FFFFFFFFFC0000FFFFFFFFFC
FFFFFFFFFC0000FFFFFFFFFC
FFFFFFFFFC0000FFFFFFFFFC
FFFFFFFFFC0000FFFFFFFFFC
FFFFFFFFFC0000FFFFFFFFFC
00000000000000FFFFFFFFF0
00000000000000FFFFFFFFF0
00000000000000FFFFFFFFF0
00000000000000FFFFFFFFF0
00000000000003FFFFFFFFF0
00000000000003FFFFFFFFF0
0000000000000FFFFFFFFFF0
0000000000000FFFFFFFFFF0
0000000000003FFFFFFFFFF0
0000000000003FFFFFFFFFF0
000000000003FFFFFFFFFFF0
000000000003FFFFFFFFFFF0
0000000003FFFFFFFFFFFFC0
0000000003FFFFFFFFFFFFC0
0000000003FFFFFFFFFFFFC0
0000000003FFFFFFFFFFFFC0
0000000003FFFFFFFFFFFFC0
0000000003FFFFFFFFFFFFC0
0000000003FFFFFFFFFFFF00
0000000003FFFFFFFFFFFF00
0000000003FFFFFFFFFFFC00
0000000003FFFFFFFFFFFC00
0000000003FFFFFFFFFFF000
0000000003FFFFFFFFFFF000
0000000003FFFFFFFFFFC000
0000000003FFFFFFFFFFC000
0000000003FFFFFFFFFC0000
0000000003FFFFFFFFFC0000
0000000003FFFFFFFFFC0000
0000000003FFFFFFFFFC0000
0000000003FFFFFFFFFFC000
0000000003FFFFFFFFFFC000
0000000003FFFFFFFFFFF000
0000000003FFFFFFFFFFF000
0000000003FFFFFFFFFFFC00
0000000003FFFFFFFFFFFC00
0000000003FFFFFFFFFFFF00
0000000003FFFFFFFFFFFF00
0000000003FFFFFFFFFFFF00
0000000003FFFFFFFFFFFF00
0000000003FFFFFFFFFFFFC0
0000000003FFFFFFFFFFFFC0
0000000003FFFFFFFFFFFFC0
0000000003FFFFFFFFFFFFC0
000000000003FFFFFFFFFFF0
000000000003FFFFFFFFFFF0
0000000000003FFFFFFFFFF0
0000000000003FFFFFFFFFF0
0000000000000FFFFFFFFFF0
0000000000000FFFFFFFFFF0
00000000000003FFFFFFFFF0
00000000000003FFFFFFFFF0
00000000000003FFFFFFFFF0
00000000000003FFFFFFFFF0
00000000000003FFFFFFFFF0
00000000000003FFFFFFFFF0
00000000000000FFFFFFFFFC
00000000000000FFFFFFFFFC
FFFFFFFFF00000FFFFFFFFFC
FFFFFFFFF00000FFFFFFFFFC
FFFFFFFFF00000FFFFFFFFFC
FFFFFFFFF00000FFFFFFFFFC
FFFFFFFFF00000FFFFFFFFFC
FFFFFFFFF00000FFFFFFFFFC
FFFFFFFFF00000FFFFFFFFFC
FFFFFFFFF00000FFFFFFFFFC
FFFFFFFFF00000FFFFFFFFFC
FFFFFFFFF00000FFFFFFFFFC
FFFFFFFFF00000FFFFFFFFFC
FFFFFFFFF00000FFFFFFFFFC
FFFFFFFFF00000FFFFFFFFFC
FFFFFFFFF00000FFFFFFFFFC
FFFFFFFFF00000FFFFFFFFFC
FFFFFFFFF00000FFFFFFFFFC
FFFFFFFFF00000FFFFFFFFFC
FFFFFFFFF00000FFFFFFFFFC
FFFFFFFFF00000FFFFFFFFFC
FFFFFFFFF00000FFFFFFFFFC
FFFFFFFFF00000FFFFFFFFFC
FFFFFFFFF00000FFFFFFFFFC
FFFFFFFFF00000FFFFFFFFFC
FFFFFFFFF00000FFFFFFFFFC
FFFFFFFFF00000FFFFFFFFFC
FFFFFFFFF00000FFFFFFFFFC
FFFFFFFFFC0000FFFFFFFFF0
FFFFFFFFFC0000FFFFFFFFF0
FFFFFFFFFC0003FFFFFFFFF0
FFFFFFFFFC0003FFFFFFFFF0
FFFFFFFFFC0003FFFFFFFFF0
FFFFFFFFFC0003FFFFFFFFF0
FFFFFFFFFF0003FFFFFFFFF0
FFFFFFFFFF0003FFFFFFFFF0
3FFFFFFFFFC00FFFFFFFFFF0
3FFFFFFFFFC00FFFFFFFFFF0
3FFFFFFFFFFFFFFFFFFFFFC0
3FFFFFFFFFFFFFFFFFFFFFC0
3FFFFFFFFFFFFFFFFFFFFFC0
3FFFFFFFFFFFFFFFFFFFFFC0
3FFFFFFFFFFFFFFFFFFFFFC0
3FFFFFFFFFFFFFFFFFFFFFC0
3FFFFFFFFFFFFFFFFFFFFFC0
3FFFFFFFFFFFFFFFFFFFFFC0
0FFFFFFFFFFFFFFFFFFFFF00
0FFFFFFFFFFFFFFFFFFFFF00
0FFFFFFFFFFFFFFFFFFFFF00
0FFFFFFFFFFFFFFFFFFFFF00
03FFFFFFFFFFFFFFFFFFFC00
03FFFFFFFFFFFFFFFFFFFC00
03FFFFFFFFFFFFFFFFFFFC00
03FFFFFFFFFFFFFFFFFFFC00
00FFFFFFFFFFFFFFFFFFF000
00FFFFFFFFFFFFFFFFFFF000
00FFFFFFFFFFFFFFFFFFC000
00FFFFFFFFFFFFFFFFFFC000
003FFFFFFFFFFFFFFFFF0000
003FFFFFFFFFFFFFFFFF0000
000FFFFFFFFFFFFFFFFF0000
000FFFFFFFFFFFFFFFFF0000
0003FFFFFFFFFFFFFFF00000
0003FFFFFFFFFFFFFFF00000
0000FFFFFFFFFFFFFFC00000
0000FFFFFFFFFFFFFFC00000
00000FFFFFFFFFFFFC000000
00000FFFFFFFFFFFFC000000
0000003FFFFFFFFFC0000000
0000003FFFFFFFFFC0000000
000000003FFFFFC000000000
000000003FFFFFC000000000
ENDCHAR
STARTCHAR four
ENCODING 52
SWIDTH 494 0
DWIDTH 103 0
BBX 98 178 2 0
BITMAP
000000003FFFFFFFFFFFFFC000
000000003FFFFFFFFFFFFFC000
00000000FFFFFFFFFFFFFFC000
00000000FFFFFFFFFFFFFFC000
00000000FFFFFFFFFFFFFFC000
00000000FFFFFFFFFFFFFFC000
00000000FFFFFFFFFFFFFFC000
00000000FFFFFFFFFFFFFFC000
00000000FFFFFFFFFFFFFFC000
00000000FFFFFFFFFFFFFFC000
00000003FFFFFFFFFFFFFFC000
00000003FFFFFFFFFFFFFFC000
00000003FFFFFFFFFFFFFFC000
00000003FFFFFFFFFFFFFFC000
00000003FFFFFFFFFFFFFFC000
00000003FFFFFFFFFFFFFFC000
0000000FFFFFFFFFFFFFFFC000
0000000FFFFFFFFFFFFFFFC000
0000000FFFFFFFFFFFFFFFC000
0000000FFFFFFFFFFFFFFFC000
0000000FFFFFFFFFFFFFFFC000
0000000FFFFFFFFFFFFFFFC000
0000000FFFFFFFFFFFFFFFC000
0000000FFFFFFFFFFFFFFFC000
0000003FFFFFFFFFFFFFFFC000
0000003FFFFFFFFFFFFFFFC000
0000003FFFFFFFFFFFFFFFC000
0000003FFFFFFFFFFFFFFFC000
0000003FFFFFFFFFFFFFFFC000
0000003FFFFFFFFFFFFFFFC000
000000FFFFFFFFFFFFFFFFC000
000000FFFFFFFFFFFFFFFFC000
000000FFFFFFFFFFFFFFFFC000
000000FFFFFFFFFFFFFFFFC000
000000FFFFFFFFFFFFFFFFC000
000000FFFFFFFFFFFFFFFFC000
000000FFFFFFFFFFFFFFFFC000
000000FFFFFFFFFFFFFFFFC000
000003FFFFFFFFFFFFFFFFC000
000003FFFFFFFFFFFFFFFFC000
000003FFFFFFCFFFFFFFFFC000
000003FFFFFFCFFFFFFFFFC000
000003FFFFFFCFFFFFFFFFC000
000003FFFFFFCFFFFFFFFFC000
000003FFFFFFCFFFFFFFFFC000
000003FFFFFFCFFFFFFFFFC000
00000FFFFFFFCFFFFFFFFFC000
00000FFFFFFFCFFFFFFFFFC000
00000FFFFFFF0FFFFFFFFFC000
00000FFFFFFF0FFFFFFFFFC000
00000FFFFFFF0FFFFFFFFFC000
00000FFFFFFF0FFFFFFFFFC000
00003FFFFFFF0FFFFFFFFFC000
00003FFFFFFF0FFFFFFFFFC000
00003FFFFFFF0FFFFFFFFFC000
00003FFFFFFF0FFFFFFFFFC000
00003FFFFFFC0FFFFFFFFFC000
00003FFFFFFC0FFFFFFFFFC000
00003FFFFFFC0FFFFFFFFFC000
00003FFFFFFC0FFFFFFFFFC000
0000FFFFFFFC0FFFFFFFFFC000
0000FFFFFFFC0FFFFFFFFFC000
0000FFFFFFFC0FFFFFFFFFC000
0000FFFFFFFC0FFFFFFFFFC000
0000FFFFFFF00FFFFFFFFFC000
0000FFFFFFF00FFFFFFFFFC000
0000FFFFFFF00FFFFFFFFFC000
0000FFFFFFF00FFFFFFFFFC000
0003FFFFFFF00FFFFFFFFFC000
0003FFFFFFF00FFFFFFFFFC000
0003FFFFFFF00FFFFFFFFFC000
0003FFFFFFF00FFFFFFFFFC000
0003FFFFFFC00FFFFFFFFFC000
0003FFFFFFC00FFFFFFFFFC000
000FFFFFFFC00FFFFFFFFFC000
000FFFFFFFC00FFFFFFFFFC000
000FFFFFFFC00FFFFFFFFFC000
000FFFFFFFC00FFFFFFFFFC000
000FFFFFFFC00FFFFFFFFFC000
000FFFFFFFC00FFFFFFFFFC000
000FFFFFFFC00FFFFFFFFFC000
000FFFFFFFC00FFFFFFFFFC000
003FFFFFFF000FFFFFFFFFC000
003FFFFFFF000FFFFFFFFFC000
003FFFFFFF000FFFFFFFFFC000
003FFFFFFF000FFFFFFFFFC000
003FFFFFFF000FFFFFFFFFC000
003FFFFFFF000FFFFFFFFFC000
00FFFFFFFF000FFFFFFFFFC000
00FFFFFFFF000FFFFFFFFFC000
00FFFFFFFC000FFFFFFFFFC000
00FFFFFFFC000FFFFFFFFFC000
00FFFFFFFC000FFFFFFFFFC000
00FFFFFFFC000FFFFFFFFFC000
00FFFFFFFC000FFFFFFFFFC000
00FFFFFFFC000FFFFFFFFFC000
03FFFFFFFC000FFFFFFFFFC000
03FFFFFFFC000FFFFFFFFFC000
03FFFFFFF0000FFFFFFFFFC000
03FFFFFFF0000FFFFFFFFFC000
03FFFFFFF0000FFFFFFFFFC000
03FFFFFFF0000FFFFFFFFFC000
03FFFFFFF0000FFFFFFFFFC000
03FFFFFFF0000FFFFFFFFFC000
0FFFFFFFF0000FFFFFFFFFC000
0FFFFFFFF0000FFFFFFFFFC000
0FFFFFFFC0000FFFFFFFFFC000
0FFFFFFFC0000FFFFFFFFFC000
0FFFFFFFC0000FFFFFFFFFC000
0FFFFFFFC0000FFFFFFFFFC000
3FFFFFFFC0000FFFFFFFFFC000
3FFFFFFFC0000FFFFFFFFFC000
3FFFFFFFC0000FFFFFFFFFC000
3FFFFFFFC0000FFFFFFFFFC000
3FFFFFFF00000FFFFFFFFFC000
3FFFFFFF00000FFFFFFFFFC000
3FFFFFFF00000FFFFFFFFFC000
3FFFFFFF00000FFFFFFFFFC000
FFFFFFFF00000FFFFFFFFFC000
FFFFFFFF00000FFFFFFFFFC000
FFFFFFFFFFFFFFFFFFFFFFFFC0
FFFFFFFFFFFFFFFFFFFFFFFFC0
FFFFFFFFFFFFFFFFFFFFFFFFC0
FFFFFFFFFFFFFFFFFFFFFFFFC0
FFFFFFFFFFFFFFFFFFFFFFFFC0
FFFFFFFFFFFFFFFFFFFFFFFFC0
FFFFFFFFFFFFFFFFFFFFFFFFC0
FFFFFFFFFFFFFFFFFFFFFFFFC0
FFFFFFFFFFFFFFFFFFFFFFFFC0
FFFFFFFFFFFFFFFFFFFFFFFFC0
FFFFFFFFFFFFFFFFFFFFFFFFC0
FFFFFFFFFFFFFFFFFFFFFFFFC0
FFFFFFFFFFFFFFFFFFFFFFFFC0
FFFFFFFFFFFFFFFFFFFFFFFFC0
FFFFFFFFFFFFFFFFFFFFFFFFC0
FFFFFFFFFFFFFFFFFFFFFFFFC0
FFFFFFFFFFFFFFFFFFFFFFFFC0
FFFFFFFFFFFFFFFFFFFFFFFFC0
FFFFFFFFFFFFFFFFFFFFFFFFC0
FFFFFFFFFFFFFFFFFFFFFFFFC0
FFFFFFFFFFFFFFFFFFFFFFFFC0
FFFFFFFFFFFFFFFFFFFFFFFFC0
FFFFFFFFFFFFFFFFFFFFFFFFC0
FFFFFFFFFFFFFFFFFFFFFFFFC0
FFFFFFFFFFFFFFFFFFFFFFFFC0
FFFFFFFFFFFFFFFFFFFFFFFFC0
FFFFFFFFFFFFFFFFFFFFFFFFC0
FFFFFFFFFFFFFFFFFFFFFFFFC0
FFFFFFFFFFFFFFFFFFFFFFFFC0
FFFFFFFFFFFFFFFFFFFFFFFFC0
0000000000000FFFFFFFFFC000
0000000000000FFFFFFFFFC000
0000000000000FFFFFFFFFC000
0000000000000FFFFFFFFFC000
0000000000000FFFFFFFFFC000
0000000000000FFFFFFFFFC000
0000000000000FFFFFFFFFC000
0000000000000FFFFFFFFFC000
0000000000000FFFFFFFFFC000
0000000000000FFFFFFFFFC000
0000000000000FFFFFFFFFC000
0000000000000FFFFFFFFFC000
0000000000000FFFFFFFFFC000
0000000000000FFFFFFFFFC000
0000000000000FFFFFFFFFC000
0000000000000FFFFFFFFFC000
0000000000000FFFFFFFFFC000
0000000000000FFFFFFFFFC000
0000000000000FFFFFFFFFC000
0000000000000FFFFFFFFFC000
0000000000000FFFFFFFFFC000
0000000000000FFFFFFFFFC000
0000000000000FFFFFFFFFC000
0000000000000FFFFFFFFFC000
0000000000000FFFFFFFFFC000
0000000000000FFFFFFFFFC000
0000000000000FFFFFFFFFC000
0000000000000FFFFFFFFFC000
ENDCHAR
STARTCHAR five
ENCODING 53
SWIDTH 494 0
DWIDTH 103 0
BBX 96 180 4 -2
BITMAP
0FFFFFFFFFFFFFFFFFFFFFC0
0FFFFFFFFFFFFFFFFFFFFFC0
0FFFFFFFFFFFFFFFFFFFFFC0
0FFFFFFFFFFFFFFFFFFFFFC0
0FFFFFFFFFFFFFFFFFFFFFC0
0FFFFFFFFFFFFFFFFFFFFFC0
0FFFFFFFFFFFFFFFFFFFFFC0
0FFFFFFFFFFFFFFFFFFFFFC0
0FFFFFFFFFFFFFFFFFFFFFC0
0FFFFFFFFFFFFFFFFFFFFFC0
0FFFFFFFFFFFFFFFFFFFFFC0
0FFFFFFFFFFFFFFFFFFFFFC0
0FFFFFFFFFFFFFFFFFFFFFC0
0FFFFFFFFFFFFFFFFFFFFFC0
0FFFFFFFFFFFFFFFFFFFFFC0
0FFFFFFFFFFFFFFFFFFFFFC0
0FFFFFFFFFFFFFFFFFFFFFC0
0FFFFFFFFFFFFFFFFFFFFFC0
0FFFFFFFFFFFFFFFFFFFFFC0
0FFFFFFFFFFFFFFFFFFFFFC0
0FFFFFFFFFFFFFFFFFFFFFC0
0FFFFFFFFFFFFFFFFFFFFFC0
0FFFFFFFFFFFFFFFFFFFFFC0
0FFFFFFFFFFFFFFFFFFFFFC0
0FFFFFFFFFFFFFFFFFFFFFC0
0FFFFFFFFFFFFFFFFFFFFFC0
0FFFFFFFFFFFFFFFFFFFFFC0
0FFFFFFFFFFFFFFFFFFFFFC0
0FFFFFFFFFFFFFFFFFFFFFC0
0FFFFFFFFFFFFFFFFFFFFFC0
0FFFFFFFFFFFFFFFFFFFFFC0
0FFFFFFFFFFFFFFFFFFFFFC0
0FFFFFFFFFFFFFFFFFFFFFC0
0FFFFFFFFFFFFFFFFFFFFFC0
0FFFFFFFFC00000000000000
0FFFFFFFFC00000000000000
0FFFFFFFFC00000000000000
0FFFFFFFFC00000000000000
0FFFFFFFFC00000000000000
0FFFFFFFFC00000000000000
0FFFFFFFFC00000000000000
0FFFFFFFFC00000000000000
0FFFFFFFFC00000000000000
0FFFFFFFFC00000000000000
0FFFFFFFFC00000000000000
0FFFFFFFFC00000000000000
0FFFFFFFFC00000000000000
0FFFFFFFFC00000000000000
0FFFFFFFFC00000000000000
0FFFFFFFFC00000000000000
0FFFFFFFFC003FFFC0000000
0FFFFFFFFC003FFFC0000000
0FFFFFFFFC0FFFFFFFC00000
0FFFFFFFFC0FFFFFFFC00000
0FFFFFFFFC3FFFFFFFFC0000
0FFFFFFFFC3FFFFFFFFC0000
0FFFFFFFFCFFFFFFFFFF0000
0FFFFFFFFCFFFFFFFFFF0000
0FFFFFFFFFFFFFFFFFFFC000
0FFFFFFFFFFFFFFFFFFFC000
0FFFFFFFFFFFFFFFFFFFF000
0FFFFFFFFFFFFFFFFFFFF000
0FFFFFFFFFFFFFFFFFFFFC00
0FFFFFFFFFFFFFFFFFFFFC00
0FFFFFFFFFFFFFFFFFFFFC00
0FFFFFFFFFFFFFFFFFFFFC00
0FFFFFFFFFFFFFFFFFFFFF00
0FFFFFFFFFFFFFFFFFFFFF00
0FFFFFFFFFFFFFFFFFFFFF00
0FFFFFFFFFFFFFFFFFFFFF00
0FFFFFFFFFFFFFFFFFFFFFC0
0FFFFFFFFFFFFFFFFFFFFFC0
0FFFFFFFFFFFFFFFFFFFFFC0
0FFFFFFFFFFFFFFFFFFFFFC0
0FFFFFFFFFFFFFFFFFFFFFC0
0FFFFFFFFFFFFFFFFFFFFFC0
0FFFFFFFFFFFFFFFFFFFFFF0
0FFFFFFFFFFFFFFFFFFFFFF0
0FFFFFFFFFFFFFFFFFFFFFF0
0FFFFFFFFFFFFFFFFFFFFFF0
0FFFFFFFFFC00FFFFFFFFFF0
0FFFFFFFFFC00FFFFFFFFFF0
0FFFFFFFFF0003FFFFFFFFF0
0FFFFFFFFF0003FFFFFFFFF0
0FFFFFFFFF0003FFFFFFFFFC
0FFFFFFFFF0003FFFFFFFFFC
0FFFFFFFFC0000FFFFFFFFFC
0FFFFFFFFC0000FFFFFFFFFC
0FFFFFFFFC0000FFFFFFFFFC
0FFFFFFFFC0000FFFFFFFFFC
0FFFFFFFFC0000FFFFFFFFFC
0FFFFFFFFC0000FFFFFFFFFC
0FFFFFFFFC0000FFFFFFFFFC
0FFFFFFFFC0000FFFFFFFFFC
00000000000000FFFFFFFFFC
00000000000000FFFFFFFFFC
00000000000000FFFFFFFFFC
00000000000000FFFFFFFFFC
00000000000000FFFFFFFFFC
00000000000000FFFFFFFFFC
00000000000000FFFFFFFFFC
00000000000000FFFFFFFFFC
00000000000000FFFFFFFFFF
00000000000000FFFFFFFFFF
00000000000000FFFFFFFFFF
00000000000000FFFFFFFFFF
00000000000000FFFFFFFFFF
00000000000000FFFFFFFFFF
00000000000000FFFFFFFFFF
00000000000000FFFFFFFFFF
00000000000000FFFFFFFFFF
00000000000000FFFFFFFFFF
FFFFFFFFFC0000FFFFFFFFFF
FFFFFFFFFC0000FFFFFFFFFF
FFFFFFFFFC0000FFFFFFFFFF
FFFFFFFFFC0000FFFFFFFFFF
FFFFFFFFFC0000FFFFFFFFFF
FFFFFFFFFC0000FFFFFFFFFF
FFFFFFFFFC0000FFFFFFFFFF
FFFFFFFFFC0000FFFFFFFFFF
FFFFFFFFFC0000FFFFFFFFFF
FFFFFFFFFC0000FFFFFFFFFF
FFFFFFFFFC0000FFFFFFFFFC
FFFFFFFFFC0000FFFFFFFFFC
FFFFFFFFFC0000FFFFFFFFFC
FFFFFFFFFC0000FFFFFFFFFC
FFFFFFFFFC0000FFFFFFFFFC
FFFFFFFFFC0000FFFFFFFFFC
FFFFFFFFFC0000FFFFFFFFFC
FFFFFFFFFC0000FFFFFFFFFC
FFFFFFFFFC0000FFFFFFFFFC
FFFFFFFFFC0000FFFFFFFFFC
FFFFFFFFFC0000FFFFFFFFFC
FFFFFFFFFC0000FFFFFFFFFC
FFFFFFFFFC0000FFFFFFFFFC
FFFFFFFFFC0000FFFFFFFFFC
FFFFFFFFFC0000FFFFFFFFFC
FFFFFFFFFC0000FFFFFFFFFC
FFFFFFFFFF0000FFFFFFFFFC
FFFFFFFFFF0000FFFFFFFFFC
FFFFFFFFFF0000FFFFFFFFFC
FFFFFFFFFF0000FFFFFFFFFC
FFFFFFFFFF0003FFFFFFFFF0
FFFFFFFFFF0003FFFFFFFFF0
FFFFFFFFFFF00FFFFFFFFFF0
FFFFFFFFFFF00FFFFFFFFFF0
3FFFFFFFFFFFFFFFFFFFFFF0
3FFFFFFFFFFFFFFFFFFFFFF0
3FFFFFFFFFFFFFFFFFFFFFF0
3FFFFFFFFFFFFFFFFFFFFFF0
3FFFFFFFFFFFFFFFFFFFFFF0
3FFFFFFFFFFFFFFFFFFFFFF0
3FFFFFFFFFFFFFFFFFFFFFC0
3FFFFFFFFFFFFFFFFFFFFFC0
0FFFFFFFFFFFFFFFFFFFFFC0
0FFFFFFFFFFFFFFFFFFFFFC0
0FFFFFFFFFFFFFFFFFFFFFC0
0FFFFFFFFFFFFFFFFFFFFFC0
0FFFFFFFFFFFFFFFFFFFFF00
0FFFFFFFFFFFFFFFFFFFFF00
03FFFFFFFFFFFFFFFFFFFF00
03FFFFFFFFFFFFFFFFFFFF00
00FFFFFFFFFFFFFFFFFFFC00
00FFFFFFFFFFFFFFFFFFFC00
00FFFFFFFFFFFFFFFFFFF000
00FFFFFFFFFFFFFFFFFFF000
003FFFFFFFFFFFFFFFFFC000
003FFFFFFFFFFFFFFFFFC000
000FFFFFFFFFFFFFFFFFC000
000FFFFFFFFFFFFFFFFFC000
0000FFFFFFFFFFFFFFFC0000
0000FFFFFFFFFFFFFFFC0000
00003FFFFFFFFFFFFFF00000
00003FFFFFFFFFFFFFF00000
000003FFFFFFFFFFFF000000
000003FFFFFFFFFFFF000000
0000003FFFFFFFFFF0000000
0000003FFFFFFFFFF0000000
000000000FFFFFF000000000
000000000FFFFFF000000000
ENDCHAR
STARTCHAR six
ENCODING 54
SWIDTH 494 0
DWIDTH 103 0
BBX 94 182 6 -2
BITMAP
000000000FFFFFF000000000
000000000FFFFFF000000000
0000000FFFFFFFFFF0000000
0000000FFFFFFFFFF0000000
000003FFFFFFFFFFFF000000
000003FFFFFFFFFFFF000000
00003FFFFFFFFFFFFFF00000
00003FFFFFFFFFFFFFF00000
0000FFFFFFFFFFFFFFFC0000
0000FFFFFFFFFFFFFFFC0000
0003FFFFFFFFFFFFFFFFC000
0003FFFFFFFFFFFFFFFFC000
000FFFFFFFFFFFFFFFFFF000
000FFFFFFFFFFFFFFFFFF000
003FFFFFFFFFFFFFFFFFF000
003FFFFFFFFFFFFFFFFFF000
003FFFFFFFFFFFFFFFFFFC00
003FFFFFFFFFFFFFFFFFFC00
00FFFFFFFFFFFFFFFFFFFF00
00FFFFFFFFFFFFFFFFFFFF00
03FFFFFFFFFFFFFFFFFFFF00
03FFFFFFFFFFFFFFFFFFFF00
03FFFFFFFFFFFFFFFFFFFFC0
03FFFFFFFFFFFFFFFFFFFFC0
03FFFFFFFFFFFFFFFFFFFFC0
03FFFFFFFFFFFFFFFFFFFFC0
0FFFFFFFFFFFFFFFFFFFFFC0
0FFFFFFFFFFFFFFFFFFFFFC0
0FFFFFFFFFFFFFFFFFFFFFF0
0FFFFFFFFFFFFFFFFFFFFFF0
0FFFFFFFFFFFFFFFFFFFFFF0
0FFFFFFFFFFFFFFFFFFFFFF0
3FFFFFFFFFC00FFFFFFFFFF0
3FFFFFFFFFC00FFFFFFFFFF0
3FFFFFFFFF0003FFFFFFFFF0
3FFFFFFFFF0003FFFFFFFFF0
3FFFFFFFFC0000FFFFFFFFF0
3FFFFFFFFC0000FFFFFFFFF0
3FFFFFFFFC0000FFFFFFFFF0
3FFFFFFFFC0000FFFFFFFFF0
3FFFFFFFFC0000FFFFFFFFF0
3FFFFFFFFC0000FFFFFFFFF0
3FFFFFFFFC0000FFFFFFFFF0
3FFFFFFFFC0000FFFFFFFFF0
FFFFFFFFFC0000FFFFFFFFF0
FFFFFFFFFC0000FFFFFFFFF0
FFFFFFFFFC0000FFFFFFFFF0
FFFFFFFFFC0000FFFFFFFFF0
FFFFFFFFFC0000FFFFFFFFF0
FFFFFFFFFC0000FFFFFFFFF0
FFFFFFFFFC00003FFFFFFFF0
FFFFFFFFFC00003FFFFFFFF0
FFFFFFFFFC00003FFFFFFFF0
FFFFFFFFFC00003FFFFFFFF0
FFFFFFFFFC00000000000000
FFFFFFFFFC00000000000000
FFFFFFFFFC00000000000000
FFFFFFFFFC00000000000000
FFFFFFFFFC00000000000000
FFFFFFFFFC00000000000000
FFFFFFFFFC00000000000000
FFFFFFFFFC00000000000000
FFFFFFFFFC00000000000000
FFFFFFFFFC00000000000000
FFFFFFFFFC00000000000000
FFFFFFFFFC00000000000000
FFFFFFFFFC00000000000000
FFFFFFFFFC00000000000000
FFFFFFFFFC00000000000000
FFFFFFFFFC00000000000000
FFFFFFFFFC003FFFF0000000
FFFFFFFFFC003FFFF0000000
FFFFFFFFFC0FFFFFFFC00000
FFFFFFFFFC0FFFFFFFC00000
FFFFFFFFFC3FFFFFFFFC0000
FFFFFFFFFC3FFFFFFFFC0000
FFFFFFFFFCFFFFFFFFFFC000
FFFFFFFFFCFFFFFFFFFFC000
FFFFFFFFFFFFFFFFFFFFF000
FFFFFFFFFFFFFFFFFFFFF000
FFFFFFFFFFFFFFFFFFFFFC00
FFFFFFFFFFFFFFFFFFFFFC00
FFFFFFFFFFFFFFFFFFFFFC00
FFFFFFFFFFFFFFFFFFFFFC00
FFFFFFFFFFFFFFFFFFFFFF00
FFFFFFFFFFFFFFFFFFFFFF00
FFFFFFFFFFFFFFFFFFFFFF00
FFFFFFFFFFFFFFFFFFFFFF00
FFFFFFFFFFFFFFFFFFFFFFC0
FFFFFFFFFFFFFFFFFFFFFFC0
FFFFFFFFFFFFFFFFFFFFFFC0
FFFFFFFFFFFFFFFFFFFFFFC0
FFFFFFFFFFFFFFFFFFFFFFF0
FFFFFFFFFFFFFFFFFFFFFFF0
FFFFFFFFFFFFFFFFFFFFFFF0
FFFFFFFFFFFFFFFFFFFFFFF0
FFFFFFFFFFFFFFFFFFFFFFF0
FFFFFFFFFFFFFFFFFFFFFFF0
FFFFFFFFFFFFFFFFFFFFFFF0
FFFFFFFFFFFFFFFFFFFFFFF0
FFFFFFFFFFFFFFFFFFFFFFF0
FFFFFFFFFFFFFFFFFFFFFFF0
FFFFFFFFFFC03FFFFFFFFFFC
FFFFFFFFFFC03FFFFFFFFFFC
FFFFFFFFFF000FFFFFFFFFFC
FFFFFFFFFF000FFFFFFFFFFC
FFFFFFFFFC0003FFFFFFFFFC
FFFFFFFFFC0003FFFFFFFFFC
FFFFFFFFFC0003FFFFFFFFFC
FFFFFFFFFC0003FFFFFFFFFC
FFFFFFFFFC0003FFFFFFFFFC
FFFFFFFFFC0003FFFFFFFFFC
FFFFFFFFFC0003FFFFFFFFFC
FFFFFFFFFC0003FFFFFFFFFC
FFFFFFFFFC0000FFFFFFFFFC
FFFFFFFFFC0000FFFFFFFFFC
FFFFFFFFFC0000FFFFFFFFFC
FFFFFFFFFC0000FFFFFFFFFC
FFFFFFFFFC0000FFFFFFFFFC
FFFFFFFFFC0000FFFFFFFFFC
FFFFFFFFFC0000FFFFFFFFFC
FFFFFFFFFC0000FFFFFFFFFC
FFFFFFFFFC0000FFFFFFFFFC
FFFFFFFFFC0000FFFFFFFFFC
FFFFFFFFFC0000FFFFFFFFFC
FFFFFFFFFC0000FFFFFFFFFC
FFFFFFFFFC0000FFFFFFFFFC
FFFFFFFFFC0000FFFFFFFFFC
FFFFFFFFFC0000FFFFFFFFFC
FFFFFFFFFC0000FFFFFFFFFC
FFFFFFFFFC0000FFFFFFFFFC
FFFFFFFFFC0000FFFFFFFFFC
FFFFFFFFFC0000FFFFFFFFFC
FFFFFFFFFC0000FFFFFFFFFC
FFFFFFFFFC0000FFFFFFFFFC
FFFFFFFFFC0000FFFFFFFFFC
FFFFFFFFFC0003FFFFFFFFFC
FFFFFFFFFC0003FFFFFFFFFC
FFFFFFFFFC0003FFFFFFFFFC
FFFFFFFFFC0003FFFFFFFFFC
FFFFFFFFFC0003FFFFFFFFF0
FFFFFFFFFC0003FFFFFFFFF0
FFFFFFFFFC0003FFFFFFFFF0
FFFFFFFFFC0003FFFFFFFFF0
FFFFFFFFFC0003FFFFFFFFF0
FFFFFFFFFC0003FFFFFFFFF0
3FFFFFFFFF000FFFFFFFFFF0
3FFFFFFFFF000FFFFFFFFFF0
3FFFFFFFFFC03FFFFFFFFFF0
3FFFFFFFFFC03FFFFFFFFFF0
3FFFFFFFFFFFFFFFFFFFFFC0
3FFFFFFFFFFFFFFFFFFFFFC0
3FFFFFFFFFFFFFFFFFFFFFC0
3FFFFFFFFFFFFFFFFFFFFFC0
0FFFFFFFFFFFFFFFFFFFFFC0
0FFFFFFFFFFFFFFFFFFFFFC0
0FFFFFFFFFFFFFFFFFFFFF00
0FFFFFFFFFFFFFFFFFFFFF00
0FFFFFFFFFFFFFFFFFFFFF00
0FFFFFFFFFFFFFFFFFFFFF00
03FFFFFFFFFFFFFFFFFFFC00
03FFFFFFFFFFFFFFFFFFFC00
03FFFFFFFFFFFFFFFFFFFC00
03FFFFFFFFFFFFFFFFFFFC00
00FFFFFFFFFFFFFFFFFFF000
00FFFFFFFFFFFFFFFFFFF000
00FFFFFFFFFFFFFFFFFFF000
00FFFFFFFFFFFFFFFFFFF000
003FFFFFFFFFFFFFFFFFC000
003FFFFFFFFFFFFFFFFFC000
000FFFFFFFFFFFFFFFFF0000
000FFFFFFFFFFFFFFFFF0000
0003FFFFFFFFFFFFFFFC0000
0003FFFFFFFFFFFFFFFC0000
00003FFFFFFFFFFFFFC00000
00003FFFFFFFFFFFFFC00000
00000FFFFFFFFFFFFF000000
00000FFFFFFFFFFFFF000000
0000003FFFFFFFFFF0000000
0000003FFFFFFFFFF0000000
000000003FFFFFF000000000
000000003FFFFFF000000000
ENDCHAR
STARTCHAR seven
ENCODING 55
SWIDTH 494 0
DWIDTH 103 0
BBX 90 178 8 0
BITMAP
FFFFFFFFFFFFFFFFFFFFFFC0
FFFFFFFFFFFFFFFFFFFFFFC0
FFFFFFFFFFFFFFFFFFFFFFC0
FFFFFFFFFFFFFFFFFFFFFFC0
FFFFFFFFFFFFFFFFFFFFFFC0
FFFFFFFFFFFFFFFFFFFFFFC0
FFFFFFFFFFFFFFFFFFFFFFC0
FFFFFFFFFFFFFFFFFFFFFFC0
FFFFFFFFFFFFFFFFFFFFFFC0
FFFFFFFFFFFFFFFFFFFFFFC0
FFFFFFFFFFFFFFFFFFFFFFC0
FFFFFFFFFFFFFFFFFFFFFFC0
FFFFFFFFFFFFFFFFFFFFFFC0
FFFFFFFFFFFFFFFFFFFFFFC0
FFFFFFFFFFFFFFFFFFFFFFC0
FFFFFFFFFFFFFFFFFFFFFFC0
FFFFFFFFFFFFFFFFFFFFFFC0
FFFFFFFFFFFFFFFFFFFFFFC0
FFFFFFFFFFFFFFFFFFFFFFC0
FFFFFFFFFFFFFFFFFFFFFFC0
FFFFFFFFFFFFFFFFFFFFFFC0
FFFFFFFFFFFFFFFFFFFFFFC0
FFFFFFFFFFFFFFFFFFFFFFC0
FFFFFFFFFFFFFFFFFFFFFFC0
FFFFFFFFFFFFFFFFFFFFFFC0
FFFFFFFFFFFFFFFFFFFFFFC0
FFFFFFFFFFFFFFFFFFFFFFC0
FFFFFFFFFFFFFFFFFFFFFFC0
FFFFFFFFFFFFFFFFFFFFFFC0
FFFFFFFFFFFFFFFFFFFFFFC0
FFFFFFFFFFFFFFFFFFFFFF00
FFFFFFFFFFFFFFFFFFFFFF00
FFFFFFFFFFFFFFFFFFFFFF00
FFFFFFFFFFFFFFFFFFFFFF00
0000000000003FFFFFFFFF00
0000000000003FFFFFFFFF00
000000000000FFFFFFFFFF00
000000000000FFFFFFFFFF00
000000000000FFFFFFFFFF00
000000000000FFFFFFFFFF00
000000000003FFFFFFFFFC00
000000000003FFFFFFFFFC00
000000000003FFFFFFFFFC00
000000000003FFFFFFFFFC00
000000000003FFFFFFFFFC00
000000000003FFFFFFFFFC00
00000000000FFFFFFFFFF000
00000000000FFFFFFFFFF000
00000000000FFFFFFFFFF000
00000000000FFFFFFFFFF000
00000000000FFFFFFFFFF000
00000000000FFFFFFFFFF000
00000000003FFFFFFFFFC000
00000000003FFFFFFFFFC000
00000000003FFFFFFFFFC000
00000000003FFFFFFFFFC000
0000000000FFFFFFFFFF0000
0000000000FFFFFFFFFF0000
0000000000FFFFFFFFFF0000
0000000000FFFFFFFFFF0000
0000000000FFFFFFFFFC0000
0000000000FFFFFFFFFC0000
0000000003FFFFFFFFFC0000
0000000003FFFFFFFFFC0000
0000000003FFFFFFFFFC0000
0000000003FFFFFFFFFC0000
000000000FFFFFFFFFF00000
000000000FFFFFFFFFF00000
000000000FFFFFFFFFF00000
000000000FFFFFFFFFF00000
000000000FFFFFFFFFC00000
000000000FFFFFFFFFC00000
000000003FFFFFFFFFC00000
000000003FFFFFFFFFC00000
000000003FFFFFFFFF000000
000000003FFFFFFFFF000000
00000000FFFFFFFFFF000000
00000000FFFFFFFFFF000000
00000000FFFFFFFFFC000000
00000000FFFFFFFFFC000000
00000000FFFFFFFFFC000000
00000000FFFFFFFFFC000000
00000003FFFFFFFFF0000000
00000003FFFFFFFFF0000000
00000003FFFFFFFFF0000000
00000003FFFFFFFFF0000000
0000000FFFFFFFFFF0000000
0000000FFFFFFFFFF0000000
0000000FFFFFFFFFC0000000
0000000FFFFFFFFFC0000000
0000000FFFFFFFFFC0000000
0000000FFFFFFFFFC0000000
0000003FFFFFFFFFC0000000
0000003FFFFFFFFFC0000000
0000003FFFFFFFFF00000000
0000003FFFFFFFFF00000000
0000003FFFFFFFFF00000000
0000003FFFFFFFFF00000000
000000FFFFFFFFFF00000000
000000FFFFFFFFFF00000000
000000FFFFFFFFFC00000000
000000FFFFFFFFFC00000000
000000FFFFFFFFFC00000000
000000FFFFFFFFFC00000000
000003FFFFFFFFFC00000000
000003FFFFFFFFFC00000000
000003FFFFFFFFF000000000
000003FFFFFFFFF000000000
000003FFFFFFFFF000000000
000003FFFFFFFFF000000000
00000FFFFFFFFFF000000000
00000FFFFFFFFFF000000000
00000FFFFFFFFFC000000000
00000FFFFFFFFFC000000000
00000FFFFFFFFFC000000000
00000FFFFFFFFFC000000000
00003FFFFFFFFFC000000000
00003FFFFFFFFFC000000000
00003FFFFFFFFF0000000000
00003FFFFFFFFF0000000000
00003FFFFFFFFF0000000000
00003FFFFFFFFF0000000000
0000FFFFFFFFFF0000000000
0000FFFFFFFFFF0000000000
0000FFFFFFFFFF0000000000
0000FFFFFFFFFF0000000000
0000FFFFFFFFFC0000000000
0000FFFFFFFFFC0000000000
0003FFFFFFFFFC0000000000
0003FFFFFFFFFC0000000000
0003FFFFFFFFFC0000000000
0003FFFFFFFFFC0000000000
0003FFFFFFFFFC0000000000
0003FFFFFFFFFC0000000000
0003FFFFFFFFFC0000000000
0003FFFFFFFFFC0000000000
000FFFFFFFFFF00000000000
000FFFFFFFFFF00000000000
000FFFFFFFFFF00000000000
000FFFFFFFFFF00000000000
000FFFFFFFFFF00000000000
000FFFFFFFFFF00000000000
000FFFFFFFFFF00000000000
000FFFFFFFFFF00000000000
003FFFFFFFFFF00000000000
003FFFFFFFFFF00000000000
003FFFFFFFFFC00000000000
003FFFFFFFFFC00000000000
003FFFFFFFFFC00000000000
003FFFFFFFFFC00000000000
003FFFFFFFFFC00000000000
003FFFFFFFFFC00000000000
003FFFFFFFFFC00000000000
003FFFFFFFFFC00000000000
003FFFFFFFFFC00000000000
003FFFFFFFFFC00000000000
00FFFFFFFFFFC00000000000
00FFFFFFFFFFC00000000000
00FFFFFFFFFF000000000000
00FFFFFFFFFF000000000000
00FFFFFFFFFF000000000000
00FFFFFFFFFF000000000000
00FFFFFFFFFF000000000000
00FFFFFFFFFF000000000000
00FFFFFFFFFF000000000000
00FFFFFFFFFF000000000000
00FFFFFFFFFF000000000000
00FFFFFFFFFF000000000000
00FFFFFFFFFF000000000000
00FFFFFFFFFF000000000000
00FFFFFFFFFF000000000000
00FFFFFFFFFF000000000000
00FFFFFFFFFF000000000000
00FFFFFFFFFF000000000000
03FFFFFFFFFF000000000000
03FFFFFFFFFF000000000000
03FFFFFFFFFF000000000000
03FFFFFFFFFF000000000000
ENDCHAR
STARTCHAR eight
ENCODING 56
SWIDTH 494 0
DWIDTH 103 0
BBX 94 182 4 -2
BITMAP
000000003FFFFFF000000000
000000003FFFFFF000000000
0000003FFFFFFFFFF0000000
0000003FFFFFFFFFF0000000
000003FFFFFFFFFFFFC00000
000003FFFFFFFFFFFFC00000
00003FFFFFFFFFFFFFF00000
00003FFFFFFFFFFFFFF00000
0003FFFFFFFFFFFFFFFF0000
0003FFFFFFFFFFFFFFFF0000
000FFFFFFFFFFFFFFFFFC000
000FFFFFFFFFFFFFFFFFC000
003FFFFFFFFFFFFFFFFFF000
003FFFFFFFFFFFFFFFFFF000
00FFFFFFFFFFFFFFFFFFFC00
00FFFFFFFFFFFFFFFFFFFC00
00FFFFFFFFFFFFFFFFFFFC00
00FFFFFFFFFFFFFFFFFFFC00
03FFFFFFFFFFFFFFFFFFFF00
03FFFFFFFFFFFFFFFFFFFF00
03FFFFFFFFFFFFFFFFFFFFC0
03FFFFFFFFFFFFFFFFFFFFC0
0FFFFFFFFFFFFFFFFFFFFFC0
0FFFFFFFFFFFFFFFFFFFFFC0
0FFFFFFFFFFFFFFFFFFFFFC0
0FFFFFFFFFFFFFFFFFFFFFC0
0FFFFFFFFFFFFFFFFFFFFFF0
0FFFFFFFFFFFFFFFFFFFFFF0
3FFFFFFFFFFFFFFFFFFFFFF0
3FFFFFFFFFFFFFFFFFFFFFF0
3FFFFFFFFFFFFFFFFFFFFFF0
3FFFFFFFFFFFFFFFFFFFFFF0
3FFFFFFFFFF00FFFFFFFFFF0
3FFFFFFFFFF00FFFFFFFFFF0
3FFFFFFFFFC003FFFFFFFFFC
3FFFFFFFFFC003FFFFFFFFFC
3FFFFFFFFF0003FFFFFFFFFC
3FFFFFFFFF0003FFFFFFFFFC
FFFFFFFFFF0000FFFFFFFFFC
FFFFFFFFFF0000FFFFFFFFFC
FFFFFFFFFC0000FFFFFFFFFC
FFFFFFFFFC0000FFFFFFFFFC
FFFFFFFFFC0000FFFFFFFFFC
FFFFFFFFFC0000FFFFFFFFFC
FFFFFFFFFC0000FFFFFFFFFC
FFFFFFFFFC0000FFFFFFFFFC
FFFFFFFFFC0000FFFFFFFFFC
FFFFFFFFFC0000FFFFFFFFFC
FFFFFFFFFC0000FFFFFFFFFC
FFFFFFFFFC0000FFFFFFFFFC
FFFFFFFFFC0000FFFFFFFFFC
FFFFFFFFFC0000FFFFFFFFFC
FFFFFFFFFC0000FFFFFFFFFC
FFFFFFFFFC0000FFFFFFFFFC
FFFFFFFFFC0000FFFFFFFFFC
FFFFFFFFFC0000FFFFFFFFFC
3FFFFFFFFC0000FFFFFFFFFC
3FFFFFFFFC0000FFFFFFFFFC
3FFFFFFFFF0000FFFFFFFFFC
3FFFFFFFFF0000FFFFFFFFFC
3FFFFFFFFF0003FFFFFFFFF0
3FFFFFFFFF0003FFFFFFFFF0
3FFFFFFFFFC003FFFFFFFFF0
3FFFFFFFFFC003FFFFFFFFF0
3FFFFFFFFFF00FFFFFFFFFF0
3FFFFFFFFFF00FFFFFFFFFF0
0FFFFFFFFFFFFFFFFFFFFFF0
0FFFFFFFFFFFFFFFFFFFFFF0
0FFFFFFFFFFFFFFFFFFFFFC0
0FFFFFFFFFFFFFFFFFFFFFC0
0FFFFFFFFFFFFFFFFFFFFFC0
0FFFFFFFFFFFFFFFFFFFFFC0
03FFFFFFFFFFFFFFFFFFFF00
03FFFFFFFFFFFFFFFFFFFF00
00FFFFFFFFFFFFFFFFFFFF00
00FFFFFFFFFFFFFFFFFFFF00
003FFFFFFFFFFFFFFFFFFC00
003FFFFFFFFFFFFFFFFFFC00
000FFFFFFFFFFFFFFFFFC000
000FFFFFFFFFFFFFFFFFC000
0000FFFFFFFFFFFFFFFF0000
0000FFFFFFFFFFFFFFFF0000
000FFFFFFFFFFFFFFFFFC000
000FFFFFFFFFFFFFFFFFC000
003FFFFFFFFFFFFFFFFFF000
003FFFFFFFFFFFFFFFFFF000
00FFFFFFFFFFFFFFFFFFFC00
00FFFFFFFFFFFFFFFFFFFC00
03FFFFFFFFFFFFFFFFFFFF00
03FFFFFFFFFFFFFFFFFFFF00
03FFFFFFFFFFFFFFFFFFFFC0
03FFFFFFFFFFFFFFFFFFFFC0
0FFFFFFFFFFFFFFFFFFFFFC0
0FFFFFFFFFFFFFFFFFFFFFC0
0FFFFFFFFFFFFFFFFFFFFFF0
0FFFFFFFFFFFFFFFFFFFFFF0
3FFFFFFFFFFFFFFFFFFFFFF0
3FFFFFFFFFFFFFFFFFFFFFF0
3FFFFFFFFFF00FFFFFFFFFF0
3FFFFFFFFFF00FFFFFFFFFF0
3FFFFFFFFFC003FFFFFFFFF0
3FFFFFFFFFC003FFFFFFFFF0
3FFFFFFFFF0003FFFFFFFFF0
3FFFFFFFFF0003FFFFFFFFF0
3FFFFFFFFF0000FFFFFFFFFC
3FFFFFFFFF0000FFFFFFFFFC
FFFFFFFFFC0000FFFFFFFFFC
FFFFFFFFFC0000FFFFFFFFFC
FFFFFFFFFC0000FFFFFFFFFC
FFFFFFFFFC0000FFFFFFFFFC
FFFFFFFFFC0000FFFFFFFFFC
FFFFFFFFFC0000FFFFFFFFFC
FFFFFFFFFC0000FFFFFFFFFC
FFFFFFFFFC0000FFFFFFFFFC
FFFFFFFFFC0000FFFFFFFFFC
FFFFFFFFFC0000FFFFFFFFFC
FFFFFFFFFC0000FFFFFFFFFC
FFFFFFFFFC0000FFFFFFFFFC
FFFFFFFFFC0000FFFFFFFFFC
FFFFFFFFFC0000FFFFFFFFFC
FFFFFFFFFC0000FFFFFFFFFC
FFFFFFFFFC0000FFFFFFFFFC
FFFFFFFFFC00003FFFFFFFFC
FFFFFFFFFC00003FFFFFFFFC
FFFFFFFFFC00003FFFFFFFFC
FFFFFFFFFC00003FFFFFFFFC
FFFFFFFFFC00003FFFFFFFFC
FFFFFFFFFC00003FFFFFFFFC
FFFFFFFFFC00003FFFFFFFFC
FFFFFFFFFC00003FFFFFFFFC
FFFFFFFFFC00003FFFFFFFFC
FFFFFFFFFC00003FFFFFFFFC
FFFFFFFFFC0000FFFFFFFFFC
FFFFFFFFFC0000FFFFFFFFFC
FFFFFFFFFC0000FFFFFFFFFC
FFFFFFFFFC0000FFFFFFFFFC
FFFFFFFFFC0000FFFFFFFFFC
FFFFFFFFFC0000FFFFFFFFFC
3FFFFFFFFC0000FFFFFFFFFC
3FFFFFFFFC0000FFFFFFFFFC
3FFFFFFFFF0003FFFFFFFFFC
3FFFFFFFFF0003FFFFFFFFFC
3FFFFFFFFF0003FFFFFFFFF0
3FFFFFFFFF0003FFFFFFFFF0
3FFFFFFFFFF00FFFFFFFFFF0
3FFFFFFFFFF00FFFFFFFFFF0
3FFFFFFFFFFFFFFFFFFFFFF0
3FFFFFFFFFFFFFFFFFFFFFF0
3FFFFFFFFFFFFFFFFFFFFFF0
3FFFFFFFFFFFFFFFFFFFFFF0
0FFFFFFFFFFFFFFFFFFFFFF0
0FFFFFFFFFFFFFFFFFFFFFF0
0FFFFFFFFFFFFFFFFFFFFFC0
0FFFFFFFFFFFFFFFFFFFFFC0
0FFFFFFFFFFFFFFFFFFFFFC0
0FFFFFFFFFFFFFFFFFFFFFC0
03FFFFFFFFFFFFFFFFFFFFC0
03FFFFFFFFFFFFFFFFFFFFC0
03FFFFFFFFFFFFFFFFFFFF00
03FFFFFFFFFFFFFFFFFFFF00
00FFFFFFFFFFFFFFFFFFFF00
00FFFFFFFFFFFFFFFFFFFF00
00FFFFFFFFFFFFFFFFFFFC00
00FFFFFFFFFFFFFFFFFFFC00
003FFFFFFFFFFFFFFFFFFC00
003FFFFFFFFFFFFFFFFFFC00
003FFFFFFFFFFFFFFFFFF000
003FFFFFFFFFFFFFFFFFF000
000FFFFFFFFFFFFFFFFFC000
000FFFFFFFFFFFFFFFFFC000
0003FFFFFFFFFFFFFFFF0000
0003FFFFFFFFFFFFFFFF0000
0000FFFFFFFFFFFFFFFC0000
0000FFFFFFFFFFFFFFFC0000
00000FFFFFFFFFFFFFF00000
00000FFFFFFFFFFFFFF00000
000003FFFFFFFFFFFF000000
000003FFFFFFFFFFFF000000
0000000FFFFFFFFFF0000000
0000000FFFFFFFFFF0000000
000000000FFFFFF000000000
000000000FFFFFF000000000
ENDCHAR
STARTCHAR nine
ENCODING 57
SWIDTH 504 0
DWIDTH 105 0
BBX 94 182 6 -2
BITMAP
000000003FFFFFC000000000
000000003FFFFFC000000000
0000003FFFFFFFFFF0000000
0000003FFFFFFFFFF0000000
000003FFFFFFFFFFFF000000
000003FFFFFFFFFFFF000000
00003FFFFFFFFFFFFFF00000
00003FFFFFFFFFFFFFF00000
0000FFFFFFFFFFFFFFFC0000
0000FFFFFFFFFFFFFFFC0000
0003FFFFFFFFFFFFFFFF0000
0003FFFFFFFFFFFFFFFF0000
000FFFFFFFFFFFFFFFFFC000
000FFFFFFFFFFFFFFFFFC000
003FFFFFFFFFFFFFFFFFF000
003FFFFFFFFFFFFFFFFFF000
00FFFFFFFFFFFFFFFFFFFC00
00FFFFFFFFFFFFFFFFFFFC00
00FFFFFFFFFFFFFFFFFFFF00
00FFFFFFFFFFFFFFFFFFFF00
03FFFFFFFFFFFFFFFFFFFF00
03FFFFFFFFFFFFFFFFFFFF00
03FFFFFFFFFFFFFFFFFFFF00
03FFFFFFFFFFFFFFFFFFFF00
0FFFFFFFFFFFFFFFFFFFFFC0
0FFFFFFFFFFFFFFFFFFFFFC0
0FFFFFFFFFFFFFFFFFFFFFC0
0FFFFFFFFFFFFFFFFFFFFFC0
0FFFFFFFFFFFFFFFFFFFFFC0
0FFFFFFFFFFFFFFFFFFFFFC0
3FFFFFFFFFFFFFFFFFFFFFF0
3FFFFFFFFFFFFFFFFFFFFFF0
3FFFFFFFFFC00FFFFFFFFFF0
3FFFFFFFFFC00FFFFFFFFFF0
3FFFFFFFFF0003FFFFFFFFF0
3FFFFFFFFF0003FFFFFFFFF0
3FFFFFFFFF0003FFFFFFFFF0
3FFFFFFFFF0003FFFFFFFFF0
FFFFFFFFFF0000FFFFFFFFF0
FFFFFFFFFF0000FFFFFFFFF0
FFFFFFFFFC0000FFFFFFFFFC
FFFFFFFFFC0000FFFFFFFFFC
FFFFFFFFFC0000FFFFFFFFFC
FFFFFFFFFC0000FFFFFFFFFC
FFFFFFFFFC0000FFFFFFFFFC
FFFFFFFFFC0000FFFFFFFFFC
FFFFFFFFFC0000FFFFFFFFFC
FFFFFFFFFC0000FFFFFFFFFC
FFFFFFFFFC0000FFFFFFFFFC
FFFFFFFFFC0000FFFFFFFFFC
FFFFFFFFFC0000FFFFFFFFFC
FFFFFFFFFC0000FFFFFFFFFC
FFFFFFFFFC0000FFFFFFFFFC
FFFFFFFFFC0000FFFFFFFFFC
FFFFFFFFFC0000FFFFFFFFFC
FFFFFFFFFC0000FFFFFFFFFC
FFFFFFFFFC0000FFFFFFFFFC
FFFFFFFFFC0000FFFFFFFFFC
FFFFFFFFFC0000FFFFFFFFFC
FFFFFFFFFC0000FFFFFFFFFC
FFFFFFFFFC0000FFFFFFFFFC
FFFFFFFFFC0000FFFFFFFFFC
FFFFFFFFFC0000FFFFFFFFFC
FFFFFFFFFC0000FFFFFFFFFC
FFFFFFFFFC0000FFFFFFFFFC
FFFFFFFFFC0000FFFFFFFFFC
FFFFFFFFFC0000FFFFFFFFFC
FFFFFFFFFC0000FFFFFFFFFC
FFFFFFFFFC0000FFFFFFFFFC
FFFFFFFFFC0000FFFFFFFFFC
FFFFFFFFFC0000FFFFFFFFFC
FFFFFFFFFC0000FFFFFFFFFC
FFFFFFFFFF0000FFFFFFFFFC
FFFFFFFFFF0000FFFFFFFFFC
FFFFFFFFFF0003FFFFFFFFFC
FFFFFFFFFF0003FFFFFFFFFC
FFFFFFFFFF0003FFFFFFFFFC
FFFFFFFFFF0003FFFFFFFFFC
FFFFFFFFFFC00FFFFFFFFFFC
FFFFFFFFFFC00FFFFFFFFFFC
FFFFFFFFFFFFFFFFFFFFFFFC
FFFFFFFFFFFFFFFFFFFFFFFC
FFFFFFFFFFFFFFFFFFFFFFFC
FFFFFFFFFFFFFFFFFFFFFFFC
3FFFFFFFFFFFFFFFFFFFFFFC
3FFFFFFFFFFFFFFFFFFFFFFC
3FFFFFFFFFFFFFFFFFFFFFFC
3FFFFFFFFFFFFFFFFFFFFFFC
3FFFFFFFFFFFFFFFFFFFFFFC
3FFFFFFFFFFFFFFFFFFFFFFC
3FFFFFFFFFFFFFFFFFFFFFFC
3FFFFFFFFFFFFFFFFFFFFFFC
0FFFFFFFFFFFFFFFFFFFFFFC
0FFFFFFFFFFFFFFFFFFFFFFC
0FFFFFFFFFFFFFFFFFFFFFFC
0FFFFFFFFFFFFFFFFFFFFFFC
03FFFFFFFFFFFFFFFFFFFFFC
03FFFFFFFFFFFFFFFFFFFFFC
03FFFFFFFFFFFFFFFFFFFFFC
03FFFFFFFFFFFFFFFFFFFFFC
00FFFFFFFFFFFFFFFFFFFFFC
00FFFFFFFFFFFFFFFFFFFFFC
003FFFFFFFFFFFFFFFFFFFFC
003FFFFFFFFFFFFFFFFFFFFC
000FFFFFFFFFFCFFFFFFFFFC
000FFFFFFFFFFCFFFFFFFFFC
0003FFFFFFFFF0FFFFFFFFFC
0003FFFFFFFFF0FFFFFFFFFC
00003FFFFFFF00FFFFFFFFFC
00003FFFFFFF00FFFFFFFFFC
0000003FFFF000FFFFFFFFFC
0000003FFFF000FFFFFFFFFC
00000000000000FFFFFFFFFC
00000000000000FFFFFFFFFC
00000000000000FFFFFFFFFC
00000000000000FFFFFFFFFC
00000000000000FFFFFFFFFC
00000000000000FFFFFFFFFC
00000000000000FFFFFFFFFC
00000000000000FFFFFFFFFC
00000000000000FFFFFFFFFC
00000000000000FFFFFFFFFC
00000000000000FFFFFFFFFC
00000000000000FFFFFFFFFC
00000000000000FFFFFFFFFC
00000000000000FFFFFFFFFC
00000000000000FFFFFFFFFC
00000000000000FFFFFFFFFC
3FFFFFFFF00000FFFFFFFFFC
3FFFFFFFF00000FFFFFFFFFC
3FFFFFFFF00000FFFFFFFFFC
3FFFFFFFF00000FFFFFFFFFC
3FFFFFFFF00000FFFFFFFFFC
3FFFFFFFF00000FFFFFFFFFC
3FFFFFFFF00000FFFFFFFFF0
3FFFFFFFF00000FFFFFFFFF0
3FFFFFFFF00000FFFFFFFFF0
3FFFFFFFF00000FFFFFFFFF0
3FFFFFFFF00000FFFFFFFFF0
3FFFFFFFF00000FFFFFFFFF0
3FFFFFFFFC0000FFFFFFFFF0
3FFFFFFFFC0000FFFFFFFFF0
3FFFFFFFFC0000FFFFFFFFF0
3FFFFFFFFC0000FFFFFFFFF0
3FFFFFFFFC0003FFFFFFFFF0
3FFFFFFFFC0003FFFFFFFFF0
3FFFFFFFFF0003FFFFFFFFF0
3FFFFFFFFF0003FFFFFFFFF0
3FFFFFFFFFC03FFFFFFFFFC0
3FFFFFFFFFC03FFFFFFFFFC0
3FFFFFFFFFFFFFFFFFFFFFC0
3FFFFFFFFFFFFFFFFFFFFFC0
3FFFFFFFFFFFFFFFFFFFFFC0
3FFFFFFFFFFFFFFFFFFFFFC0
3FFFFFFFFFFFFFFFFFFFFFC0
3FFFFFFFFFFFFFFFFFFFFFC0
0FFFFFFFFFFFFFFFFFFFFF00
0FFFFFFFFFFFFFFFFFFFFF00
0FFFFFFFFFFFFFFFFFFFFF00
0FFFFFFFFFFFFFFFFFFFFF00
03FFFFFFFFFFFFFFFFFFFC00
03FFFFFFFFFFFFFFFFFFFC00
03FFFFFFFFFFFFFFFFFFFC00
03FFFFFFFFFFFFFFFFFFFC00
00FFFFFFFFFFFFFFFFFFF000
00FFFFFFFFFFFFFFFFFFF000
00FFFFFFFFFFFFFFFFFFF000
00FFFFFFFFFFFFFFFFFFF000
003FFFFFFFFFFFFFFFFFC000
003FFFFFFFFFFFFFFFFFC000
000FFFFFFFFFFFFFFFFF0000
000FFFFFFFFFFFFFFFFF0000
0003FFFFFFFFFFFFFFFC0000
0003FFFFFFFFFFFFFFFC0000
00003FFFFFFFFFFFFFC00000
00003FFFFFFFFFFFFFC00000
000003FFFFFFFFFFFF000000
000003FFFFFFFFFFFF000000
0000003FFFFFFFFFC0000000
0000003FFFFFFFFFC0000000
000000003FFFFFC000000000
000000003FFFFFC000000000
ENDCHAR
STARTCHAR colon
ENCODING 58
SWIDTH 242 0
DWIDTH 51 0
BBX 38 106 6 24
BITMAP
FFFFFFFFFC
FFFFFFFFFC
FFFFFFFFFC
FFFFFFFFFC
FFFFFFFFFC
FFFFFFFFFC
FFFFFFFFFC
FFFFFFFFFC
FFFFFFFFFC
FFFFFFFFFC
FFFFFFFFFC
FFFFFFFFFC
FFFFFFFFFC
FFFFFFFFFC
FFFFFFFFFC
FFFFFFFFFC
FFFFFFFFFC
FFFFFFFFFC
FFFFFFFFFC
FFFFFFFFFC
FFFFFFFFFC
FFFFFFFFFC
FFFFFFFFFC
FFFFFFFFFC
FFFFFFFFFC
FFFFFFFFFC
FFFFFFFFFC
FFFFFFFFFC
FFFFFFFFFC
FFFFFFFFFC
0000000000
0000000000
0000000000
0000000000
0000000000
0000000000
0000000000
0000000000
0000000000
0000000000
0000000000
0000000000
0000000000
0000000000
0000000000
0000000000
0000000000
0000000000
0000000000
0000000000
0000000000
0000000000
0000000000
0000000000
0000000000
0000000000
0000000000
0000000000
0000000000
0000000000
0000000000
0000000000
0000000000
0000000000
0000000000
0000000000
0000000000
0000000000
0000000000
0000000000
0000000000
0000000000
0000000000
0000000000
0000000000
0000000000
FFFFFFFFFC
FFFFFFFFFC
FFFFFFFFFC
FFFFFFFFFC
FFFFFFFFFC
FFFFFFFFFC
FFFFFFFFFC
FFFFFFFFFC
FFFFFFFFFC
FFFFFFFFFC
FFFFFFFFFC
FFFFFFFFFC
FFFFFFFFFC
FFFFFFFFFC
FFFFFFFFFC
FFFFFFFFFC
FFFFFFFFFC
FFFFFFFFFC
FFFFFFFFFC
FFFFFFFFFC
FFFFFFFFFC
FFFFFFFFFC
FFFFFFFFFC
FFFFFFFFFC
FFFFFFFFFC
FFFFFFFFFC
FFFFFFFFFC
FFFFFFFFFC
FFFFFFFFFC
FFFFFFFFFC
ENDCHAR
STARTCHAR semicolon
ENCODING 59
SWIDTH 245 0
DWIDTH 51 0
BBX 38 130 6 0
BITMAP
FFFFFFFFFC
FFFFFFFFFC
FFFFFFFFFC
FFFFFFFFFC
FFFFFFFFFC
FFFFFFFFFC
FFFFFFFFFC
FFFFFFFFFC
FFFFFFFFFC
FFFFFFFFFC
FFFFFFFFFC
FFFFFFFFFC
FFFFFFFFFC
FFFFFFFFFC
FFFFFFFFFC
FFFFFFFFFC
FFFFFFFFFC
FFFFFFFFFC
FFFFFFFFFC
FFFFFFFFFC
FFFFFFFFFC
FFFFFFFFFC
FFFFFFFFFC
FFFFFFFFFC
FFFFFFFFFC
FFFFFFFFFC
FFFFFFFFFC
FFFFFFFFFC
FFFFFFFFFC
FFFFFFFFFC
0000000000
0000000000
0000000000
0000000000
0000000000
0000000000
0000000000
0000000000
0000000000
0000000000
0000000000
0000000000
0000000000
0000000000
0000000000
0000000000
0000000000
0000000000
0000000000
0000000000
0000000000
0000000000
0000000000
0000000000
0000000000
0000000000
0000000000
0000000000
0000000000
0000000000
0000000000
0000000000
0000000000
0000000000
0000000000
0000000000
0000000000
0000000000
0000000000
0000000000
0000000000
0000000000
0000000000
0000000000
0000000000
0000000000
FFFFFFFFFC
FFFFFFFFFC
FFFFFFFFFC
FFFFFFFFFC
FFFFFFFFFC
FFFFFFFFFC
FFFFFFFFFC
FFFFFFFFFC
FFFFFFFFFC
FFFFFFFFFC
FFFFFFFFFC
FFFFFFFFFC
FFFFFFFFFC
FFFFFFFFFC
FFFFFFFFFC
FFFFFFFFFC
FFFFFFFFFC
FFFFFFFFFC
FFFFFFFFFC
FFFFFFFFFC
FFFFFFFFFC
FFFFFFFFFC
FFFFFFFFFC
FFFFFFFFFC
FFFFFFFFFC
FFFFFFFFFC
FFFFFFFFFC
FFFFFFFFFC
FFFFFFFFFC
FFFFFFFFFC
0003FFFFFC
0003FFFFFC
000FFFFFFC
000FFFFFFC
000FFFFFF0
000FFFFFF0
000FFFFFF0
000FFFFFF0
000FFFFFC0
000FFFFFC0
003FFFFFC0
003FFFFFC0
003FFFFF00
003FFFFF00
003FFFFF00
003FFFFF00
00FFFFFF00
00FFFFFF00
00FFFFFC00
00FFFFFC00
00FFFFFC00
00FFFFFC00
03FFFFF000
03FFFFF000
ENDCHAR
STARTCHAR less
ENCODING 60
SWIDTH 321 0
DWIDTH 67 0
BBX 58 112 4 20
BITMAP
00000000000000C0
00000000000000C0
0000000000000FC0
0000000000000FC0
000000000000FFC0
000000000000FFC0
000000000003FFC0
000000000003FFC0
00000000003FFFC0
00000000003FFFC0
0000000003FFFFC0
0000000003FFFFC0
000000000FFFFFC0
000000000FFFFFC0
00000000FFFFFFC0
00000000FFFFFFC0
0000000FFFFFFFC0
0000000FFFFFFFC0
0000003FFFFFFFC0
0000003FFFFFFFC0
000003FFFFFFFFC0
000003FFFFFFFFC0
00003FFFFFFFFFC0
00003FFFFFFFFFC0
0000FFFFFFFFFFC0
0000FFFFFFFFFFC0
000FFFFFFFFFFFC0
000FFFFFFFFFFFC0
00FFFFFFFFFFFFC0
00FFFFFFFFFFFFC0
03FFFFFFFFFFFFC0
03FFFFFFFFFFFFC0
3FFFFFFFFFFFFFC0
3FFFFFFFFFFFFFC0
FFFFFFFFFFFFFFC0
FFFFFFFFFFFFFFC0
FFFFFFFFFFFFFF00
FFFFFFFFFFFFFF00
FFFFFFFFFFFFF000
FFFFFFFFFFFFF000
FFFFFFFFFFFFC000
FFFFFFFFFFFFC000
FFFFFFFFFFFC0000
FFFFFFFFFFFC0000
FFFFFFFFFFC00000
FFFFFFFFFFC00000
FFFFFFFFFC000000
FFFFFFFFFC000000
FFFFFFFFC0000000
FFFFFFFFC0000000
FFFFFFFF00000000
FFFFFFFF00000000
FFFFFFF000000000
FFFFFFF000000000
FFFFFF0000000000
FFFFFF0000000000
FFFFFF0000000000
FFFFFF0000000000
FFFFFFF000000000
FFFFFFF000000000
FFFFFFFF00000000
FFFFFFFF00000000
FFFFFFFFF0000000
FFFFFFFFF0000000
FFFFFFFFFC000000
FFFFFFFFFC000000
FFFFFFFFFFC00000
FFFFFFFFFFC00000
FFFFFFFFFFFC0000
FFFFFFFFFFFC0000
FFFFFFFFFFFFC000
FFFFFFFFFFFFC000
FFFFFFFFFFFFFC00
FFFFFFFFFFFFFC00
FFFFFFFFFFFFFF00
FFFFFFFFFFFFFF00
FFFFFFFFFFFFFFC0
FFFFFFFFFFFFFFC0
0FFFFFFFFFFFFFC0
0FFFFFFFFFFFFFC0
03FFFFFFFFFFFFC0
03FFFFFFFFFFFFC0
003FFFFFFFFFFFC0
003FFFFFFFFFFFC0
0003FFFFFFFFFFC0
0003FFFFFFFFFFC0
0000FFFFFFFFFFC0
0000FFFFFFFFFFC0
00000FFFFFFFFFC0
00000FFFFFFFFFC0
000000FFFFFFFFC0
000000FFFFFFFFC0
0000003FFFFFFFC0
0000003FFFFFFFC0
00000003FFFFFFC0
00000003FFFFFFC0
000000003FFFFFC0
000000003FFFFFC0
000000000FFFFFC0
000000000FFFFFC0
0000000000FFFFC0
0000000000FFFFC0
00000000000FFFC0
00000000000FFFC0
000000000003FFC0
000000000003FFC0
0000000000003FC0
0000000000003FC0
00000000000003C0
00000000000003C0
00000000000000C0
00000000000000C0
ENDCHAR
STARTCHAR equal
ENCODING 61
SWIDTH 311 0
DWIDTH 65 0
BBX 52 62 6 52
BITMAP
FFFFFFFFFFFFF0
FFFFFFFFFFFFF0
FFFFFFFFFFFFF0
FFFFFFFFFFFFF0
FFFFFFFFFFFFF0
FFFFFFFFFFFFF0
FFFFFFFFFFFFF0
FFFFFFFFFFFFF0
FFFFFFFFFFFFF0
FFFFFFFFFFFFF0
FFFFFFFFFFFFF0
FFFFFFFFFFFFF0
FFFFFFFFFFFFF0
FFFFFFFFFFFFF0
FFFFFFFFFFFFF0
FFFFFFFFFFFFF0
FFFFFFFFFFFFF0
FFFFFFFFFFFFF0
FFFFFFFFFFFFF0
FFFFFFFFFFFFF0
FFFFFFFFFFFFF0
FFFFFFFFFFFFF0
00000000000000
00000000000000
00000000000000
00000000000000
00000000000000
00000000000000
00000000000000
00000000000000
00000000000000
00000000000000
00000000000000
00000000000000
00000000000000
00000000000000
00000000000000
00000000000000
FFFFFFFFFFFFF0
FFFFFFFFFFFFF0
FFFFFFFFFFFFF0
FFFFFFFFFFFFF0
FFFFFFFFFFFFF0
FFFFFFFFFFFFF0
FFFFFFFFFFFFF0
FFFFFFFFFFFFF0
FFFFFFFFFFFFF0
FFFFFFFFFFFFF0
FFFFFFFFFFFFF0
FFFFFFFFFFFFF0
FFFFFFFFFFFFF0
FFFFFFFFFFFFF0
FFFFFFFFFFFFF0
FFFFFFFFFFFFF0
FFFFFFFFFFFFF0
FFFFFFFFFFFFF0
FFFFFFFFFFFFF0
FFFFFFFFFFFFF0
FFFFFFFFFFFFF0
FFFFFFFFFFFFF0
FFFFFFFFFFFFF0
FFFFFFFFFFFFF0
ENDCHAR
STARTCHAR greater
ENCODING 62
SWIDTH 321 0
DWIDTH 67 0
BBX 58 112 6 20
BITMAP
C000000000000000
C000000000000000
F000000000000000
F000000000000000
FF00000000000000
FF00000000000000
FFF0000000000000
FFF0000000000000
FFFC000000000000
FFFC000000000000
FFFFC00000000000
FFFFC00000000000
FFFFFC0000000000
FFFFFC0000000000
FFFFFF0000000000
FFFFFF0000000000
FFFFFFF000000000
FFFFFFF000000000
FFFFFFFF00000000
FFFFFFFF00000000
FFFFFFFFC0000000
FFFFFFFFC0000000
FFFFFFFFFC000000
FFFFFFFFFC000000
FFFFFFFFFFC00000
FFFFFFFFFFC00000
FFFFFFFFFFF00000
FFFFFFFFFFF00000
FFFFFFFFFFFF0000
FFFFFFFFFFFF0000
FFFFFFFFFFFFF000
FFFFFFFFFFFFF000
FFFFFFFFFFFFFC00
FFFFFFFFFFFFFC00
FFFFFFFFFFFFFFC0
FFFFFFFFFFFFFFC0
FFFFFFFFFFFFFFC0
FFFFFFFFFFFFFFC0
0FFFFFFFFFFFFFC0
0FFFFFFFFFFFFFC0
00FFFFFFFFFFFFC0
00FFFFFFFFFFFFC0
000FFFFFFFFFFFC0
000FFFFFFFFFFFC0
0003FFFFFFFFFFC0
0003FFFFFFFFFFC0
00003FFFFFFFFFC0
00003FFFFFFFFFC0
000003FFFFFFFFC0
000003FFFFFFFFC0
0000003FFFFFFFC0
0000003FFFFFFFC0
00000003FFFFFFC0
00000003FFFFFFC0
00000000FFFFFFC0
00000000FFFFFFC0
00000000FFFFFFC0
00000000FFFFFFC0
0000000FFFFFFFC0
0000000FFFFFFFC0
000000FFFFFFFFC0
000000FFFFFFFFC0
000003FFFFFFFFC0
000003FFFFFFFFC0
00003FFFFFFFFFC0
00003FFFFFFFFFC0
0003FFFFFFFFFFC0
0003FFFFFFFFFFC0
003FFFFFFFFFFFC0
003FFFFFFFFFFFC0
00FFFFFFFFFFFFC0
00FFFFFFFFFFFFC0
0FFFFFFFFFFFFFC0
0FFFFFFFFFFFFFC0
FFFFFFFFFFFFFFC0
FFFFFFFFFFFFFFC0
FFFFFFFFFFFFFF00
FFFFFFFFFFFFFF00
FFFFFFFFFFFFFC00
FFFFFFFFFFFFFC00
FFFFFFFFFFFFC000
FFFFFFFFFFFFC000
FFFFFFFFFFFC0000
FFFFFFFFFFFC0000
FFFFFFFFFFF00000
FFFFFFFFFFF00000
FFFFFFFFFF000000
FFFFFFFFFF000000
FFFFFFFFF0000000
FFFFFFFFF0000000
FFFFFFFFC0000000
FFFFFFFFC0000000
FFFFFFFC00000000
FFFFFFFC00000000
FFFFFFC000000000
FFFFFFC000000000
FFFFFF0000000000
FFFFFF0000000000
FFFFF00000000000
FFFFF00000000000
FFFFC00000000000
FFFFC00000000000
FFFC000000000000
FFFC000000000000
FFC0000000000000
FFC0000000000000
FF00000000000000
FF00000000000000
F000000000000000
F000000000000000
C000000000000000
C000000000000000
ENDCHAR
STARTCHAR question
ENCODING 63
SWIDTH 492 0
DWIDTH 103 0
BBX 96 180 4 0
BITMAP
000000000FFFFFF000000000
000000000FFFFFF000000000
0000000FFFFFFFFFF0000000
0000000FFFFFFFFFF0000000
000003FFFFFFFFFFFFC00000
000003FFFFFFFFFFFFC00000
00003FFFFFFFFFFFFFF00000
00003FFFFFFFFFFFFFF00000
0000FFFFFFFFFFFFFFFF0000
0000FFFFFFFFFFFFFFFF0000
000FFFFFFFFFFFFFFFFFC000
000FFFFFFFFFFFFFFFFFC000
003FFFFFFFFFFFFFFFFFF000
003FFFFFFFFFFFFFFFFFF000
00FFFFFFFFFFFFFFFFFFFC00
00FFFFFFFFFFFFFFFFFFFC00
00FFFFFFFFFFFFFFFFFFFC00
00FFFFFFFFFFFFFFFFFFFC00
03FFFFFFFFFFFFFFFFFFFF00
03FFFFFFFFFFFFFFFFFFFF00
0FFFFFFFFFFFFFFFFFFFFF00
0FFFFFFFFFFFFFFFFFFFFF00
0FFFFFFFFFFFFFFFFFFFFFC0
0FFFFFFFFFFFFFFFFFFFFFC0
0FFFFFFFFFFFFFFFFFFFFFC0
0FFFFFFFFFFFFFFFFFFFFFC0
3FFFFFFFFFFFFFFFFFFFFFF0
3FFFFFFFFFFFFFFFFFFFFFF0
3FFFFFFFFFFFFFFFFFFFFFF0
3FFFFFFFFFFFFFFFFFFFFFF0
3FFFFFFFFFFFFFFFFFFFFFF0
3FFFFFFFFFFFFFFFFFFFFFF0
3FFFFFFFFFF00FFFFFFFFFFC
3FFFFFFFFFF00FFFFFFFFFFC
FFFFFFFFFF0003FFFFFFFFFC
FFFFFFFFFF0003FFFFFFFFFC
FFFFFFFFFF0000FFFFFFFFFC
FFFFFFFFFF0000FFFFFFFFFC
FFFFFFFFFF0000FFFFFFFFFC
FFFFFFFFFF0000FFFFFFFFFC
FFFFFFFFFC0000FFFFFFFFFC
FFFFFFFFFC0000FFFFFFFFFC
FFFFFFFFFC0000FFFFFFFFFC
FFFFFFFFFC0000FFFFFFFFFC
FFFFFFFFFC0000FFFFFFFFFC
FFFFFFFFFC0000FFFFFFFFFC
FFFFFFFFFC0000FFFFFFFFFF
FFFFFFFFFC0000FFFFFFFFFF
FFFFFFFFFC0000FFFFFFFFFF
FFFFFFFFFC0000FFFFFFFFFF
FFFFFFFFFC0000FFFFFFFFFF
FFFFFFFFFC0000FFFFFFFFFF
FFFFFFFFFC0000FFFFFFFFFF
FFFFFFFFFC0000FFFFFFFFFF
FFFFFFFFFC0000FFFFFFFFFF
FFFFFFFFFC0000FFFFFFFFFF
FFFFFFFFFC0000FFFFFFFFFF
FFFFFFFFFC0000FFFFFFFFFF
FFFFFFFFFC0000FFFFFFFFFF
FFFFFFFFFC0000FFFFFFFFFF
FFFFFFFFFC0000FFFFFFFFFF
FFFFFFFFFC0000FFFFFFFFFF
FFFFFFFFFC0000FFFFFFFFFF
FFFFFFFFFC0000FFFFFFFFFF
FFFFFFFFFC0000FFFFFFFFFF
FFFFFFFFFC0000FFFFFFFFFF
00000000000000FFFFFFFFFC
00000000000000FFFFFFFFFC
00000000000003FFFFFFFFFC
00000000000003FFFFFFFFFC
00000000000003FFFFFFFFFC
00000000000003FFFFFFFFFC
00000000000003FFFFFFFFFC
00000000000003FFFFFFFFFC
00000000000003FFFFFFFFFC
00000000000003FFFFFFFFFC
0000000000000FFFFFFFFFFC
0000000000000FFFFFFFFFFC
0000000000000FFFFFFFFFF0
0000000000000FFFFFFFFFF0
0000000000003FFFFFFFFFF0
0000000000003FFFFFFFFFF0
000000000000FFFFFFFFFFF0
000000000000FFFFFFFFFFF0
000000000003FFFFFFFFFFC0
000000000003FFFFFFFFFFC0
00000000003FFFFFFFFFFFC0
00000000003FFFFFFFFFFFC0
0000000003FFFFFFFFFFFF00
0000000003FFFFFFFFFFFF00
0000000FFFFFFFFFFFFFFF00
0000000FFFFFFFFFFFFFFF00
00FFFFFFFFFFFFFFFFFFFC00
00FFFFFFFFFFFFFFFFFFFC00
00FFFFFFFFFFFFFFFFFFFC00
00FFFFFFFFFFFFFFFFFFFC00
00FFFFFFFFFFFFFFFFFFF000
00FFFFFFFFFFFFFFFFFFF000
00FFFFFFFFFFFFFFFFFFC000
00FFFFFFFFFFFFFFFFFFC000
00FFFFFFFFFFFFFFFFFFC000
00FFFFFFFFFFFFFFFFFFC000
00FFFFFFFFFFFFFFFFFF0000
00FFFFFFFFFFFFFFFFFF0000
00FFFFFFFFFFFFFFFFFC0000
00FFFFFFFFFFFFFFFFFC0000
00FFFFFFFFFFFFFFFFF00000
00FFFFFFFFFFFFFFFFF00000
00FFFFFFFFFFFFFFFF000000
00FFFFFFFFFFFFFFFF000000
00FFFFFFFFFFFFFFF0000000
00FFFFFFFFFFFFFFF0000000
00FFFFFFFFFFFFFF00000000
00FFFFFFFFFFFFFF00000000
00FFFFFFFFFFFFC000000000
00FFFFFFFFFFFFC000000000
00FFFFFFFFC0000000000000
00FFFFFFFFC0000000000000
00FFFFFFFFC0000000000000
00FFFFFFFFC0000000000000
00FFFFFFFFC0000000000000
00FFFFFFFFC0000000000000
00FFFFFFFFC0000000000000
00FFFFFFFFC0000000000000
00FFFFFFFFC0000000000000
00FFFFFFFFC0000000000000
00FFFFFFFFC0000000000000
00FFFFFFFFC0000000000000
00FFFFFFFFC0000000000000
00FFFFFFFFC0000000000000
00FFFFFFFFC0000000000000
00FFFFFFFFC0000000000000
00FFFFFFFFC0000000000000
00FFFFFFFFC0000000000000
000000000000000000000000
000000000000000000000000
000000000000000000000000
000000000000000000000000
000000000000000000000000
000000000000000000000000
000000000000000000000000
000000000000000000000000
000000000000000000000000
000000000000000000000000
000000000000000000000000
000000000000000000000000
000000000000000000000000
000000000000000000000000
000000000000000000000000
000000000000000000000000
00FFFFFFFFF0000000000000
00FFFFFFFFF0000000000000
00FFFFFFFFF0000000000000
00FFFFFFFFF0000000000000
00FFFFFFFFF0000000000000
00FFFFFFFFF0000000000000
00FFFFFFFFF0000000000000
00FFFFFFFFF0000000000000
00FFFFFFFFF0000000000000
00FFFFFFFFF0000000000000
00FFFFFFFFF0000000000000
00FFFFFFFFF0000000000000
00FFFFFFFFF0000000000000
00FFFFFFFFF0000000000000
00FFFFFFFFF0000000000000
00FFFFFFFFF0000000000000
00FFFFFFFFF0000000000000
00FFFFFFFFF0000000000000
00FFFFFFFFF0000000000000
00FFFFFFFFF0000000000000
00FFFFFFFFF0000000000000
00FFFFFFFFF0000000000000
00FFFFFFFFF0000000000000
00FFFFFFFFF0000000000000
00FFFFFFFFF0000000000000
00FFFFFFFFF0000000000000
00FFFFFFFFF0000000000000
00FFFFFFFFF0000000000000
00FFFFFFFFF0000000000000
00FFFFFFFFF0000000000000
ENDCHAR
STARTCHAR at
ENCODING 64
SWIDTH 864 0
DWIDTH 180 0
BBX 168 196 6 -16
BITMAP
0000000000000000003FFFFFFF0000000000000000
0000000000000000003FFFFFFF0000000000000000
0000000000000003FFFFFFFFFFFFC0000000000000
0000000000000003FFFFFFFFFFFFC0000000000000
00000000000000FFFFFFFFFFFFFFFF000000000000
00000000000000FFFFFFFFFFFFFFFF000000000000
0000000000003FFFFFFFFFFFFFFFFFF00000000000
0000000000003FFFFFFFFFFFFFFFFFF00000000000
000000000003FFFFFFFFFFFFFFFFFFFF0000000000
000000000003FFFFFFFFFFFFFFFFFFFF0000000000
00000000003FFFFFFFFFFFFFFFFFFFFFF000000000
00000000003FFFFFFFFFFFFFFFFFFFFFF000000000
0000000000FFFFFFFFFFFFFFFFFFFFFFFF00000000
0000000000FFFFFFFFFFFFFFFFFFFFFFFF00000000
000000000FFFFFFFFFFFFFFFFFFFFFFFFFC0000000
000000000FFFFFFFFFFFFFFFFFFFFFFFFFC0000000
000000003FFFFFFFFFFFFFFFFFFFFFFFFFF0000000
000000003FFFFFFFFFFFFFFFFFFFFFFFFFF0000000
00000000FFFFFFFFFFFFFFFFFFFFFFFFFFFC000000
00000000FFFFFFFFFFFFFFFFFFFFFFFFFFFC000000
00000003FFFFFFFFFFFFFFFFFFFFFFFFFFFF000000
00000003FFFFFFFFFFFFFFFFFFFFFFFFFFFF000000
0000000FFFFFFFFFFFFFFFFFFFFFFFFFFFFFC00000
0000000FFFFFFFFFFFFFFFFFFFFFFFFFFFFFC00000
0000003FFFFFFFFFFFFC000000FFFFFFFFFFF00000
0000003FFFFFFFFFFFFC000000FFFFFFFFFFF00000
000000FFFFFFFFFFFC0000000000FFFFFFFFFC0000
000000FFFFFFFFFFFC0000000000FFFFFFFFFC0000
000003FFFFFFFFFF0000000000000FFFFFFFFF0000
000003FFFFFFFFFF0000000000000FFFFFFFFF0000
00000FFFFFFFFFF000000000000000FFFFFFFF0000
00000FFFFFFFFFF000000000000000FFFFFFFF0000
00003FFFFFFFFF00000000000000003FFFFFFFC000
00003FFFFFFFFF00000000000000003FFFFFFFC000
00003FFFFFFFFC000000000000000003FFFFFFF000
00003FFFFFFFFC000000000000000003FFFFFFF000
0000FFFFFFFFF0000000000000000000FFFFFFF000
0000FFFFFFFFF0000000000000000000FFFFFFF000
0003FFFFFFFFC00000000000000000003FFFFFFC00
0003FFFFFFFFC00000000000000000003FFFFFFC00
0003FFFFFFFF000000000000000000003FFFFFFC00
0003FFFFFFFF000000000000000000003FFFFFFC00
000FFFFFFFFC000000000000000000000FFFFFFF00
000FFFFFFFFC000000000000000000000FFFFFFF00
000FFFFFFFF00000000000000000000003FFFFFF00
000FFFFFFFF00000000000000000000003FFFFFF00
003FFFFFFFC00000000000000000000003FFFFFF00
003FFFFFFFC00000000000000000000003FFFFFF00
003FFFFFFFC000000FFF00000FFFFFC000FFFFFFC0
003FFFFFFFC000000FFF00000FFFFFC000FFFFFFC0
003FFFFFFF000000FFFFFC003FFFFFC000FFFFFFC0
003FFFFFFF000000FFFFFC003FFFFFC000FFFFFFC0
00FFFFFFFF00000FFFFFFF003FFFFFC0003FFFFFC0
00FFFFFFFF00000FFFFFFF003FFFFFC0003FFFFFC0
00FFFFFFFC00003FFFFFFFC03FFFFFC0003FFFFFF0
00FFFFFFFC00003FFFFFFFC03FFFFFC0003FFFFFF0
03FFFFFFFC0000FFFFFFFFF03FFFFFC0003FFFFFF0
03FFFFFFFC0000FFFFFFFFF03FFFFFC0003FFFFFF0
03FFFFFFF00003FFFFFFFFFCFFFFFFC0000FFFFFF0
03FFFFFFF00003FFFFFFFFFCFFFFFFC0000FFFFFF0
03FFFFFFF00003FFFFFFFFFCFFFFFFC0000FFFFFF0
03FFFFFFF00003FFFFFFFFFCFFFFFFC0000FFFFFF0
0FFFFFFFF0000FFFFFFFFFFFFFFFFFC0000FFFFFFC
0FFFFFFFF0000FFFFFFFFFFFFFFFFFC0000FFFFFFC
0FFFFFFFC0000FFFFFFFFFFFFFFFFFC0000FFFFFFC
0FFFFFFFC0000FFFFFFFFFFFFFFFFFC0000FFFFFFC
0FFFFFFFC0003FFFFFFFFFFFFFFFFFC0000FFFFFFC
0FFFFFFFC0003FFFFFFFFFFFFFFFFFC0000FFFFFFC
0FFFFFFFC0003FFFFFFFFFFFFFFFFFC00003FFFFFC
0FFFFFFFC0003FFFFFFFFFFFFFFFFFC00003FFFFFC
0FFFFFFF00003FFFFFFFFFFFFFFFFFC00003FFFFFC
0FFFFFFF00003FFFFFFFFFFFFFFFFFC00003FFFFFC
3FFFFFFF0000FFFFFFFFF003FFFFFFC00003FFFFFC
3FFFFFFF0000FFFFFFFFF003FFFFFFC00003FFFFFC
3FFFFFFF0000FFFFFFFFC003FFFFFFC00003FFFFFF
3FFFFFFF0000FFFFFFFFC003FFFFFFC00003FFFFFF
3FFFFFFF0000FFFFFFFF0003FFFFFFC00003FFFFFF
3FFFFFFF0000FFFFFFFF0003FFFFFFC00003FFFFFF
3FFFFFFF0000FFFFFFFF0003FFFFFFC00003FFFFFF
3FFFFFFF0000FFFFFFFF0003FFFFFFC00003FFFFFF
3FFFFFFC0000FFFFFFFF0003FFFFFFC00003FFFFFF
3FFFFFFC0000FFFFFFFF0003FFFFFFC00003FFFFFF
3FFFFFFC0003FFFFFFFC0003FFFFFFC00003FFFFFF
3FFFFFFC0003FFFFFFFC0003FFFFFFC00003FFFFFF
3FFFFFFC0003FFFFFFFC0003FFFFFFC00003FFFFFF
3FFFFFFC0003FFFFFFFC0003FFFFFFC00003FFFFFF
FFFFFFFC0003FFFFFFFC0003FFFFFFC00003FFFFFF
FFFFFFFC0003FFFFFFFC0003FFFFFFC00003FFFFFF
FFFFFFFC0003FFFFFFFC0003FFFFFFC00003FFFFFF
FFFFFFFC0003FFFFFFFC0003FFFFFFC00003FFFFFF
FFFFFFFC0003FFFFFFFC0003FFFFFFC00003FFFFFF
FFFFFFFC0003FFFFFFFC0003FFFFFFC00003FFFFFF
FFFFFFFC0003FFFFFFFC0003FFFFFFC00003FFFFFF
FFFFFFFC0003FFFFFFFC0003FFFFFFC00003FFFFFF
FFFFFFFC0003FFFFFFFC0003FFFFFFC00003FFFFFF
FFFFFFFC0003FFFFFFFC0003FFFFFFC00003FFFFFF
FFFFFFFC0003FFFFFFFC0003FFFFFFC00003FFFFFF
FFFFFFFC0003FFFFFFFC0003FFFFFFC00003FFFFFF
FFFFFFFC0003FFFFFFFC0003FFFFFFC00003FFFFFF
FFFFFFFC0003FFFFFFFC0003FFFFFFC00003FFFFFF
FFFFFFFC0003FFFFFFFC0003FFFFFFC00003FFFFFF
FFFFFFFC0003FFFFFFFC0003FFFFFFC00003FFFFFF
FFFFFFFC0003FFFFFFFC0003FFFFFFC00003FFFFFF
FFFFFFFC0003FFFFFFFC0003FFFFFFC00003FFFFFF
FFFFFFFC0003FFFFFFFC0003FFFFFFC00003FFFFFF
FFFFFFFC0003FFFFFFFC0003FFFFFFC00003FFFFFF
FFFFFFFC0003FFFFFFFC0003FFFFFFC00003FFFFFF
FFFFFFFC0003FFFFFFFC0003FFFFFFC00003FFFFFF
FFFFFFFC0003FFFFFFFC0003FFFFFFC00003FFFFFC
FFFFFFFC0003FFFFFFFC0003FFFFFFC00003FFFFFC
FFFFFFFC0003FFFFFFFC0003FFFFFFC00003FFFFFC
FFFFFFFC0003FFFFFFFC0003FFFFFFC00003FFFFFC
FFFFFFFC0003FFFFFFFC0003FFFFFFC00003FFFFFC
FFFFFFFC0003FFFFFFFC0003FFFFFFC00003FFFFFC
FFFFFFFC0003FFFFFFFC0003FFFFFFC00003FFFFFC
FFFFFFFC0003FFFFFFFC0003FFFFFFC00003FFFFFC
3FFFFFFC0003FFFFFFFC0003FFFFFFC0000FFFFFFC
3FFFFFFC0003FFFFFFFC0003FFFFFFC0000FFFFFFC
3FFFFFFC0000FFFFFFFF000FFFFFFFF0000FFFFFFC
3FFFFFFC0000FFFFFFFF000FFFFFFFF0000FFFFFFC
3FFFFFFF0000FFFFFFFF000FFFFFFFF0000FFFFFF0
3FFFFFFF0000FFFFFFFF000FFFFFFFF0000FFFFFF0
3FFFFFFF0000FFFFFFFF000FFFFFFFF0003FFFFFF0
3FFFFFFF0000FFFFFFFF000FFFFFFFF0003FFFFFF0
3FFFFFFF0000FFFFFFFFC03FFFFFFFFC003FFFFFF0
3FFFFFFF0000FFFFFFFFC03FFFFFFFFC003FFFFFF0
3FFFFFFF00003FFFFFFFFFFFFFFFFFFF00FFFFFFC0
3FFFFFFF00003FFFFFFFFFFFFFFFFFFF00FFFFFFC0
3FFFFFFF00003FFFFFFFFFFFFFFFFFFFFFFFFFFFC0
3FFFFFFF00003FFFFFFFFFFFFFFFFFFFFFFFFFFFC0
0FFFFFFFC0003FFFFFFFFFFFFFFFFFFFFFFFFFFFC0
0FFFFFFFC0003FFFFFFFFFFFFFFFFFFFFFFFFFFFC0
0FFFFFFFC0000FFFFFFFFFFF3FFFFFFFFFFFFFFF00
0FFFFFFFC0000FFFFFFFFFFF3FFFFFFFFFFFFFFF00
0FFFFFFFC0000FFFFFFFFFFF3FFFFFFFFFFFFFFF00
0FFFFFFFC0000FFFFFFFFFFF3FFFFFFFFFFFFFFF00
0FFFFFFFF00003FFFFFFFFFC0FFFFFFFFFFFFFFC00
0FFFFFFFF00003FFFFFFFFFC0FFFFFFFFFFFFFFC00
03FFFFFFF00003FFFFFFFFFC0FFFFFFFFFFFFFF000
03FFFFFFF00003FFFFFFFFFC0FFFFFFFFFFFFFF000
03FFFFFFF00000FFFFFFFFF003FFFFFFFFFFFFF000
03FFFFFFF00000FFFFFFFFF003FFFFFFFFFFFFF000
03FFFFFFFC00003FFFFFFFF000FFFFFFFFFFFFC000
03FFFFFFFC00003FFFFFFFF000FFFFFFFFFFFFC000
00FFFFFFFC00000FFFFFFFC0003FFFFFFFFFFF0000
00FFFFFFFC00000FFFFFFFC0003FFFFFFFFFFF0000
00FFFFFFFF000003FFFFFF00000FFFFFFFFFF00000
00FFFFFFFF000003FFFFFF00000FFFFFFFFFF00000
00FFFFFFFFC00000FFFFFC000000FFFFFFFF000000
00FFFFFFFFC00000FFFFFC000000FFFFFFFF000000
003FFFFFFFC0000003FFC000000003FFFFC0000000
003FFFFFFFC0000003FFC000000003FFFFC0000000
003FFFFFFFF0000000000000000000000000000000
003FFFFFFFF0000000000000000000000000000000
000FFFFFFFFC000000000000000000000000000000
000FFFFFFFFC000000000000000000000000000000
000FFFFFFFFF000000000000000000000000000000
000FFFFFFFFF000000000000000000000000000000
0003FFFFFFFFC00000000000000000000000000000
0003FFFFFFFFC00000000000000000000000000000
0000FFFFFFFFF00000000000000000000000000000
0000FFFFFFFFF00000000000000000000000000000
0000FFFFFFFFFF0000000000000000000000000000
0000FFFFFFFFFF0000000000000000000000000000
00003FFFFFFFFFC000000000000000000000000000
00003FFFFFFFFFC000000000000000000000000000
00000FFFFFFFFFFC00000000000000000000000000
00000FFFFFFFFFFC00000000000000000000000000
000003FFFFFFFFFFF0000000000000000000000000
000003FFFFFFFFFFF0000000000000000000000000
000003FFFFFFFFFFFFF00000003FF0000000000000
000003FFFFFFFFFFFFF00000003FF0000000000000
000000FFFFFFFFFFFFFFFFFFFFFFF0000000000000
000000FFFFFFFFFFFFFFFFFFFFFFF0000000000000
0000003FFFFFFFFFFFFFFFFFFFFFF0000000000000
0000003FFFFFFFFFFFFFFFFFFFFFF0000000000000
0000000FFFFFFFFFFFFFFFFFFFFFF0000000000000
0000000FFFFFFFFFFFFFFFFFFFFFF0000000000000
00000000FFFFFFFFFFFFFFFFFFFFFC000000000000
00000000FFFFFFFFFFFFFFFFFFFFFC000000000000
000000003FFFFFFFFFFFFFFFFFFFFC000000000000
000000003FFFFFFFFFFFFFFFFFFFFC000000000000
000000000FFFFFFFFFFFFFFFFFFFFC000000000000
000000000FFFFFFFFFFFFFFFFFFFFC000000000000
0000000000FFFFFFFFFFFFFFFFFFFC000000000000
0000000000FFFFFFFFFFFFFFFFFFFC000000000000
00000000000FFFFFFFFFFFFFFFFFFC000000000000
00000000000FFFFFFFFFFFFFFFFFFC000000000000
000000000000FFFFFFFFFFFFFFFFFC000000000000
000000000000FFFFFFFFFFFFFFFFFC000000000000
00000000000003FFFFFFFFFFFFFFFC000000000000
00000000000003FFFFFFFFFFFFFFFC000000000000
0000000000000003FFFFFFFFFFFFFF000000000000
0000000000000003FFFFFFFFFFFFFF000000000000
000000000000000000FFFFFFFF0000000000000000
000000000000000000FFFFFFFF0000000000000000
ENDCHAR
STARTCHAR A
ENCODING 65
SWIDTH 485 0
DWIDTH 101 0
BBX 94 178 4 0
BITMAP
0000FFFFFFFFFFFFFFFC0000
0000FFFFFFFFFFFFFFFC0000
0000FFFFFFFFFFFFFFFC0000
0000FFFFFFFFFFFFFFFC0000
0000FFFFFFFFFFFFFFFC0000
0000FFFFFFFFFFFFFFFC0000
0000FFFFFFFFFFFFFFFC0000
0000FFFFFFFFFFFFFFFC0000
0000FFFFFFFFFFFFFFFC0000
0000FFFFFFFFFFFFFFFC0000
0000FFFFFFFFFFFFFFFC0000
0000FFFFFFFFFFFFFFFC0000
0000FFFFFFFFFFFFFFFC0000
0000FFFFFFFFFFFFFFFC0000
0003FFFFFFFFFFFFFFFC0000
0003FFFFFFFFFFFFFFFC0000
0003FFFFFFFFFFFFFFFC0000
0003FFFFFFFFFFFFFFFC0000
0003FFFFFFFFFFFFFFFC0000
0003FFFFFFFFFFFFFFFC0000
0003FFFFFFFFFFFFFFFC0000
0003FFFFFFFFFFFFFFFC0000
0003FFFFFFFFFFFFFFFF0000
0003FFFFFFFFFFFFFFFF0000
0003FFFFFFFFFFFFFFFF0000
0003FFFFFFFFFFFFFFFF0000
0003FFFFFFFFFFFFFFFF0000
0003FFFFFFFFFFFFFFFF0000
0003FFFFFFFFFFFFFFFF0000
0003FFFFFFFFFFFFFFFF0000
0003FFFFFFFCFFFFFFFF0000
0003FFFFFFFCFFFFFFFF0000
0003FFFFFFFCFFFFFFFF0000
0003FFFFFFFCFFFFFFFF0000
000FFFFFFFF0FFFFFFFF0000
000FFFFFFFF0FFFFFFFF0000
000FFFFFFFF0FFFFFFFF0000
000FFFFFFFF0FFFFFFFF0000
000FFFFFFFF0FFFFFFFF0000
000FFFFFFFF0FFFFFFFF0000
000FFFFFFFF0FFFFFFFF0000
000FFFFFFFF0FFFFFFFF0000
000FFFFFFFF0FFFFFFFFC000
000FFFFFFFF0FFFFFFFFC000
000FFFFFFFF0FFFFFFFFC000
000FFFFFFFF0FFFFFFFFC000
000FFFFFFFF0FFFFFFFFC000
000FFFFFFFF0FFFFFFFFC000
000FFFFFFFF0FFFFFFFFC000
000FFFFFFFF0FFFFFFFFC000
000FFFFFFFF0FFFFFFFFC000
000FFFFFFFF0FFFFFFFFC000
000FFFFFFFF0FFFFFFFFC000
000FFFFFFFF0FFFFFFFFC000
000FFFFFFFF03FFFFFFFC000
000FFFFFFFF03FFFFFFFC000
003FFFFFFFF03FFFFFFFC000
003FFFFFFFF03FFFFFFFC000
003FFFFFFFF03FFFFFFFC000
003FFFFFFFF03FFFFFFFC000
003FFFFFFFF03FFFFFFFC000
003FFFFFFFF03FFFFFFFC000
003FFFFFFFC03FFFFFFFC000
003FFFFFFFC03FFFFFFFC000
003FFFFFFFC03FFFFFFFF000
003FFFFFFFC03FFFFFFFF000
003FFFFFFFC03FFFFFFFF000
003FFFFFFFC03FFFFFFFF000
003FFFFFFFC03FFFFFFFF000
003FFFFFFFC03FFFFFFFF000
003FFFFFFFC03FFFFFFFF000
003FFFFFFFC03FFFFFFFF000
003FFFFFFFC03FFFFFFFF000
003FFFFFFFC03FFFFFFFF000
003FFFFFFFC03FFFFFFFF000
003FFFFFFFC03FFFFFFFF000
00FFFFFFFFC00FFFFFFFF000
00FFFFFFFFC00FFFFFFFF000
00FFFFFFFFC00FFFFFFFF000
00FFFFFFFFC00FFFFFFFF000
00FFFFFFFFC00FFFFFFFF000
00FFFFFFFFC00FFFFFFFF000
00FFFFFFFFC00FFFFFFFF000
00FFFFFFFFC00FFFFFFFF000
00FFFFFFFFC00FFFFFFFFC00
00FFFFFFFFC00FFFFFFFFC00
00FFFFFFFFC00FFFFFFFFC00
00FFFFFFFFC00FFFFFFFFC00
00FFFFFFFF000FFFFFFFFC00
00FFFFFFFF000FFFFFFFFC00
00FFFFFFFF000FFFFFFFFC00
00FFFFFFFF000FFFFFFFFC00
00FFFFFFFF000FFFFFFFFC00
00FFFFFFFF000FFFFFFFFC00
00FFFFFFFF000FFFFFFFFC00
00FFFFFFFF000FFFFFFFFC00
03FFFFFFFF000FFFFFFFFC00
03FFFFFFFF000FFFFFFFFC00
03FFFFFFFF0003FFFFFFFC00
03FFFFFFFF0003FFFFFFFC00
03FFFFFFFF0003FFFFFFFC00
03FFFFFFFF0003FFFFFFFC00
03FFFFFFFF0003FFFFFFFC00
03FFFFFFFF0003FFFFFFFC00
03FFFFFFFF0003FFFFFFFC00
03FFFFFFFF0003FFFFFFFC00
03FFFFFFFF0003FFFFFFFF00
03FFFFFFFF0003FFFFFFFF00
03FFFFFFFF0003FFFFFFFF00
03FFFFFFFF0003FFFFFFFF00
03FFFFFFFF0003FFFFFFFF00
03FFFFFFFF0003FFFFFFFF00
03FFFFFFFF0003FFFFFFFF00
03FFFFFFFF0003FFFFFFFF00
03FFFFFFFF0003FFFFFFFF00
03FFFFFFFF0003FFFFFFFF00
03FFFFFFFC0003FFFFFFFF00
03FFFFFFFC0003FFFFFFFF00
0FFFFFFFFC0003FFFFFFFF00
0FFFFFFFFC0003FFFFFFFF00
0FFFFFFFFFFFFFFFFFFFFF00
0FFFFFFFFFFFFFFFFFFFFF00
0FFFFFFFFFFFFFFFFFFFFF00
0FFFFFFFFFFFFFFFFFFFFF00
0FFFFFFFFFFFFFFFFFFFFF00
0FFFFFFFFFFFFFFFFFFFFF00
0FFFFFFFFFFFFFFFFFFFFFC0
0FFFFFFFFFFFFFFFFFFFFFC0
0FFFFFFFFFFFFFFFFFFFFFC0
0FFFFFFFFFFFFFFFFFFFFFC0
0FFFFFFFFFFFFFFFFFFFFFC0
0FFFFFFFFFFFFFFFFFFFFFC0
0FFFFFFFFFFFFFFFFFFFFFC0
0FFFFFFFFFFFFFFFFFFFFFC0
0FFFFFFFFFFFFFFFFFFFFFC0
0FFFFFFFFFFFFFFFFFFFFFC0
0FFFFFFFFFFFFFFFFFFFFFC0
0FFFFFFFFFFFFFFFFFFFFFC0
3FFFFFFFFFFFFFFFFFFFFFC0
3FFFFFFFFFFFFFFFFFFFFFC0
3FFFFFFFFFFFFFFFFFFFFFC0
3FFFFFFFFFFFFFFFFFFFFFC0
3FFFFFFFFFFFFFFFFFFFFFC0
3FFFFFFFFFFFFFFFFFFFFFC0
3FFFFFFFFFFFFFFFFFFFFFC0
3FFFFFFFFFFFFFFFFFFFFFC0
3FFFFFFFFFFFFFFFFFFFFFC0
3FFFFFFFFFFFFFFFFFFFFFC0
3FFFFFFFF000003FFFFFFFF0
3FFFFFFFF000003FFFFFFFF0
3FFFFFFFF000003FFFFFFFF0
3FFFFFFFF000003FFFFFFFF0
3FFFFFFFF000003FFFFFFFF0
3FFFFFFFF000003FFFFFFFF0
3FFFFFFFF000003FFFFFFFF0
3FFFFFFFF000003FFFFFFFF0
3FFFFFFFF000003FFFFFFFF0
3FFFFFFFF000003FFFFFFFF0
FFFFFFFFF000003FFFFFFFF0
FFFFFFFFF000003FFFFFFFF0
FFFFFFFFF000003FFFFFFFF0
FFFFFFFFF000003FFFFFFFF0
FFFFFFFFC000003FFFFFFFF0
FFFFFFFFC000003FFFFFFFF0
FFFFFFFFC000003FFFFFFFF0
FFFFFFFFC000003FFFFFFFF0
FFFFFFFFC000000FFFFFFFF0
FFFFFFFFC000000FFFFFFFF0
FFFFFFFFC000000FFFFFFFFC
FFFFFFFFC000000FFFFFFFFC
FFFFFFFFC000000FFFFFFFFC
FFFFFFFFC000000FFFFFFFFC
FFFFFFFFC000000FFFFFFFFC
FFFFFFFFC000000FFFFFFFFC
FFFFFFFFC000000FFFFFFFFC
FFFFFFFFC000000FFFFFFFFC
FFFFFFFFC000000FFFFFFFFC
FFFFFFFFC000000FFFFFFFFC
ENDCHAR
STARTCHAR B
ENCODING 66
SWIDTH 479 0
DWIDTH 100 0
BBX 88 178 8 0
BITMAP
FFFFFFFFFFFFFFF0000000
FFFFFFFFFFFFFFF0000000
FFFFFFFFFFFFFFFFC00000
FFFFFFFFFFFFFFFFC00000
FFFFFFFFFFFFFFFFFF0000
FFFFFFFFFFFFFFFFFF0000
FFFFFFFFFFFFFFFFFFC000
FFFFFFFFFFFFFFFFFFC000
FFFFFFFFFFFFFFFFFFF000
FFFFFFFFFFFFFFFFFFF000
FFFFFFFFFFFFFFFFFFFC00
FFFFFFFFFFFFFFFFFFFC00
FFFFFFFFFFFFFFFFFFFF00
FFFFFFFFFFFFFFFFFFFF00
FFFFFFFFFFFFFFFFFFFF00
FFFFFFFFFFFFFFFFFFFF00
FFFFFFFFFFFFFFFFFFFFC0
FFFFFFFFFFFFFFFFFFFFC0
FFFFFFFFFFFFFFFFFFFFC0
FFFFFFFFFFFFFFFFFFFFC0
FFFFFFFFFFFFFFFFFFFFF0
FFFFFFFFFFFFFFFFFFFFF0
FFFFFFFFFFFFFFFFFFFFF0
FFFFFFFFFFFFFFFFFFFFF0
FFFFFFFFFFFFFFFFFFFFF0
FFFFFFFFFFFFFFFFFFFFF0
FFFFFFFFFFFFFFFFFFFFF0
FFFFFFFFFFFFFFFFFFFFF0
FFFFFFFFC003FFFFFFFFF0
FFFFFFFFC003FFFFFFFFF0
FFFFFFFFC000FFFFFFFFFC
FFFFFFFFC000FFFFFFFFFC
FFFFFFFFC0003FFFFFFFFC
FFFFFFFFC0003FFFFFFFFC
FFFFFFFFC0003FFFFFFFFC
FFFFFFFFC0003FFFFFFFFC
FFFFFFFFC0003FFFFFFFFC
FFFFFFFFC0003FFFFFFFFC
FFFFFFFFC0003FFFFFFFFC
FFFFFFFFC0003FFFFFFFFC
FFFFFFFFC0003FFFFFFFFC
FFFFFFFFC0003FFFFFFFFC
FFFFFFFFC0003FFFFFFFFC
FFFFFFFFC0003FFFFFFFFC
FFFFFFFFC0003FFFFFFFFC
FFFFFFFFC0003FFFFFFFFC
FFFFFFFFC0003FFFFFFFFC
FFFFFFFFC0003FFFFFFFFC
FFFFFFFFC0003FFFFFFFFC
FFFFFFFFC0003FFFFFFFFC
FFFFFFFFC0003FFFFFFFFC
FFFFFFFFC0003FFFFFFFFC
FFFFFFFFC0003FFFFFFFFC
FFFFFFFFC0003FFFFFFFFC
FFFFFFFFC0003FFFFFFFFC
FFFFFFFFC0003FFFFFFFFC
FFFFFFFFC0003FFFFFFFF0
FFFFFFFFC0003FFFFFFFF0
FFFFFFFFC0003FFFFFFFF0
FFFFFFFFC0003FFFFFFFF0
FFFFFFFFC0003FFFFFFFF0
FFFFFFFFC0003FFFFFFFF0
FFFFFFFFC000FFFFFFFFF0
FFFFFFFFC000FFFFFFFFF0
FFFFFFFFC003FFFFFFFFC0
FFFFFFFFC003FFFFFFFFC0
FFFFFFFFFFFFFFFFFFFFC0
FFFFFFFFFFFFFFFFFFFFC0
FFFFFFFFFFFFFFFFFFFF00
FFFFFFFFFFFFFFFFFFFF00
FFFFFFFFFFFFFFFFFFFF00
FFFFFFFFFFFFFFFFFFFF00
FFFFFFFFFFFFFFFFFFFC00
FFFFFFFFFFFFFFFFFFFC00
FFFFFFFFFFFFFFFFFFC000
FFFFFFFFFFFFFFFFFFC000
FFFFFFFFFFFFFFFFFF0000
FFFFFFFFFFFFFFFFFF0000
FFFFFFFFFFFFFFFFFC0000
FFFFFFFFFFFFFFFFFC0000
FFFFFFFFFFFFFFFFFFC000
FFFFFFFFFFFFFFFFFFC000
FFFFFFFFFFFFFFFFFFF000
FFFFFFFFFFFFFFFFFFF000
FFFFFFFFFFFFFFFFFFFC00
FFFFFFFFFFFFFFFFFFFC00
FFFFFFFFFFFFFFFFFFFF00
FFFFFFFFFFFFFFFFFFFF00
FFFFFFFFFFFFFFFFFFFFC0
FFFFFFFFFFFFFFFFFFFFC0
FFFFFFFFFFFFFFFFFFFFC0
FFFFFFFFFFFFFFFFFFFFC0
FFFFFFFFFFFFFFFFFFFFF0
FFFFFFFFFFFFFFFFFFFFF0
FFFFFFFFC003FFFFFFFFF0
FFFFFFFFC003FFFFFFFFF0
FFFFFFFFC000FFFFFFFFF0
FFFFFFFFC000FFFFFFFFF0
FFFFFFFFC0003FFFFFFFFC
FFFFFFFFC0003FFFFFFFFC
FFFFFFFFC0000FFFFFFFFC
FFFFFFFFC0000FFFFFFFFC
FFFFFFFFC0000FFFFFFFFC
FFFFFFFFC0000FFFFFFFFC
FFFFFFFFC0000FFFFFFFFC
FFFFFFFFC0000FFFFFFFFC
FFFFFFFFC0000FFFFFFFFC
FFFFFFFFC0000FFFFFFFFC
FFFFFFFFC0000FFFFFFFFF
FFFFFFFFC0000FFFFFFFFF
FFFFFFFFC0000FFFFFFFFF
FFFFFFFFC0000FFFFFFFFF
FFFFFFFFC0000FFFFFFFFF
FFFFFFFFC0000FFFFFFFFF
FFFFFFFFC0000FFFFFFFFF
FFFFFFFFC0000FFFFFFFFF
FFFFFFFFC0000FFFFFFFFF
FFFFFFFFC0000FFFFFFFFF
FFFFFFFFC0000FFFFFFFFF
FFFFFFFFC0000FFFFFFFFF
FFFFFFFFC0000FFFFFFFFF
FFFFFFFFC0000FFFFFFFFF
FFFFFFFFC0000FFFFFFFFF
FFFFFFFFC0000FFFFFFFFF
FFFFFFFFC0000FFFFFFFFF
FFFFFFFFC0000FFFFFFFFF
FFFFFFFFC0000FFFFFFFFF
FFFFFFFFC0000FFFFFFFFF
FFFFFFFFC0000FFFFFFFFF
FFFFFFFFC0000FFFFFFFFF
FFFFFFFFC0000FFFFFFFFF
FFFFFFFFC0000FFFFFFFFF
FFFFFFFFC0000FFFFFFFFF
FFFFFFFFC0000FFFFFFFFF
FFFFFFFFC0000FFFFFFFFC
FFFFFFFFC0000FFFFFFFFC
FFFFFFFFC0000FFFFFFFFC
FFFFFFFFC0000FFFFFFFFC
FFFFFFFFC0000FFFFFFFFC
FFFFFFFFC0000FFFFFFFFC
FFFFFFFFC0003FFFFFFFFC
FFFFFFFFC0003FFFFFFFFC
FFFFFFFFC000FFFFFFFFFC
FFFFFFFFC000FFFFFFFFFC
FFFFFFFFC00FFFFFFFFFFC
FFFFFFFFC00FFFFFFFFFFC
FFFFFFFFFFFFFFFFFFFFFC
FFFFFFFFFFFFFFFFFFFFFC
FFFFFFFFFFFFFFFFFFFFF0
FFFFFFFFFFFFFFFFFFFFF0
FFFFFFFFFFFFFFFFFFFFF0
FFFFFFFFFFFFFFFFFFFFF0
FFFFFFFFFFFFFFFFFFFFF0
FFFFFFFFFFFFFFFFFFFFF0
FFFFFFFFFFFFFFFFFFFFC0
FFFFFFFFFFFFFFFFFFFFC0
FFFFFFFFFFFFFFFFFFFFC0
FFFFFFFFFFFFFFFFFFFFC0
FFFFFFFFFFFFFFFFFFFFC0
FFFFFFFFFFFFFFFFFFFFC0
FFFFFFFFFFFFFFFFFFFF00
FFFFFFFFFFFFFFFFFFFF00
FFFFFFFFFFFFFFFFFFFF00
FFFFFFFFFFFFFFFFFFFF00
FFFFFFFFFFFFFFFFFFFC00
FFFFFFFFFFFFFFFFFFFC00
FFFFFFFFFFFFFFFFFFF000
FFFFFFFFFFFFFFFFFFF000
FFFFFFFFFFFFFFFFFFC000
FFFFFFFFFFFFFFFFFFC000
FFFFFFFFFFFFFFFFFF0000
FFFFFFFFFFFFFFFFFF0000
FFFFFFFFFFFFFFFFFC0000
FFFFFFFFFFFFFFFFFC0000
FFFFFFFFFFFFFFFFC00000
FFFFFFFFFFFFFFFFC00000
FFFFFFFFFFFFFFF0000000
FFFFFFFFFFFFFFF0000000
ENDCHAR
STARTCHAR C
ENCODING 67
SWIDTH 474 0
DWIDTH 99 0
BBX 88 182 6 -2
BITMAP
000000003FFFFF00000000
000000003FFFFF00000000
0000003FFFFFFFFC000000
0000003FFFFFFFFC000000
000003FFFFFFFFFFF00000
000003FFFFFFFFFFF00000
00003FFFFFFFFFFFFF0000
00003FFFFFFFFFFFFF0000
0000FFFFFFFFFFFFFFC000
0000FFFFFFFFFFFFFFC000
0003FFFFFFFFFFFFFFF000
0003FFFFFFFFFFFFFFF000
000FFFFFFFFFFFFFFFFC00
000FFFFFFFFFFFFFFFFC00
003FFFFFFFFFFFFFFFFF00
003FFFFFFFFFFFFFFFFF00
00FFFFFFFFFFFFFFFFFFC0
00FFFFFFFFFFFFFFFFFFC0
00FFFFFFFFFFFFFFFFFFC0
00FFFFFFFFFFFFFFFFFFC0
03FFFFFFFFFFFFFFFFFFF0
03FFFFFFFFFFFFFFFFFFF0
03FFFFFFFFFFFFFFFFFFF0
03FFFFFFFFFFFFFFFFFFF0
0FFFFFFFFFFFFFFFFFFFFC
0FFFFFFFFFFFFFFFFFFFFC
0FFFFFFFFFFFFFFFFFFFFC
0FFFFFFFFFFFFFFFFFFFFC
0FFFFFFFFFFFFFFFFFFFFC
0FFFFFFFFFFFFFFFFFFFFC
3FFFFFFFFFFFFFFFFFFFFF
3FFFFFFFFFFFFFFFFFFFFF
3FFFFFFFFF00FFFFFFFFFF
3FFFFFFFFF00FFFFFFFFFF
3FFFFFFFFC003FFFFFFFFF
3FFFFFFFFC003FFFFFFFFF
3FFFFFFFFC000FFFFFFFFF
3FFFFFFFFC000FFFFFFFFF
3FFFFFFFF0000FFFFFFFFF
3FFFFFFFF0000FFFFFFFFF
3FFFFFFFF0000FFFFFFFFF
3FFFFFFFF0000FFFFFFFFF
FFFFFFFFF0000FFFFFFFFF
FFFFFFFFF0000FFFFFFFFF
FFFFFFFFF0000FFFFFFFFF
FFFFFFFFF0000FFFFFFFFF
FFFFFFFFF0000FFFFFFFFF
FFFFFFFFF0000FFFFFFFFF
FFFFFFFFF0000FFFFFFFFF
FFFFFFFFF0000FFFFFFFFF
FFFFFFFFF0000FFFFFFFFF
FFFFFFFFF0000FFFFFFFFF
FFFFFFFFF0000FFFFFFFFF
FFFFFFFFF0000FFFFFFFFF
FFFFFFFFF0000FFFFFFFFF
FFFFFFFFF0000FFFFFFFFF
FFFFFFFFF0000FFFFFFFFF
FFFFFFFFF0000FFFFFFFFF
FFFFFFFFF0000FFFFFFFFF
FFFFFFFFF0000FFFFFFFFF
FFFFFFFFF0000FFFFFFFFF
FFFFFFFFF0000FFFFFFFFF
FFFFFFFFF0000FFFFFFFFF
FFFFFFFFF0000FFFFFFFFF
FFFFFFFFF0000FFFFFFFFF
FFFFFFFFF0000FFFFFFFFF
FFFFFFFFF0000FFFFFFFFF
FFFFFFFFF0000FFFFFFFFF
FFFFFFFFF0000FFFFFFFFF
FFFFFFFFF0000FFFFFFFFF
FFFFFFFFF0000FFFFFFFFF
FFFFFFFFF0000FFFFFFFFF
FFFFFFFFF0000000000000
FFFFFFFFF0000000000000
FFFFFFFFF0000000000000
FFFFFFFFF0000000000000
FFFFFFFFF0000000000000
FFFFFFFFF0000000000000
FFFFFFFFF0000000000000
FFFFFFFFF0000000000000
FFFFFFFFF0000000000000
FFFFFFFFF0000000000000
FFFFFFFFF0000000000000
FFFFFFFFF0000000000000
FFFFFFFFF0000000000000
FFFFFFFFF0000000000000
FFFFFFFFF0000000000000
FFFFFFFFF0000000000000
FFFFFFFFF0000000000000
FFFFFFFFF0000000000000
FFFFFFFFF0000000000000
FFFFFFFFF0000000000000
FFFFFFFFF0000000000000
FFFFFFFFF0000000000000
FFFFFFFFF0000000000000
FFFFFFFFF0000000000000
FFFFFFFFF0000000000000
FFFFFFFFF0000000000000
FFFFFFFFF0000000000000
FFFFFFFFF0000000000000
FFFFFFFFF0000000000000
FFFFFFFFF0000000000000
FFFFFFFFF0000000000000
FFFFFFFFF0000000000000
FFFFFFFFF0000FFFFFFFFF
FFFFFFFFF0000FFFFFFFFF
FFFFFFFFF0000FFFFFFFFF
FFFFFFFFF0000FFFFFFFFF
FFFFFFFFF0000FFFFFFFFF
FFFFFFFFF0000FFFFFFFFF
FFFFFFFFF0000FFFFFFFFF
FFFFFFFFF0000FFFFFFFFF
FFFFFFFFF0000FFFFFFFFF
FFFFFFFFF0000FFFFFFFFF
FFFFFFFFF0000FFFFFFFFF
FFFFFFFFF0000FFFFFFFFF
FFFFFFFFF0000FFFFFFFFF
FFFFFFFFF0000FFFFFFFFF
FFFFFFFFF0000FFFFFFFFF
FFFFFFFFF0000FFFFFFFFF
FFFFFFFFF0000FFFFFFFFF
FFFFFFFFF0000FFFFFFFFF
FFFFFFFFF0000FFFFFFFFF
FFFFFFFFF0000FFFFFFFFF
FFFFFFFFF0000FFFFFFFFF
FFFFFFFFF0000FFFFFFFFF
FFFFFFFFF0000FFFFFFFFF
FFFFFFFFF0000FFFFFFFFF
FFFFFFFFF0000FFFFFFFFF
FFFFFFFFF0000FFFFFFFFF
FFFFFFFFF0000FFFFFFFFF
FFFFFFFFF0000FFFFFFFFF
FFFFFFFFF0000FFFFFFFFF
FFFFFFFFF0000FFFFFFFFF
FFFFFFFFF0000FFFFFFFFF
FFFFFFFFF0000FFFFFFFFF
FFFFFFFFF0000FFFFFFFFF
FFFFFFFFF0000FFFFFFFFF
FFFFFFFFF0000FFFFFFFFF
FFFFFFFFF0000FFFFFFFFF
FFFFFFFFF0000FFFFFFFFF
FFFFFFFFF0000FFFFFFFFF
FFFFFFFFF0000FFFFFFFFF
FFFFFFFFF0000FFFFFFFFF
FFFFFFFFFC000FFFFFFFFF
FFFFFFFFFC000FFFFFFFFF
3FFFFFFFFC003FFFFFFFFF
3FFFFFFFFC003FFFFFFFFF
3FFFFFFFFF00FFFFFFFFFF
3FFFFFFFFF00FFFFFFFFFF
3FFFFFFFFFFFFFFFFFFFFF
3FFFFFFFFFFFFFFFFFFFFF
3FFFFFFFFFFFFFFFFFFFFC
3FFFFFFFFFFFFFFFFFFFFC
0FFFFFFFFFFFFFFFFFFFFC
0FFFFFFFFFFFFFFFFFFFFC
0FFFFFFFFFFFFFFFFFFFFC
0FFFFFFFFFFFFFFFFFFFFC
0FFFFFFFFFFFFFFFFFFFF0
0FFFFFFFFFFFFFFFFFFFF0
03FFFFFFFFFFFFFFFFFFF0
03FFFFFFFFFFFFFFFFFFF0
03FFFFFFFFFFFFFFFFFFF0
03FFFFFFFFFFFFFFFFFFF0
00FFFFFFFFFFFFFFFFFFC0
00FFFFFFFFFFFFFFFFFFC0
003FFFFFFFFFFFFFFFFF00
003FFFFFFFFFFFFFFFFF00
000FFFFFFFFFFFFFFFFF00
000FFFFFFFFFFFFFFFFF00
0003FFFFFFFFFFFFFFFC00
0003FFFFFFFFFFFFFFFC00
0000FFFFFFFFFFFFFFC000
0000FFFFFFFFFFFFFFC000
00003FFFFFFFFFFFFF0000
00003FFFFFFFFFFFFF0000
000003FFFFFFFFFFF00000
000003FFFFFFFFFFF00000
0000003FFFFFFFFF000000
0000003FFFFFFFFF000000
000000003FFFFF00000000
000000003FFFFF00000000
ENDCHAR
STARTCHAR D
ENCODING 68
SWIDTH 493 0
DWIDTH 103 0
BBX 88 178 8 0
BITMAP
FFFFFFFFFFFFFFF0000000
FFFFFFFFFFFFFFF0000000
FFFFFFFFFFFFFFFFC00000
FFFFFFFFFFFFFFFFC00000
FFFFFFFFFFFFFFFFFC0000
FFFFFFFFFFFFFFFFFC0000
FFFFFFFFFFFFFFFFFFC000
FFFFFFFFFFFFFFFFFFC000
FFFFFFFFFFFFFFFFFFF000
FFFFFFFFFFFFFFFFFFF000
FFFFFFFFFFFFFFFFFFFC00
FFFFFFFFFFFFFFFFFFFC00
FFFFFFFFFFFFFFFFFFFF00
FFFFFFFFFFFFFFFFFFFF00
FFFFFFFFFFFFFFFFFFFFC0
FFFFFFFFFFFFFFFFFFFFC0
FFFFFFFFFFFFFFFFFFFFC0
FFFFFFFFFFFFFFFFFFFFC0
FFFFFFFFFFFFFFFFFFFFF0
FFFFFFFFFFFFFFFFFFFFF0
FFFFFFFFFFFFFFFFFFFFF0
FFFFFFFFFFFFFFFFFFFFF0
FFFFFFFFFFFFFFFFFFFFF0
FFFFFFFFFFFFFFFFFFFFF0
FFFFFFFFFFFFFFFFFFFFFC
FFFFFFFFFFFFFFFFFFFFFC
FFFFFFFFFFFFFFFFFFFFFC
FFFFFFFFFFFFFFFFFFFFFC
FFFFFFFFFFFFFFFFFFFFFC
FFFFFFFFFFFFFFFFFFFFFC
FFFFFFFFFFFFFFFFFFFFFC
FFFFFFFFFFFFFFFFFFFFFC
FFFFFFFFF000FFFFFFFFFF
FFFFFFFFF000FFFFFFFFFF
FFFFFFFFF0003FFFFFFFFF
FFFFFFFFF0003FFFFFFFFF
FFFFFFFFF0003FFFFFFFFF
FFFFFFFFF0003FFFFFFFFF
FFFFFFFFF0000FFFFFFFFF
FFFFFFFFF0000FFFFFFFFF
FFFFFFFFF0000FFFFFFFFF
FFFFFFFFF0000FFFFFFFFF
FFFFFFFFF0000FFFFFFFFF
FFFFFFFFF0000FFFFFFFFF
FFFFFFFFF0000FFFFFFFFF
FFFFFFFFF0000FFFFFFFFF
FFFFFFFFF0000FFFFFFFFF
FFFFFFFFF0000FFFFFFFFF
FFFFFFFFF0000FFFFFFFFF
FFFFFFFFF0000FFFFFFFFF
FFFFFFFFF0000FFFFFFFFF
FFFFFFFFF0000FFFFFFFFF
FFFFFFFFF0000FFFFFFFFF
FFFFFFFFF0000FFFFFFFFF
FFFFFFFFF0000FFFFFFFFF
FFFFFFFFF0000FFFFFFFFF
FFFFFFFFF0000FFFFFFFFF
FFFFFFFFF0000FFFFFFFFF
FFFFFFFFF0000FFFFFFFFF
FFFFFFFFF0000FFFFFFFFF
FFFFFFFFF0000FFFFFFFFF
FFFFFFFFF0000FFFFFFFFF
FFFFFFFFF0000FFFFFFFFF
FFFFFFFFF0000FFFFFFFFF
FFFFFFFFF0000FFFFFFFFF
FFFFFFFFF0000FFFFFFFFF
FFFFFFFFF0000FFFFFFFFF
FFFFFFFFF0000FFFFFFFFF
FFFFFFFFF0000FFFFFFFFF
FFFFFFFFF0000FFFFFFFFF
FFFFFFFFF0000FFFFFFFFF
FFFFFFFFF0000FFFFFFFFF
FFFFFFFFF0000FFFFFFFFF
FFFFFFFFF0000FFFFFFFFF
FFFFFFFFF0000FFFFFFFFF
FFFFFFFFF0000FFFFFFFFF
FFFFFFFFF0000FFFFFFFFF
FFFFFFFFF0000FFFFFFFFF
FFFFFFFFF0000FFFFFFFFF
FFFFFFFFF0000FFFFFFFFF
FFFFFFFFF0000FFFFFFFFF
FFFFFFFFF0000FFFFFFFFF
FFFFFFFFF0000FFFFFFFFF
FFFFFFFFF0000FFFFFFFFF
FFFFFFFFF0000FFFFFFFFF
FFFFFFFFF0000FFFFFFFFF
FFFFFFFFF0000FFFFFFFFF
FFFFFFFFF0000FFFFFFFFF
FFFFFFFFF0000FFFFFFFFF
FFFFFFFFF0000FFFFFFFFF
FFFFFFFFF0000FFFFFFFFF
FFFFFFFFF0000FFFFFFFFF
FFFFFFFFF0000FFFFFFFFF
FFFFFFFFF0000FFFFFFFFF
FFFFFFFFF0000FFFFFFFFF
FFFFFFFFF0000FFFFFFFFF
FFFFFFFFF0000FFFFFFFFF
FFFFFFFFF0000FFFFFFFFF
FFFFFFFFF0000FFFFFFFFF
FFFFFFFFF0000FFFFFFFFF
FFFFFFFFF0000FFFFFFFFF
FFFFFFFFF0000FFFFFFFFF
FFFFFFFFF0000FFFFFFFFF
FFFFFFFFF0000FFFFFFFFF
FFFFFFFFF0000FFFFFFFFF
FFFFFFFFF0000FFFFFFFFF
FFFFFFFFF0000FFFFFFFFF
FFFFFFFFF0000FFFFFFFFF
FFFFFFFFF0000FFFFFFFFF
FFFFFFFFF0000FFFFFFFFF
FFFFFFFFF0000FFFFFFFFF
FFFFFFFFF0000FFFFFFFFF
FFFFFFFFF0000FFFFFFFFF
FFFFFFFFF0000FFFFFFFFF
FFFFFFFFF0000FFFFFFFFF
FFFFFFFFF0000FFFFFFFFF
FFFFFFFFF0000FFFFFFFFF
FFFFFFFFF0000FFFFFFFFF
FFFFFFFFF0000FFFFFFFFF
FFFFFFFFF0000FFFFFFFFF
FFFFFFFFF0000FFFFFFFFF
FFFFFFFFF0000FFFFFFFFF
FFFFFFFFF0000FFFFFFFFF
FFFFFFFFF0000FFFFFFFFF
FFFFFFFFF0000FFFFFFFFF
FFFFFFFFF0000FFFFFFFFF
FFFFFFFFF0000FFFFFFFFF
FFFFFFFFF0000FFFFFFFFF
FFFFFFFFF0000FFFFFFFFF
FFFFFFFFF0000FFFFFFFFF
FFFFFFFFF0000FFFFFFFFF
FFFFFFFFF0000FFFFFFFFF
FFFFFFFFF0000FFFFFFFFF
FFFFFFFFF0000FFFFFFFFF
FFFFFFFFF0000FFFFFFFFF
FFFFFFFFF0000FFFFFFFFF
FFFFFFFFF0000FFFFFFFFF
FFFFFFFFF0000FFFFFFFFF
FFFFFFFFF0000FFFFFFFFF
FFFFFFFFF0000FFFFFFFFF
FFFFFFFFF0000FFFFFFFFF
FFFFFFFFF0000FFFFFFFFF
FFFFFFFFF0003FFFFFFFFC
FFFFFFFFF0003FFFFFFFFC
FFFFFFFFF000FFFFFFFFFC
FFFFFFFFF000FFFFFFFFFC
FFFFFFFFFFFFFFFFFFFFFC
FFFFFFFFFFFFFFFFFFFFFC
FFFFFFFFFFFFFFFFFFFFFC
FFFFFFFFFFFFFFFFFFFFFC
FFFFFFFFFFFFFFFFFFFFFC
FFFFFFFFFFFFFFFFFFFFFC
FFFFFFFFFFFFFFFFFFFFF0
FFFFFFFFFFFFFFFFFFFFF0
FFFFFFFFFFFFFFFFFFFFF0
FFFFFFFFFFFFFFFFFFFFF0
FFFFFFFFFFFFFFFFFFFFF0
FFFFFFFFFFFFFFFFFFFFF0
FFFFFFFFFFFFFFFFFFFFC0
FFFFFFFFFFFFFFFFFFFFC0
FFFFFFFFFFFFFFFFFFFFC0
FFFFFFFFFFFFFFFFFFFFC0
FFFFFFFFFFFFFFFFFFFF00
FFFFFFFFFFFFFFFFFFFF00
FFFFFFFFFFFFFFFFFFFC00
FFFFFFFFFFFFFFFFFFFC00
FFFFFFFFFFFFFFFFFFFC00
FFFFFFFFFFFFFFFFFFFC00
FFFFFFFFFFFFFFFFFFF000
FFFFFFFFFFFFFFFFFFF000
FFFFFFFFFFFFFFFFFF0000
FFFFFFFFFFFFFFFFFF0000
FFFFFFFFFFFFFFFFFC0000
FFFFFFFFFFFFFFFFFC0000
FFFFFFFFFFFFFFFFC00000
FFFFFFFFFFFFFFFFC00000
FFFFFFFFFFFFFFC0000000
FFFFFFFFFFFFFFC0000000
ENDCHAR
STARTCHAR E
ENCODING 69
SWIDTH 412 0
DWIDTH 86 0
BBX 74 178 8 0
BITMAP
FFFFFFFFFFFFFFFFFF00
FFFFFFFFFFFFFFFFFF00
FFFFFFFFFFFFFFFFFF00
FFFFFFFFFFFFFFFFFF00
FFFFFFFFFFFFFFFFFF00
FFFFFFFFFFFFFFFFFF00
FFFFFFFFFFFFFFFFFF00
FFFFFFFFFFFFFFFFFF00
FFFFFFFFFFFFFFFFFF00
FFFFFFFFFFFFFFFFFF00
FFFFFFFFFFFFFFFFFF00
FFFFFFFFFFFFFFFFFF00
FFFFFFFFFFFFFFFFFF00
FFFFFFFFFFFFFFFFFF00
FFFFFFFFFFFFFFFFFF00
FFFFFFFFFFFFFFFFFF00
FFFFFFFFFFFFFFFFFF00
FFFFFFFFFFFFFFFFFF00
FFFFFFFFFFFFFFFFFF00
FFFFFFFFFFFFFFFFFF00
FFFFFFFFFFFFFFFFFF00
FFFFFFFFFFFFFFFFFF00
FFFFFFFFFFFFFFFFFF00
FFFFFFFFFFFFFFFFFF00
FFFFFFFFFFFFFFFFFF00
FFFFFFFFFFFFFFFFFF00
FFFFFFFFFFFFFFFFFF00
FFFFFFFFFFFFFFFFFF00
FFFFFFFFFFFFFFFFFF00
FFFFFFFFFFFFFFFFFF00
FFFFFFFFFFFFFFFFFF00
FFFFFFFFFFFFFFFFFF00
FFFFFFFFFFFFFFFFFF00
FFFFFFFFFFFFFFFFFF00
FFFFFFFFF00000000000
FFFFFFFFF00000000000
FFFFFFFFF00000000000
FFFFFFFFF00000000000
FFFFFFFFF00000000000
FFFFFFFFF00000000000
FFFFFFFFF00000000000
FFFFFFFFF00000000000
FFFFFFFFF00000000000
FFFFFFFFF00000000000
FFFFFFFFF00000000000
FFFFFFFFF00000000000
FFFFFFFFF00000000000
FFFFFFFFF00000000000
FFFFFFFFF00000000000
FFFFFFFFF00000000000
FFFFFFFFF00000000000
FFFFFFFFF00000000000
FFFFFFFFF00000000000
FFFFFFFFF00000000000
FFFFFFFFF00000000000
FFFFFFFFF00000000000
FFFFFFFFF00000000000
FFFFFFFFF00000000000
FFFFFFFFF00000000000
FFFFFFFFF00000000000
FFFFFFFFF00000000000
FFFFFFFFF00000000000
FFFFFFFFF00000000000
FFFFFFFFF00000000000
FFFFFFFFF00000000000
FFFFFFFFF00000000000
FFFFFFFFF00000000000
FFFFFFFFF00000000000
FFFFFFFFFFFFFFFFFC00
FFFFFFFFFFFFFFFFFC00
FFFFFFFFFFFFFFFFFC00
FFFFFFFFFFFFFFFFFC00
FFFFFFFFFFFFFFFFFC00
FFFFFFFFFFFFFFFFFC00
FFFFFFFFFFFFFFFFFC00
FFFFFFFFFFFFFFFFFC00
FFFFFFFFFFFFFFFFFC00
FFFFFFFFFFFFFFFFFC00
FFFFFFFFFFFFFFFFFC00
FFFFFFFFFFFFFFFFFC00
FFFFFFFFFFFFFFFFFC00
FFFFFFFFFFFFFFFFFC00
FFFFFFFFFFFFFFFFFC00
FFFFFFFFFFFFFFFFFC00
FFFFFFFFFFFFFFFFFC00
FFFFFFFFFFFFFFFFFC00
FFFFFFFFFFFFFFFFFC00
FFFFFFFFFFFFFFFFFC00
FFFFFFFFFFFFFFFFFC00
FFFFFFFFFFFFFFFFFC00
FFFFFFFFFFFFFFFFFC00
FFFFFFFFFFFFFFFFFC00
FFFFFFFFFFFFFFFFFC00
FFFFFFFFFFFFFFFFFC00
FFFFFFFFFFFFFFFFFC00
FFFFFFFFFFFFFFFFFC00
FFFFFFFFFFFFFFFFFC00
FFFFFFFFFFFFFFFFFC00
FFFFFFFFFFFFFFFFFC00
FFFFFFFFFFFFFFFFFC00
FFFFFFFFFFFFFFFFFC00
FFFFFFFFFFFFFFFFFC00
FFFFFFFFF00000000000
FFFFFFFFF00000000000
FFFFFFFFF00000000000
FFFFFFFFF00000000000
FFFFFFFFF00000000000
FFFFFFFFF00000000000
FFFFFFFFF00000000000
FFFFFFFFF00000000000
FFFFFFFFF00000000000
FFFFFFFFF00000000000
FFFFFFFFF00000000000
FFFFFFFFF00000000000
FFFFFFFFF00000000000
FFFFFFFFF00000000000
FFFFFFFFF00000000000
FFFFFFFFF00000000000
FFFFFFFFF00000000000
FFFFFFFFF00000000000
FFFFFFFFF00000000000
FFFFFFFFF00000000000
FFFFFFFFF00000000000
FFFFFFFFF00000000000
FFFFFFFFF00000000000
FFFFFFFFF00000000000
FFFFFFFFF00000000000
FFFFFFFFF00000000000
FFFFFFFFF00000000000
FFFFFFFFF00000000000
FFFFFFFFF00000000000
FFFFFFFFF00000000000
FFFFFFFFF00000000000
FFFFFFFFF00000000000
FFFFFFFFF00000000000
FFFFFFFFF00000000000
FFFFFFFFF00000000000
FFFFFFFFF00000000000
FFFFFFFFF00000000000
FFFFFFFFF00000000000
FFFFFFFFF00000000000
FFFFFFFFF00000000000
FFFFFFFFF00000000000
FFFFFFFFF00000000000
FFFFFFFFFFFFFFFFFFC0
FFFFFFFFFFFFFFFFFFC0
FFFFFFFFFFFFFFFFFFC0
FFFFFFFFFFFFFFFFFFC0
FFFFFFFFFFFFFFFFFFC0
FFFFFFFFFFFFFFFFFFC0
FFFFFFFFFFFFFFFFFFC0
FFFFFFFFFFFFFFFFFFC0
FFFFFFFFFFFFFFFFFFC0
FFFFFFFFFFFFFFFFFFC0
FFFFFFFFFFFFFFFFFFC0
FFFFFFFFFFFFFFFFFFC0
FFFFFFFFFFFFFFFFFFC0
FFFFFFFFFFFFFFFFFFC0
FFFFFFFFFFFFFFFFFFC0
FFFFFFFFFFFFFFFFFFC0
FFFFFFFFFFFFFFFFFFC0
FFFFFFFFFFFFFFFFFFC0
FFFFFFFFFFFFFFFFFFC0
FFFFFFFFFFFFFFFFFFC0
FFFFFFFFFFFFFFFFFFC0
FFFFFFFFFFFFFFFFFFC0
FFFFFFFFFFFFFFFFFFC0
FFFFFFFFFFFFFFFFFFC0
FFFFFFFFFFFFFFFFFFC0
FFFFFFFFFFFFFFFFFFC0
FFFFFFFFFFFFFFFFFFC0
FFFFFFFFFFFFFFFFFFC0
FFFFFFFFFFFFFFFFFFC0
FFFFFFFFFFFFFFFFFFC0
FFFFFFFFFFFFFFFFFFC0
FFFFFFFFFFFFFFFFFFC0
FFFFFFFFFFFFFFFFFFC0
FFFFFFFFFFFFFFFFFFC0
ENDCHAR
STARTCHAR F
ENCODING 70
SWIDTH 399 0
DWIDTH 83 0
BBX 72 178 8 0
BITMAP
FFFFFFFFFFFFFFFFFF
FFFFFFFFFFFFFFFFFF
FFFFFFFFFFFFFFFFFF
FFFFFFFFFFFFFFFFFF
FFFFFFFFFFFFFFFFFF
FFFFFFFFFFFFFFFFFF
FFFFFFFFFFFFFFFFFF
FFFFFFFFFFFFFFFFFF
FFFFFFFFFFFFFFFFFF
FFFFFFFFFFFFFFFFFF
FFFFFFFFFFFFFFFFFF
FFFFFFFFFFFFFFFFFF
FFFFFFFFFFFFFFFFFF
FFFFFFFFFFFFFFFFFF
FFFFFFFFFFFFFFFFFF
FFFFFFFFFFFFFFFFFF
FFFFFFFFFFFFFFFFFF
FFFFFFFFFFFFFFFFFF
FFFFFFFFFFFFFFFFFF
FFFFFFFFFFFFFFFFFF
FFFFFFFFFFFFFFFFFF
FFFFFFFFFFFFFFFFFF
FFFFFFFFFFFFFFFFFF
FFFFFFFFFFFFFFFFFF
FFFFFFFFFFFFFFFFFF
FFFFFFFFFFFFFFFFFF
FFFFFFFFFFFFFFFFFF
FFFFFFFFFFFFFFFFFF
FFFFFFFFFFFFFFFFFF
FFFFFFFFFFFFFFFFFF
FFFFFFFFFFFFFFFFFF
FFFFFFFFFFFFFFFFFF
FFFFFFFFFFFFFFFFFF
FFFFFFFFFFFFFFFFFF
FFFFFFFFF000000000
FFFFFFFFF000000000
FFFFFFFFF000000000
FFFFFFFFF000000000
FFFFFFFFF000000000
FFFFFFFFF000000000
FFFFFFFFF000000000
FFFFFFFFF000000000
FFFFFFFFF000000000
FFFFFFFFF000000000
FFFFFFFFF000000000
FFFFFFFFF000000000
FFFFFFFFF000000000
FFFFFFFFF000000000
FFFFFFFFF000000000
FFFFFFFFF000000000
FFFFFFFFF000000000
FFFFFFFFF000000000
FFFFFFFFF000000000
FFFFFFFFF000000000
FFFFFFFFF000000000
FFFFFFFFF000000000
FFFFFFFFF000000000
FFFFFFFFF000000000
FFFFFFFFF000000000
FFFFFFFFF000000000
FFFFFFFFF000000000
FFFFFFFFF000000000
FFFFFFFFFFFFFFFFFC
FFFFFFFFFFFFFFFFFC
FFFFFFFFFFFFFFFFFC
FFFFFFFFFFFFFFFFFC
FFFFFFFFFFFFFFFFFC
FFFFFFFFFFFFFFFFFC
FFFFFFFFFFFFFFFFFC
FFFFFFFFFFFFFFFFFC
FFFFFFFFFFFFFFFFFC
FFFFFFFFFFFFFFFFFC
FFFFFFFFFFFFFFFFFC
FFFFFFFFFFFFFFFFFC
FFFFFFFFFFFFFFFFFC
FFFFFFFFFFFFFFFFFC
FFFFFFFFFFFFFFFFFC
FFFFFFFFFFFFFFFFFC
FFFFFFFFFFFFFFFFFC
FFFFFFFFFFFFFFFFFC
FFFFFFFFFFFFFFFFFC
FFFFFFFFFFFFFFFFFC
FFFFFFFFFFFFFFFFFC
FFFFFFFFFFFFFFFFFC
FFFFFFFFFFFFFFFFFC
FFFFFFFFFFFFFFFFFC
FFFFFFFFFFFFFFFFFC
FFFFFFFFFFFFFFFFFC
FFFFFFFFFFFFFFFFFC
FFFFFFFFFFFFFFFFFC
FFFFFFFFFFFFFFFFFC
FFFFFFFFFFFFFFFFFC
FFFFFFFFFFFFFFFFFC
FFFFFFFFFFFFFFFFFC
FFFFFFFFFFFFFFFFFC
FFFFFFFFFFFFFFFFFC
FFFFFFFFF000000000
FFFFFFFFF000000000
FFFFFFFFF000000000
FFFFFFFFF000000000
FFFFFFFFF000000000
FFFFFFFFF000000000
FFFFFFFFF000000000
FFFFFFFFF000000000
FFFFFFFFF000000000
FFFFFFFFF000000000
FFFFFFFFF000000000
FFFFFFFFF000000000
FFFFFFFFF000000000
FFFFFFFFF000000000
FFFFFFFFF000000000
FFFFFFFFF000000000
FFFFFFFFF000000000
FFFFFFFFF000000000
FFFFFFFFF000000000
FFFFFFFFF000000000
FFFFFFFFF000000000
FFFFFFFFF000000000
FFFFFFFFF000000000
FFFFFFFFF000000000
FFFFFFFFF000000000
FFFFFFFFF000000000
FFFFFFFFF000000000
FFFFFFFFF000000000
FFFFFFFFF000000000
FFFFFFFFF000000000
FFFFFFFFF000000000
FFFFFFFFF000000000
FFFFFFFFF000000000
FFFFFFFFF000000000
FFFFFFFFF000000000
FFFFFFFFF000000000
FFFFFFFFF000000000
FFFFFFFFF000000000
FFFFFFFFF000000000
FFFFFFFFF000000000
FFFFFFFFF000000000
FFFFFFFFF000000000
FFFFFFFFF000000000
FFFFFFFFF000000000
FFFFFFFFF000000000
FFFFFFFFF000000000
FFFFFFFFF000000000
FFFFFFFFF000000000
FFFFFFFFF000000000
FFFFFFFFF000000000
FFFFFFFFF000000000
FFFFFFFFF000000000
FFFFFFFFF000000000
FFFFFFFFF000000000
FFFFFFFFF000000000
FFFFFFFFF000000000
FFFFFFFFF000000000
FFFFFFFFF000000000
FFFFFFFFF000000000
FFFFFFFFF000000000
FFFFFFFFF000000000
FFFFFFFFF000000000
FFFFFFFFF000000000
FFFFFFFFF000000000
FFFFFFFFF000000000
FFFFFFFFF000000000
FFFFFFFFF000000000
FFFFFFFFF000000000
FFFFFFFFF000000000
FFFFFFFFF000000000
FFFFFFFFF000000000
FFFFFFFFF000000000
FFFFFFFFF000000000
FFFFFFFFF000000000
FFFFFFFFF000000000
FFFFFFFFF000000000
FFFFFFFFF000000000
FFFFFFFFF000000000
FFFFFFFFF000000000
FFFFFFFFF000000000
FFFFFFFFF000000000
FFFFFFFFF000000000
ENDCHAR
STARTCHAR G
ENCODING 71
SWIDTH 485 0
DWIDTH 101 0
BBX 90 182 6 -2
BITMAP
000000003FFFFF0000000000
000000003FFFFF0000000000
0000003FFFFFFFFF00000000
0000003FFFFFFFFF00000000
000003FFFFFFFFFFF0000000
000003FFFFFFFFFFF0000000
00003FFFFFFFFFFFFF000000
00003FFFFFFFFFFFFF000000
0000FFFFFFFFFFFFFFC00000
0000FFFFFFFFFFFFFFC00000
0003FFFFFFFFFFFFFFF00000
0003FFFFFFFFFFFFFFF00000
000FFFFFFFFFFFFFFFFC0000
000FFFFFFFFFFFFFFFFC0000
003FFFFFFFFFFFFFFFFF0000
003FFFFFFFFFFFFFFFFF0000
00FFFFFFFFFFFFFFFFFF0000
00FFFFFFFFFFFFFFFFFF0000
00FFFFFFFFFFFFFFFFFFC000
00FFFFFFFFFFFFFFFFFFC000
03FFFFFFFFFFFFFFFFFFC000
03FFFFFFFFFFFFFFFFFFC000
03FFFFFFFFFFFFFFFFFFF000
03FFFFFFFFFFFFFFFFFFF000
0FFFFFFFFFFFFFFFFFFFF000
0FFFFFFFFFFFFFFFFFFFF000
0FFFFFFFFFFFFFFFFFFFFC00
0FFFFFFFFFFFFFFFFFFFFC00
3FFFFFFFFFFFFFFFFFFFFC00
3FFFFFFFFFFFFFFFFFFFFC00
3FFFFFFFFFFFFFFFFFFFFC00
3FFFFFFFFFFFFFFFFFFFFC00
3FFFFFFFFFC03FFFFFFFFC00
3FFFFFFFFFC03FFFFFFFFC00
3FFFFFFFFC000FFFFFFFFC00
3FFFFFFFFC000FFFFFFFFC00
3FFFFFFFFC000FFFFFFFFF00
3FFFFFFFFC000FFFFFFFFF00
3FFFFFFFF00003FFFFFFFF00
3FFFFFFFF00003FFFFFFFF00
FFFFFFFFF00003FFFFFFFF00
FFFFFFFFF00003FFFFFFFF00
FFFFFFFFF00003FFFFFFFF00
FFFFFFFFF00003FFFFFFFF00
FFFFFFFFF00003FFFFFFFF00
FFFFFFFFF00003FFFFFFFF00
FFFFFFFFF00003FFFFFFFF00
FFFFFFFFF00003FFFFFFFF00
FFFFFFFFF00003FFFFFFFF00
FFFFFFFFF00003FFFFFFFF00
FFFFFFFFF00003FFFFFFFF00
FFFFFFFFF00003FFFFFFFF00
FFFFFFFFF00003FFFFFFFF00
FFFFFFFFF00003FFFFFFFF00
FFFFFFFFF00003FFFFFFFF00
FFFFFFFFF00003FFFFFFFF00
FFFFFFFFF00003FFFFFFFFC0
FFFFFFFFF00003FFFFFFFFC0
FFFFFFFFF00003FFFFFFFFC0
FFFFFFFFF00003FFFFFFFFC0
FFFFFFFFF00003FFFFFFFFC0
FFFFFFFFF00003FFFFFFFFC0
FFFFFFFFF000000000000000
FFFFFFFFF000000000000000
FFFFFFFFF000000000000000
FFFFFFFFF000000000000000
FFFFFFFFF000000000000000
FFFFFFFFF000000000000000
FFFFFFFFF000000000000000
FFFFFFFFF000000000000000
FFFFFFFFF000000000000000
FFFFFFFFF000000000000000
FFFFFFFFF000000000000000
FFFFFFFFF000000000000000
FFFFFFFFF000000000000000
FFFFFFFFF000000000000000
FFFFFFFFF00FFFFFFFFFFF00
FFFFFFFFF00FFFFFFFFFFF00
FFFFFFFFF00FFFFFFFFFFF00
FFFFFFFFF00FFFFFFFFFFF00
FFFFFFFFF00FFFFFFFFFFF00
FFFFFFFFF00FFFFFFFFFFF00
FFFFFFFFF00FFFFFFFFFFF00
FFFFFFFFF00FFFFFFFFFFF00
FFFFFFFFF00FFFFFFFFFFF00
FFFFFFFFF00FFFFFFFFFFF00
FFFFFFFFF00FFFFFFFFFFF00
FFFFFFFFF00FFFFFFFFFFF00
FFFFFFFFF00FFFFFFFFFFF00
FFFFFFFFF00FFFFFFFFFFF00
FFFFFFFFF00FFFFFFFFFFF00
FFFFFFFFF00FFFFFFFFFFF00
FFFFFFFFF00FFFFFFFFFFF00
FFFFFFFFF00FFFFFFFFFFF00
FFFFFFFFF00FFFFFFFFFFF00
FFFFFFFFF00FFFFFFFFFFF00
FFFFFFFFF00FFFFFFFFFFF00
FFFFFFFFF00FFFFFFFFFFF00
FFFFFFFFF00FFFFFFFFFFF00
FFFFFFFFF00FFFFFFFFFFF00
FFFFFFFFF00FFFFFFFFFFF00
FFFFFFFFF00FFFFFFFFFFF00
FFFFFFFFF00FFFFFFFFFFF00
FFFFFFFFF00FFFFFFFFFFF00
FFFFFFFFF00FFFFFFFFFFF00
FFFFFFFFF00FFFFFFFFFFF00
FFFFFFFFF00003FFFFFFFF00
FFFFFFFFF00003FFFFFFFF00
FFFFFFFFF00003FFFFFFFF00
FFFFFFFFF00003FFFFFFFF00
FFFFFFFFF00003FFFFFFFF00
FFFFFFFFF00003FFFFFFFF00
FFFFFFFFF00003FFFFFFFF00
FFFFFFFFF00003FFFFFFFF00
FFFFFFFFF00003FFFFFFFF00
FFFFFFFFF00003FFFFFFFF00
FFFFFFFFF00003FFFFFFFF00
FFFFFFFFF00003FFFFFFFF00
FFFFFFFFF00003FFFFFFFF00
FFFFFFFFF00003FFFFFFFF00
FFFFFFFFF00003FFFFFFFF00
FFFFFFFFF00003FFFFFFFF00
FFFFFFFFF00003FFFFFFFF00
FFFFFFFFF00003FFFFFFFF00
FFFFFFFFF00003FFFFFFFF00
FFFFFFFFF00003FFFFFFFF00
FFFFFFFFF00003FFFFFFFF00
FFFFFFFFF00003FFFFFFFF00
FFFFFFFFF00003FFFFFFFF00
FFFFFFFFF00003FFFFFFFF00
FFFFFFFFF00003FFFFFFFF00
FFFFFFFFF00003FFFFFFFF00
FFFFFFFFF00003FFFFFFFF00
FFFFFFFFF00003FFFFFFFF00
FFFFFFFFF00003FFFFFFFF00
FFFFFFFFF00003FFFFFFFF00
FFFFFFFFF00003FFFFFFFF00
FFFFFFFFF00003FFFFFFFF00
FFFFFFFFF00003FFFFFFFF00
FFFFFFFFF00003FFFFFFFF00
3FFFFFFFF00003FFFFFFFF00
3FFFFFFFF00003FFFFFFFF00
3FFFFFFFF00003FFFFFFFF00
3FFFFFFFF00003FFFFFFFF00
3FFFFFFFFC000FFFFFFFFF00
3FFFFFFFFC000FFFFFFFFF00
3FFFFFFFFC000FFFFFFFFF00
3FFFFFFFFC000FFFFFFFFF00
3FFFFFFFFF003FFFFFFFFF00
3FFFFFFFFF003FFFFFFFFF00
3FFFFFFFFFFFFFFFFFFFFF00
3FFFFFFFFFFFFFFFFFFFFF00
0FFFFFFFFFFFFFFFFFFFFF00
0FFFFFFFFFFFFFFFFFFFFF00
0FFFFFFFFFFFFFFFFFFFFF00
0FFFFFFFFFFFFFFFFFFFFF00
0FFFFFFFFFFFFFFFFFFFFF00
0FFFFFFFFFFFFFFFFFFFFF00
03FFFFFFFFFFFFFFFFFFFF00
03FFFFFFFFFFFFFFFFFFFF00
03FFFFFFFFFFFFFFFFFFFF00
03FFFFFFFFFFFFFFFFFFFF00
03FFFFFFFFFFFFFFFFFFFF00
03FFFFFFFFFFFFFFFFFFFF00
00FFFFFFFFFFFFFFFFFFFF00
00FFFFFFFFFFFFFFFFFFFF00
00FFFFFFFFFFFFFFFFFFFF00
00FFFFFFFFFFFFFFFFFFFF00
003FFFFFFFFFFFFFC3FFFF00
003FFFFFFFFFFFFFC3FFFF00
000FFFFFFFFFFFFF03FFFF00
000FFFFFFFFFFFFF03FFFF00
0003FFFFFFFFFFFC00FFFF00
0003FFFFFFFFFFFC00FFFF00
0000FFFFFFFFFFF000FFFF00
0000FFFFFFFFFFF000FFFF00
00003FFFFFFFFFC000FFFF00
00003FFFFFFFFFC000FFFF00
000003FFFFFFFC00003FFF00
000003FFFFFFFC00003FFF00
0000000FFFFF000000000000
0000000FFFFF000000000000
ENDCHAR
STARTCHAR H
ENCODING 72
SWIDTH 499 0
DWIDTH 104 0
BBX 88 178 8 0
BITMAP
FFFFFFFFF0000FFFFFFFFF
FFFFFFFFF0000FFFFFFFFF
FFFFFFFFF0000FFFFFFFFF
FFFFFFFFF0000FFFFFFFFF
FFFFFFFFF0000FFFFFFFFF
FFFFFFFFF0000FFFFFFFFF
FFFFFFFFF0000FFFFFFFFF
FFFFFFFFF0000FFFFFFFFF
FFFFFFFFF0000FFFFFFFFF
FFFFFFFFF0000FFFFFFFFF
FFFFFFFFF0000FFFFFFFFF
FFFFFFFFF0000FFFFFFFFF
FFFFFFFFF0000FFFFFFFFF
FFFFFFFFF0000FFFFFFFFF
FFFFFFFFF0000FFFFFFFFF
FFFFFFFFF0000FFFFFFFFF
FFFFFFFFF0000FFFFFFFFF
FFFFFFFFF0000FFFFFFFFF
FFFFFFFFF0000FFFFFFFFF
FFFFFFFFF0000FFFFFFFFF
FFFFFFFFF0000FFFFFFFFF
FFFFFFFFF0000FFFFFFFFF
FFFFFFFFF0000FFFFFFFFF
FFFFFFFFF0000FFFFFFFFF
FFFFFFFFF0000FFFFFFFFF
FFFFFFFFF0000FFFFFFFFF
FFFFFFFFF0000FFFFFFFFF
FFFFFFFFF0000FFFFFFFFF
FFFFFFFFF0000FFFFFFFFF
FFFFFFFFF0000FFFFFFFFF
FFFFFFFFF0000FFFFFFFFF
FFFFFFFFF0000FFFFFFFFF
FFFFFFFFF0000FFFFFFFFF
FFFFFFFFF0000FFFFFFFFF
FFFFFFFFF0000FFFFFFFFF
FFFFFFFFF0000FFFFFFFFF
FFFFFFFFF0000FFFFFFFFF
FFFFFFFFF0000FFFFFFFFF
FFFFFFFFF0000FFFFFFFFF
FFFFFFFFF0000FFFFFFFFF
FFFFFFFFF0000FFFFFFFFF
FFFFFFFFF0000FFFFFFFFF
FFFFFFFFF0000FFFFFFFFF
FFFFFFFFF0000FFFFFFFFF
FFFFFFFFF0000FFFFFFFFF
FFFFFFFFF0000FFFFFFFFF
FFFFFFFFF0000FFFFFFFFF
FFFFFFFFF0000FFFFFFFFF
FFFFFFFFF0000FFFFFFFFF
FFFFFFFFF0000FFFFFFFFF
FFFFFFFFF0000FFFFFFFFF
FFFFFFFFF0000FFFFFFFFF
FFFFFFFFF0000FFFFFFFFF
FFFFFFFFF0000FFFFFFFFF
FFFFFFFFF0000FFFFFFFFF
FFFFFFFFF0000FFFFFFFFF
FFFFFFFFF0000FFFFFFFFF
FFFFFFFFF0000FFFFFFFFF
FFFFFFFFF0000FFFFFFFFF
FFFFFFFFF0000FFFFFFFFF
FFFFFFFFF0000FFFFFFFFF
FFFFFFFFF0000FFFFFFFFF
FFFFFFFFF0000FFFFFFFFF
FFFFFFFFF0000FFFFFFFFF
FFFFFFFFFFFFFFFFFFFFFF
FFFFFFFFFFFFFFFFFFFFFF
FFFFFFFFFFFFFFFFFFFFFF
FFFFFFFFFFFFFFFFFFFFFF
FFFFFFFFFFFFFFFFFFFFFF
FFFFFFFFFFFFFFFFFFFFFF
FFFFFFFFFFFFFFFFFFFFFF
FFFFFFFFFFFFFFFFFFFFFF
FFFFFFFFFFFFFFFFFFFFFF
FFFFFFFFFFFFFFFFFFFFFF
FFFFFFFFFFFFFFFFFFFFFF
FFFFFFFFFFFFFFFFFFFFFF
FFFFFFFFFFFFFFFFFFFFFF
FFFFFFFFFFFFFFFFFFFFFF
FFFFFFFFFFFFFFFFFFFFFF
FFFFFFFFFFFFFFFFFFFFFF
FFFFFFFFFFFFFFFFFFFFFF
FFFFFFFFFFFFFFFFFFFFFF
FFFFFFFFFFFFFFFFFFFFFF
FFFFFFFFFFFFFFFFFFFFFF
FFFFFFFFFFFFFFFFFFFFFF
FFFFFFFFFFFFFFFFFFFFFF
FFFFFFFFFFFFFFFFFFFFFF
FFFFFFFFFFFFFFFFFFFFFF
FFFFFFFFFFFFFFFFFFFFFF
FFFFFFFFFFFFFFFFFFFFFF
FFFFFFFFFFFFFFFFFFFFFF
FFFFFFFFFFFFFFFFFFFFFF
FFFFFFFFFFFFFFFFFFFFFF
FFFFFFFFFFFFFFFFFFFFFF
FFFFFFFFFFFFFFFFFFFFFF
FFFFFFFFFFFFFFFFFFFFFF
FFFFFFFFFFFFFFFFFFFFFF
FFFFFFFFFFFFFFFFFFFFFF
FFFFFFFFF0000FFFFFFFFF
FFFFFFFFF0000FFFFFFFFF
FFFFFFFFF0000FFFFFFFFF
FFFFFFFFF0000FFFFFFFFF
FFFFFFFFF0000FFFFFFFFF
FFFFFFFFF0000FFFFFFFFF
FFFFFFFFF0000FFFFFFFFF
FFFFFFFFF0000FFFFFFFFF
FFFFFFFFF0000FFFFFFFFF
FFFFFFFFF0000FFFFFFFFF
FFFFFFFFF0000FFFFFFFFF
FFFFFFFFF0000FFFFFFFFF
FFFFFFFFF0000FFFFFFFFF
FFFFFFFFF0000FFFFFFFFF
FFFFFFFFF0000FFFFFFFFF
FFFFFFFFF0000FFFFFFFFF
FFFFFFFFF0000FFFFFFFFF
FFFFFFFFF0000FFFFFFFFF
FFFFFFFFF0000FFFFFFFFF
FFFFFFFFF0000FFFFFFFFF
FFFFFFFFF0000FFFFFFFFF
FFFFFFFFF0000FFFFFFFFF
FFFFFFFFF0000FFFFFFFFF
FFFFFFFFF0000FFFFFFFFF
FFFFFFFFF0000FFFFFFFFF
FFFFFFFFF0000FFFFFFFFF
FFFFFFFFF0000FFFFFFFFF
FFFFFFFFF0000FFFFFFFFF
FFFFFFFFF0000FFFFFFFFF
FFFFFFFFF0000FFFFFFFFF
FFFFFFFFF0000FFFFFFFFF
FFFFFFFFF0000FFFFFFFFF
FFFFFFFFF0000FFFFFFFFF
FFFFFFFFF0000FFFFFFFFF
FFFFFFFFF0000FFFFFFFFF
FFFFFFFFF0000FFFFFFFFF
FFFFFFFFF0000FFFFFFFFF
FFFFFFFFF0000FFFFFFFFF
FFFFFFFFF0000FFFFFFFFF
FFFFFFFFF0000FFFFFFFFF
FFFFFFFFF0000FFFFFFFFF
FFFFFFFFF0000FFFFFFFFF
FFFFFFFFF0000FFFFFFFFF
FFFFFFFFF0000FFFFFFFFF
FFFFFFFFF0000FFFFFFFFF
FFFFFFFFF0000FFFFFFFFF
FFFFFFFFF0000FFFFFFFFF
FFFFFFFFF0000FFFFFFFFF
FFFFFFFFF0000FFFFFFFFF
FFFFFFFFF0000FFFFFFFFF
FFFFFFFFF0000FFFFFFFFF
FFFFFFFFF0000FFFFFFFFF
FFFFFFFFF0000FFFFFFFFF
FFFFFFFFF0000FFFFFFFFF
FFFFFFFFF0000FFFFFFFFF
FFFFFFFFF0000FFFFFFFFF
FFFFFFFFF0000FFFFFFFFF
FFFFFFFFF0000FFFFFFFFF
FFFFFFFFF0000FFFFFFFFF
FFFFFFFFF0000FFFFFFFFF
FFFFFFFFF0000FFFFFFFFF
FFFFFFFFF0000FFFFFFFFF
FFFFFFFFF0000FFFFFFFFF
FFFFFFFFF0000FFFFFFFFF
FFFFFFFFF0000FFFFFFFFF
FFFFFFFFF0000FFFFFFFFF
FFFFFFFFF0000FFFFFFFFF
FFFFFFFFF0000FFFFFFFFF
FFFFFFFFF0000FFFFFFFFF
FFFFFFFFF0000FFFFFFFFF
FFFFFFFFF0000FFFFFFFFF
FFFFFFFFF0000FFFFFFFFF
FFFFFFFFF0000FFFFFFFFF
FFFFFFFFF0000FFFFFFFFF
FFFFFFFFF0000FFFFFFFFF
FFFFFFFFF0000FFFFFFFFF
FFFFFFFFF0000FFFFFFFFF
FFFFFFFFF0000FFFFFFFFF
FFFFFFFFF0000FFFFFFFFF
FFFFFFFFF0000FFFFFFFFF
ENDCHAR
STARTCHAR I
ENCODING 73
SWIDTH 227 0
DWIDTH 48 0
BBX 34 178 6 0
BITMAP
FFFFFFFFC0
FFFFFFFFC0
FFFFFFFFC0
FFFFFFFFC0
FFFFFFFFC0
FFFFFFFFC0
FFFFFFFFC0
FFFFFFFFC0
FFFFFFFFC0
FFFFFFFFC0
FFFFFFFFC0
FFFFFFFFC0
FFFFFFFFC0
FFFFFFFFC0
FFFFFFFFC0
FFFFFFFFC0
FFFFFFFFC0
FFFFFFFFC0
FFFFFFFFC0
FFFFFFFFC0
FFFFFFFFC0
FFFFFFFFC0
FFFFFFFFC0
FFFFFFFFC0
FFFFFFFFC0
FFFFFFFFC0
FFFFFFFFC0
FFFFFFFFC0
FFFFFFFFC0
FFFFFFFFC0
FFFFFFFFC0
FFFFFFFFC0
FFFFFFFFC0
FFFFFFFFC0
FFFFFFFFC0
FFFFFFFFC0
FFFFFFFFC0
FFFFFFFFC0
FFFFFFFFC0
FFFFFFFFC0
FFFFFFFFC0
FFFFFFFFC0
FFFFFFFFC0
FFFFFFFFC0
FFFFFFFFC0
FFFFFFFFC0
FFFFFFFFC0
FFFFFFFFC0
FFFFFFFFC0
FFFFFFFFC0
FFFFFFFFC0
FFFFFFFFC0
FFFFFFFFC0
FFFFFFFFC0
FFFFFFFFC0
FFFFFFFFC0
FFFFFFFFC0
FFFFFFFFC0
FFFFFFFFC0
FFFFFFFFC0
FFFFFFFFC0
FFFFFFFFC0
FFFFFFFFC0
FFFFFFFFC0
FFFFFFFFC0
FFFFFFFFC0
FFFFFFFFC0
FFFFFFFFC0
FFFFFFFFC0
FFFFFFFFC0
FFFFFFFFC0
FFFFFFFFC0
FFFFFFFFC0
FFFFFFFFC0
FFFFFFFFC0
FFFFFFFFC0
FFFFFFFFC0
FFFFFFFFC0
FFFFFFFFC0
FFFFFFFFC0
FFFFFFFFC0
FFFFFFFFC0
FFFFFFFFC0
FFFFFFFFC0
FFFFFFFFC0
FFFFFFFFC0
FFFFFFFFC0
FFFFFFFFC0
FFFFFFFFC0
FFFFFFFFC0
FFFFFFFFC0
FFFFFFFFC0
FFFFFFFFC0
FFFFFFFFC0
FFFFFFFFC0
FFFFFFFFC0
FFFFFFFFC0
FFFFFFFFC0
FFFFFFFFC0
FFFFFFFFC0
FFFFFFFFC0
FFFFFFFFC0
FFFFFFFFC0
FFFFFFFFC0
FFFFFFFFC0
FFFFFFFFC0
FFFFFFFFC0
FFFFFFFFC0
FFFFFFFFC0
FFFFFFFFC0
FFFFFFFFC0
FFFFFFFFC0
FFFFFFFFC0
FFFFFFFFC0
FFFFFFFFC0
FFFFFFFFC0
FFFFFFFFC0
FFFFFFFFC0
FFFFFFFFC0
FFFFFFFFC0
FFFFFFFFC0
FFFFFFFFC0
FFFFFFFFC0
FFFFFFFFC0
FFFFFFFFC0
FFFFFFFFC0
FFFFFFFFC0
FFFFFFFFC0
FFFFFFFFC0
FFFFFFFFC0
FFFFFFFFC0
FFFFFFFFC0
FFFFFFFFC0
FFFFFFFFC0
FFFFFFFFC0
FFFFFFFFC0
FFFFFFFFC0
FFFFFFFFC0
FFFFFFFFC0
FFFFFFFFC0
FFFFFFFFC0
FFFFFFFFC0
FFFFFFFFC0
FFFFFFFFC0
FFFFFFFFC0
FFFFFFFFC0
FFFFFFFFC0
FFFFFFFFC0
FFFFFFFFC0
FFFFFFFFC0
FFFFFFFFC0
FFFFFFFFC0
FFFFFFFFC0
FFFFFFFFC0
FFFFFFFFC0
FFFFFFFFC0
FFFFFFFFC0
FFFFFFFFC0
FFFFFFFFC0
FFFFFFFFC0
FFFFFFFFC0
FFFFFFFFC0
FFFFFFFFC0
FFFFFFFFC0
FFFFFFFFC0
FFFFFFFFC0
FFFFFFFFC0
FFFFFFFFC0
FFFFFFFFC0
FFFFFFFFC0
FFFFFFFFC0
FFFFFFFFC0
FFFFFFFFC0
FFFFFFFFC0
FFFFFFFFC0
FFFFFFFFC0
FFFFFFFFC0
FFFFFFFFC0
ENDCHAR
STARTCHAR J
ENCODING 74
SWIDTH 466 0
DWIDTH 97 0
BBX 88 180 4 -2
BITMAP
0000000000000FFFFFFFFF
0000000000000FFFFFFFFF
0000000000000FFFFFFFFF
0000000000000FFFFFFFFF
0000000000000FFFFFFFFF
0000000000000FFFFFFFFF
0000000000000FFFFFFFFF
0000000000000FFFFFFFFF
0000000000000FFFFFFFFF
0000000000000FFFFFFFFF
0000000000000FFFFFFFFF
0000000000000FFFFFFFFF
0000000000000FFFFFFFFF
0000000000000FFFFFFFFF
0000000000000FFFFFFFFF
0000000000000FFFFFFFFF
0000000000000FFFFFFFFF
0000000000000FFFFFFFFF
0000000000000FFFFFFFFF
0000000000000FFFFFFFFF
0000000000000FFFFFFFFF
0000000000000FFFFFFFFF
0000000000000FFFFFFFFF
0000000000000FFFFFFFFF
0000000000000FFFFFFFFF
0000000000000FFFFFFFFF
0000000000000FFFFFFFFF
0000000000000FFFFFFFFF
0000000000000FFFFFFFFF
0000000000000FFFFFFFFF
0000000000000FFFFFFFFF
0000000000000FFFFFFFFF
0000000000000FFFFFFFFF
0000000000000FFFFFFFFF
0000000000000FFFFFFFFF
0000000000000FFFFFFFFF
0000000000000FFFFFFFFF
0000000000000FFFFFFFFF
0000000000000FFFFFFFFF
0000000000000FFFFFFFFF
0000000000000FFFFFFFFF
0000000000000FFFFFFFFF
0000000000000FFFFFFFFF
0000000000000FFFFFFFFF
0000000000000FFFFFFFFF
0000000000000FFFFFFFFF
0000000000000FFFFFFFFF
0000000000000FFFFFFFFF
0000000000000FFFFFFFFF
0000000000000FFFFFFFFF
0000000000000FFFFFFFFF
0000000000000FFFFFFFFF
0000000000000FFFFFFFFF
0000000000000FFFFFFFFF
0000000000000FFFFFFFFF
0000000000000FFFFFFFFF
0000000000000FFFFFFFFF
0000000000000FFFFFFFFF
0000000000000FFFFFFFFF
0000000000000FFFFFFFFF
0000000000000FFFFFFFFF
0000000000000FFFFFFFFF
0000000000000FFFFFFFFF
0000000000000FFFFFFFFF
0000000000000FFFFFFFFF
0000000000000FFFFFFFFF
0000000000000FFFFFFFFF
0000000000000FFFFFFFFF
0000000000000FFFFFFFFF
0000000000000FFFFFFFFF
0000000000000FFFFFFFFF
0000000000000FFFFFFFFF
0000000000000FFFFFFFFF
0000000000000FFFFFFFFF
0000000000000FFFFFFFFF
0000000000000FFFFFFFFF
0000000000000FFFFFFFFF
0000000000000FFFFFFFFF
0000000000000FFFFFFFFF
0000000000000FFFFFFFFF
0000000000000FFFFFFFFF
0000000000000FFFFFFFFF
0000000000000FFFFFFFFF
0000000000000FFFFFFFFF
0000000000000FFFFFFFFF
0000000000000FFFFFFFFF
0000000000000FFFFFFFFF
0000000000000FFFFFFFFF
0000000000000FFFFFFFFF
0000000000000FFFFFFFFF
0000000000000FFFFFFFFF
0000000000000FFFFFFFFF
0000000000000FFFFFFFFF
0000000000000FFFFFFFFF
FFFFFFFFF0000FFFFFFFFF
FFFFFFFFF0000FFFFFFFFF
FFFFFFFFF0000FFFFFFFFF
FFFFFFFFF0000FFFFFFFFF
FFFFFFFFF0000FFFFFFFFF
FFFFFFFFF0000FFFFFFFFF
FFFFFFFFF0000FFFFFFFFF
FFFFFFFFF0000FFFFFFFFF
FFFFFFFFF0000FFFFFFFFF
FFFFFFFFF0000FFFFFFFFF
FFFFFFFFF0000FFFFFFFFF
FFFFFFFFF0000FFFFFFFFF
FFFFFFFFF0000FFFFFFFFF
FFFFFFFFF0000FFFFFFFFF
FFFFFFFFF0000FFFFFFFFF
FFFFFFFFF0000FFFFFFFFF
FFFFFFFFF0000FFFFFFFFF
FFFFFFFFF0000FFFFFFFFF
FFFFFFFFF0000FFFFFFFFF
FFFFFFFFF0000FFFFFFFFF
FFFFFFFFF0000FFFFFFFFF
FFFFFFFFF0000FFFFFFFFF
FFFFFFFFF0000FFFFFFFFF
FFFFFFFFF0000FFFFFFFFF
FFFFFFFFF0000FFFFFFFFF
FFFFFFFFF0000FFFFFFFFF
FFFFFFFFF0000FFFFFFFFF
FFFFFFFFF0000FFFFFFFFF
FFFFFFFFF0000FFFFFFFFF
FFFFFFFFF0000FFFFFFFFF
FFFFFFFFF0000FFFFFFFFF
FFFFFFFFF0000FFFFFFFFF
FFFFFFFFF0000FFFFFFFFF
FFFFFFFFF0000FFFFFFFFF
FFFFFFFFF0000FFFFFFFFF
FFFFFFFFF0000FFFFFFFFF
FFFFFFFFF0000FFFFFFFFF
FFFFFFFFF0000FFFFFFFFF
FFFFFFFFF0000FFFFFFFFF
FFFFFFFFF0000FFFFFFFFF
FFFFFFFFF0000FFFFFFFFF
FFFFFFFFF0000FFFFFFFFF
FFFFFFFFF0000FFFFFFFFF
FFFFFFFFF0000FFFFFFFFF
FFFFFFFFF0000FFFFFFFFC
FFFFFFFFF0000FFFFFFFFC
FFFFFFFFF0003FFFFFFFFC
FFFFFFFFF0003FFFFFFFFC
FFFFFFFFF0003FFFFFFFFC
FFFFFFFFF0003FFFFFFFFC
FFFFFFFFF0003FFFFFFFFC
FFFFFFFFF0003FFFFFFFFC
FFFFFFFFFF00FFFFFFFFFC
FFFFFFFFFF00FFFFFFFFFC
FFFFFFFFFFFFFFFFFFFFFC
FFFFFFFFFFFFFFFFFFFFFC
3FFFFFFFFFFFFFFFFFFFF0
3FFFFFFFFFFFFFFFFFFFF0
3FFFFFFFFFFFFFFFFFFFF0
3FFFFFFFFFFFFFFFFFFFF0
3FFFFFFFFFFFFFFFFFFFF0
3FFFFFFFFFFFFFFFFFFFF0
0FFFFFFFFFFFFFFFFFFFC0
0FFFFFFFFFFFFFFFFFFFC0
0FFFFFFFFFFFFFFFFFFFC0
0FFFFFFFFFFFFFFFFFFFC0
03FFFFFFFFFFFFFFFFFF00
03FFFFFFFFFFFFFFFFFF00
03FFFFFFFFFFFFFFFFFC00
03FFFFFFFFFFFFFFFFFC00
00FFFFFFFFFFFFFFFFFC00
00FFFFFFFFFFFFFFFFFC00
003FFFFFFFFFFFFFFFF000
003FFFFFFFFFFFFFFFF000
000FFFFFFFFFFFFFFFC000
000FFFFFFFFFFFFFFFC000
0003FFFFFFFFFFFFFF0000
0003FFFFFFFFFFFFFF0000
00003FFFFFFFFFFFF00000
00003FFFFFFFFFFFF00000
00000FFFFFFFFFFF000000
00000FFFFFFFFFFF000000
0000003FFFFFFFF0000000
0000003FFFFFFFF0000000
000000003FFFFC00000000
000000003FFFFC00000000
ENDCHAR
STARTCHAR K
ENCODING 75
SWIDTH 472 0
DWIDTH 99 0
BBX 92 178 8 0
BITMAP
FFFFFFFFF0000FFFFFFFFF00
FFFFFFFFF0000FFFFFFFFF00
FFFFFFFFF0000FFFFFFFFF00
FFFFFFFFF0000FFFFFFFFF00
FFFFFFFFF0003FFFFFFFFC00
FFFFFFFFF0003FFFFFFFFC00
FFFFFFFFF0003FFFFFFFFC00
FFFFFFFFF0003FFFFFFFFC00
FFFFFFFFF0003FFFFFFFFC00
FFFFFFFFF0003FFFFFFFFC00
FFFFFFFFF0003FFFFFFFFC00
FFFFFFFFF0003FFFFFFFFC00
FFFFFFFFF000FFFFFFFFF000
FFFFFFFFF000FFFFFFFFF000
FFFFFFFFF000FFFFFFFFF000
FFFFFFFFF000FFFFFFFFF000
FFFFFFFFF000FFFFFFFFF000
FFFFFFFFF000FFFFFFFFF000
FFFFFFFFF000FFFFFFFFF000
FFFFFFFFF000FFFFFFFFF000
FFFFFFFFF000FFFFFFFFC000
FFFFFFFFF000FFFFFFFFC000
FFFFFFFFF003FFFFFFFFC000
FFFFFFFFF003FFFFFFFFC000
FFFFFFFFF003FFFFFFFFC000
FFFFFFFFF003FFFFFFFFC000
FFFFFFFFF003FFFFFFFFC000
FFFFFFFFF003FFFFFFFFC000
FFFFFFFFF003FFFFFFFF0000
FFFFFFFFF003FFFFFFFF0000
FFFFFFFFF00FFFFFFFFF0000
FFFFFFFFF00FFFFFFFFF0000
FFFFFFFFF00FFFFFFFFF0000
FFFFFFFFF00FFFFFFFFF0000
FFFFFFFFF00FFFFFFFFF0000
FFFFFFFFF00FFFFFFFFF0000
FFFFFFFFF00FFFFFFFFC0000
FFFFFFFFF00FFFFFFFFC0000
FFFFFFFFF03FFFFFFFFC0000
FFFFFFFFF03FFFFFFFFC0000
FFFFFFFFF03FFFFFFFFC0000
FFFFFFFFF03FFFFFFFFC0000
FFFFFFFFF03FFFFFFFFC0000
FFFFFFFFF03FFFFFFFFC0000
FFFFFFFFF03FFFFFFFFC0000
FFFFFFFFF03FFFFFFFFC0000
FFFFFFFFF03FFFFFFFF00000
FFFFFFFFF03FFFFFFFF00000
FFFFFFFFF0FFFFFFFFF00000
FFFFFFFFF0FFFFFFFFF00000
FFFFFFFFF0FFFFFFFFF00000
FFFFFFFFF0FFFFFFFFF00000
FFFFFFFFF0FFFFFFFFF00000
FFFFFFFFF0FFFFFFFFF00000
FFFFFFFFF0FFFFFFFFC00000
FFFFFFFFF0FFFFFFFFC00000
FFFFFFFFF3FFFFFFFFC00000
FFFFFFFFF3FFFFFFFFC00000
FFFFFFFFF3FFFFFFFFC00000
FFFFFFFFF3FFFFFFFFC00000
FFFFFFFFF3FFFFFFFFC00000
FFFFFFFFF3FFFFFFFFC00000
FFFFFFFFF3FFFFFFFF000000
FFFFFFFFF3FFFFFFFF000000
FFFFFFFFFFFFFFFFFF000000
FFFFFFFFFFFFFFFFFF000000
FFFFFFFFFFFFFFFFFF000000
FFFFFFFFFFFFFFFFFF000000
FFFFFFFFFFFFFFFFFF000000
FFFFFFFFFFFFFFFFFF000000
FFFFFFFFFFFFFFFFFC000000
FFFFFFFFFFFFFFFFFC000000
FFFFFFFFFFFFFFFFFC000000
FFFFFFFFFFFFFFFFFC000000
FFFFFFFFFFFFFFFFFC000000
FFFFFFFFFFFFFFFFFC000000
FFFFFFFFFFFFFFFFFC000000
FFFFFFFFFFFFFFFFFC000000
FFFFFFFFFFFFFFFFF0000000
FFFFFFFFFFFFFFFFF0000000
FFFFFFFFFFFFFFFFF0000000
FFFFFFFFFFFFFFFFF0000000
FFFFFFFFFFFFFFFFF0000000
FFFFFFFFFFFFFFFFF0000000
FFFFFFFFFFFFFFFFF0000000
FFFFFFFFFFFFFFFFF0000000
FFFFFFFFFFFFFFFFFC000000
FFFFFFFFFFFFFFFFFC000000
FFFFFFFFFFFFFFFFFC000000
FFFFFFFFFFFFFFFFFC000000
FFFFFFFFFFFFFFFFFC000000
FFFFFFFFFFFFFFFFFC000000
FFFFFFFFFFFFFFFFFC000000
FFFFFFFFFFFFFFFFFC000000
FFFFFFFFFFFFFFFFFF000000
FFFFFFFFFFFFFFFFFF000000
FFFFFFFFFFFFFFFFFF000000
FFFFFFFFFFFFFFFFFF000000
FFFFFFFFFFFFFFFFFF000000
FFFFFFFFFFFFFFFFFF000000
FFFFFFFFF3FFFFFFFF000000
FFFFFFFFF3FFFFFFFF000000
FFFFFFFFF3FFFFFFFFC00000
FFFFFFFFF3FFFFFFFFC00000
FFFFFFFFF3FFFFFFFFC00000
FFFFFFFFF3FFFFFFFFC00000
FFFFFFFFF3FFFFFFFFC00000
FFFFFFFFF3FFFFFFFFC00000
FFFFFFFFF0FFFFFFFFC00000
FFFFFFFFF0FFFFFFFFC00000
FFFFFFFFF0FFFFFFFFF00000
FFFFFFFFF0FFFFFFFFF00000
FFFFFFFFF0FFFFFFFFF00000
FFFFFFFFF0FFFFFFFFF00000
FFFFFFFFF0FFFFFFFFF00000
FFFFFFFFF0FFFFFFFFF00000
FFFFFFFFF03FFFFFFFF00000
FFFFFFFFF03FFFFFFFF00000
FFFFFFFFF03FFFFFFFFC0000
FFFFFFFFF03FFFFFFFFC0000
FFFFFFFFF03FFFFFFFFC0000
FFFFFFFFF03FFFFFFFFC0000
FFFFFFFFF03FFFFFFFFC0000
FFFFFFFFF03FFFFFFFFC0000
FFFFFFFFF03FFFFFFFFC0000
FFFFFFFFF03FFFFFFFFC0000
FFFFFFFFF00FFFFFFFFF0000
FFFFFFFFF00FFFFFFFFF0000
FFFFFFFFF00FFFFFFFFF0000
FFFFFFFFF00FFFFFFFFF0000
FFFFFFFFF00FFFFFFFFF0000
FFFFFFFFF00FFFFFFFFF0000
FFFFFFFFF00FFFFFFFFF0000
FFFFFFFFF00FFFFFFFFF0000
FFFFFFFFF003FFFFFFFFC000
FFFFFFFFF003FFFFFFFFC000
FFFFFFFFF003FFFFFFFFC000
FFFFFFFFF003FFFFFFFFC000
FFFFFFFFF003FFFFFFFFC000
FFFFFFFFF003FFFFFFFFC000
FFFFFFFFF003FFFFFFFFC000
FFFFFFFFF003FFFFFFFFC000
FFFFFFFFF000FFFFFFFFF000
FFFFFFFFF000FFFFFFFFF000
FFFFFFFFF000FFFFFFFFF000
FFFFFFFFF000FFFFFFFFF000
FFFFFFFFF000FFFFFFFFF000
FFFFFFFFF000FFFFFFFFF000
FFFFFFFFF000FFFFFFFFF000
FFFFFFFFF000FFFFFFFFF000
FFFFFFFFF000FFFFFFFFFC00
FFFFFFFFF000FFFFFFFFFC00
FFFFFFFFF0003FFFFFFFFC00
FFFFFFFFF0003FFFFFFFFC00
FFFFFFFFF0003FFFFFFFFC00
FFFFFFFFF0003FFFFFFFFC00
FFFFFFFFF0003FFFFFFFFC00
FFFFFFFFF0003FFFFFFFFC00
FFFFFFFFF0003FFFFFFFFF00
FFFFFFFFF0003FFFFFFFFF00
FFFFFFFFF0000FFFFFFFFF00
FFFFFFFFF0000FFFFFFFFF00
FFFFFFFFF0000FFFFFFFFF00
FFFFFFFFF0000FFFFFFFFF00
FFFFFFFFF0000FFFFFFFFF00
FFFFFFFFF0000FFFFFFFFF00
FFFFFFFFF0000FFFFFFFFFC0
FFFFFFFFF0000FFFFFFFFFC0
FFFFFFFFF0000FFFFFFFFFC0
FFFFFFFFF0000FFFFFFFFFC0
FFFFFFFFF00003FFFFFFFFC0
FFFFFFFFF00003FFFFFFFFC0
FFFFFFFFF00003FFFFFFFFC0
FFFFFFFFF00003FFFFFFFFC0
FFFFFFFFF00003FFFFFFFFF0
FFFFFFFFF00003FFFFFFFFF0
FFFFFFFFF00003FFFFFFFFF0
FFFFFFFFF00003FFFFFFFFF0
ENDCHAR
STARTCHAR L
ENCODING 76
SWIDTH 397 0
DWIDTH 83 0
BBX 72 178 8 0
BITMAP
FFFFFFFFF000000000
FFFFFFFFF000000000
FFFFFFFFF000000000
FFFFFFFFF000000000
FFFFFFFFF000000000
FFFFFFFFF000000000
FFFFFFFFF000000000
FFFFFFFFF000000000
FFFFFFFFF000000000
FFFFFFFFF000000000
FFFFFFFFF000000000
FFFFFFFFF000000000
FFFFFFFFF000000000
FFFFFFFFF000000000
FFFFFFFFF000000000
FFFFFFFFF000000000
FFFFFFFFF000000000
FFFFFFFFF000000000
FFFFFFFFF000000000
FFFFFFFFF000000000
FFFFFFFFF000000000
FFFFFFFFF000000000
FFFFFFFFF000000000
FFFFFFFFF000000000
FFFFFFFFF000000000
FFFFFFFFF000000000
FFFFFFFFF000000000
FFFFFFFFF000000000
FFFFFFFFF000000000
FFFFFFFFF000000000
FFFFFFFFF000000000
FFFFFFFFF000000000
FFFFFFFFF000000000
FFFFFFFFF000000000
FFFFFFFFF000000000
FFFFFFFFF000000000
FFFFFFFFF000000000
FFFFFFFFF000000000
FFFFFFFFF000000000
FFFFFFFFF000000000
FFFFFFFFF000000000
FFFFFFFFF000000000
FFFFFFFFF000000000
FFFFFFFFF000000000
FFFFFFFFF000000000
FFFFFFFFF000000000
FFFFFFFFF000000000
FFFFFFFFF000000000
FFFFFFFFF000000000
FFFFFFFFF000000000
FFFFFFFFF000000000
FFFFFFFFF000000000
FFFFFFFFF000000000
FFFFFFFFF000000000
FFFFFFFFF000000000
FFFFFFFFF000000000
FFFFFFFFF000000000
FFFFFFFFF000000000
FFFFFFFFF000000000
FFFFFFFFF000000000
FFFFFFFFF000000000
FFFFFFFFF000000000
FFFFFFFFF000000000
FFFFFFFFF000000000
FFFFFFFFF000000000
FFFFFFFFF000000000
FFFFFFFFF000000000
FFFFFFFFF000000000
FFFFFFFFF000000000
FFFFFFFFF000000000
FFFFFFFFF000000000
FFFFFFFFF000000000
FFFFFFFFF000000000
FFFFFFFFF000000000
FFFFFFFFF000000000
FFFFFFFFF000000000
FFFFFFFFF000000000
FFFFFFFFF000000000
FFFFFFFFF000000000
FFFFFFFFF000000000
FFFFFFFFF000000000
FFFFFFFFF000000000
FFFFFFFFF000000000
FFFFFFFFF000000000
FFFFFFFFF000000000
FFFFFFFFF000000000
FFFFFFFFF000000000
FFFFFFFFF000000000
FFFFFFFFF000000000
FFFFFFFFF000000000
FFFFFFFFF000000000
FFFFFFFFF000000000
FFFFFFFFF000000000
FFFFFFFFF000000000
FFFFFFFFF000000000
FFFFFFFFF000000000
FFFFFFFFF000000000
FFFFFFFFF000000000
FFFFFFFFF000000000
FFFFFFFFF000000000
FFFFFFFFF000000000
FFFFFFFFF000000000
FFFFFFFFF000000000
FFFFFFFFF000000000
FFFFFFFFF000000000
FFFFFFFFF000000000
FFFFFFFFF000000000
FFFFFFFFF000000000
FFFFFFFFF000000000
FFFFFFFFF000000000
FFFFFFFFF000000000
FFFFFFFFF000000000
FFFFFFFFF000000000
FFFFFFFFF000000000
FFFFFFFFF000000000
FFFFFFFFF000000000
FFFFFFFFF000000000
FFFFFFFFF000000000
FFFFFFFFF000000000
FFFFFFFFF000000000
FFFFFFFFF000000000
FFFFFFFFF000000000
FFFFFFFFF000000000
FFFFFFFFF000000000
FFFFFFFFF000000000
FFFFFFFFF000000000
FFFFFFFFF000000000
FFFFFFFFF000000000
FFFFFFFFF000000000
FFFFFFFFF000000000
FFFFFFFFF000000000
FFFFFFFFF000000000
FFFFFFFFF000000000
FFFFFFFFF000000000
FFFFFFFFF000000000
FFFFFFFFF000000000
FFFFFFFFF000000000
FFFFFFFFF000000000
FFFFFFFFF000000000
FFFFFFFFF000000000
FFFFFFFFF000000000
FFFFFFFFF000000000
FFFFFFFFF000000000
FFFFFFFFF000000000
FFFFFFFFF000000000
FFFFFFFFF000000000
FFFFFFFFF000000000
FFFFFFFFF000000000
FFFFFFFFFFFFFFFFFF
FFFFFFFFFFFFFFFFFF
FFFFFFFFFFFFFFFFFF
FFFFFFFFFFFFFFFFFF
FFFFFFFFFFFFFFFFFF
FFFFFFFFFFFFFFFFFF
FFFFFFFFFFFFFFFFFF
FFFFFFFFFFFFFFFFFF
FFFFFFFFFFFFFFFFFF
FFFFFFFFFFFFFFFFFF
FFFFFFFFFFFFFFFFFF
FFFFFFFFFFFFFFFFFF
FFFFFFFFFFFFFFFFFF
FFFFFFFFFFFFFFFFFF
FFFFFFFFFFFFFFFFFF
FFFFFFFFFFFFFFFFFF
FFFFFFFFFFFFFFFFFF
FFFFFFFFFFFFFFFFFF
FFFFFFFFFFFFFFFFFF
FFFFFFFFFFFFFFFFFF
FFFFFFFFFFFFFFFFFF
FFFFFFFFFFFFFFFFFF
FFFFFFFFFFFFFFFFFF
FFFFFFFFFFFFFFFFFF
FFFFFFFFFFFFFFFFFF
FFFFFFFFFFFFFFFFFF
FFFFFFFFFFFFFFFFFF
FFFFFFFFFFFFFFFFFF
FFFFFFFFFFFFFFFFFF
FFFFFFFFFFFFFFFFFF
ENDCHAR
STARTCHAR M
ENCODING 77
SWIDTH 746 0
DWIDTH 156 0
BBX 140 178 8 0
BITMAP
FFFFFFFFFFFFFC0000000FFFFFFFFFFFFFF0
FFFFFFFFFFFFFC0000000FFFFFFFFFFFFFF0
FFFFFFFFFFFFFC0000000FFFFFFFFFFFFFF0
FFFFFFFFFFFFFC0000000FFFFFFFFFFFFFF0
FFFFFFFFFFFFFF0000000FFFFFFFFFFFFFF0
FFFFFFFFFFFFFF0000000FFFFFFFFFFFFFF0
FFFFFFFFFFFFFF0000000FFFFFFFFFFFFFF0
FFFFFFFFFFFFFF0000000FFFFFFFFFFFFFF0
FFFFFFFFFFFFFF0000000FFFFFFFFFFFFFF0
FFFFFFFFFFFFFF0000000FFFFFFFFFFFFFF0
FFFFFFFFFFFFFF0000003FFFFFFFFFFFFFF0
FFFFFFFFFFFFFF0000003FFFFFFFFFFFFFF0
FFFFFFFFFFFFFF0000003FFFFFFFFFFFFFF0
FFFFFFFFFFFFFF0000003FFFFFFFFFFFFFF0
FFFFFFFFFFFFFF0000003FFFFFFFFFFFFFF0
FFFFFFFFFFFFFF0000003FFFFFFFFFFFFFF0
FFFFFFFFFFFFFF0000003FFFFFFFFFFFFFF0
FFFFFFFFFFFFFF0000003FFFFFFFFFFFFFF0
FFFFFFFFFFFFFF0000003FFFFFFFFFFFFFF0
FFFFFFFFFFFFFF0000003FFFFFFFFFFFFFF0
FFFFFFFFFFFFFFC000003FFFFFFFFFFFFFF0
FFFFFFFFFFFFFFC000003FFFFFFFFFFFFFF0
FFFFFFFFFFFFFFC000003FFFFFFFFFFFFFF0
FFFFFFFFFFFFFFC000003FFFFFFFFFFFFFF0
FFFFFFFFFFFFFFC00000FFFFFFFFFFFFFFF0
FFFFFFFFFFFFFFC00000FFFFFFFFFFFFFFF0
FFFFFFFFFFFFFFC00000FFFFFFFFFFFFFFF0
FFFFFFFFFFFFFFC00000FFFFFFFFFFFFFFF0
FFFFFFFFFFFFFFC00000FFFFFFFFFFFFFFF0
FFFFFFFFFFFFFFC00000FFFFFFFFFFFFFFF0
FFFFFFFFFFFFFFC00000FFFFFFFFFFFFFFF0
FFFFFFFFFFFFFFC00000FFFFFFFFFFFFFFF0
FFFFFFFFFFFFFFC00000FFFFFFFFFFFFFFF0
FFFFFFFFFFFFFFC00000FFFFFFFFFFFFFFF0
FFFFFFFFFFFFFFF00000FFFFFFFFFFFFFFF0
FFFFFFFFFFFFFFF00000FFFFFFFFFFFFFFF0
FFFFFFFFFFFFFFF00000FFFFFFFFFFFFFFF0
FFFFFFFFFFFFFFF00000FFFFFFFFFFFFFFF0
FFFFFFFFFFFFFFF00003FFFFFFFFFFFFFFF0
FFFFFFFFFFFFFFF00003FFFFFFFFFFFFFFF0
FFFFFFFFFFFFFFF00003FFFFFFFFFFFFFFF0
FFFFFFFFFFFFFFF00003FFFFFFFFFFFFFFF0
FFFFFFFFFFFFFFF00003FFFFFFFFFFFFFFF0
FFFFFFFFFFFFFFF00003FFFFFFFFFFFFFFF0
FFFFFFFFFFFFFFF00003FFFFFFFFFFFFFFF0
FFFFFFFFFFFFFFF00003FFFFFFFFFFFFFFF0
FFFFFFFFFFFFFFF00003FFFFFFFFFFFFFFF0
FFFFFFFFFFFFFFF00003FFFFFFFFFFFFFFF0
FFFFFFFFFFFFFFFC0003FFFFFFFFFFFFFFF0
FFFFFFFFFFFFFFFC0003FFFFFFFFFFFFFFF0
FFFFFFFFFFFFFFFC0003FFFFFFFFFFFFFFF0
FFFFFFFFFFFFFFFC0003FFFFFFFFFFFFFFF0
FFFFFFFFFFFFFFFC0003FFFFFFFFFFFFFFF0
FFFFFFFFFFFFFFFC0003FFFFFFFFFFFFFFF0
FFFFFFFFFFFFFFFC000FFFFFFFFFFFFFFFF0
FFFFFFFFFFFFFFFC000FFFFFFFFFFFFFFFF0
FFFFFFFF3FFFFFFC000FFFFFFFFFFFFFFFF0
FFFFFFFF3FFFFFFC000FFFFFFFFFFFFFFFF0
FFFFFFFF3FFFFFFC000FFFFFFFFFFFFFFFF0
FFFFFFFF3FFFFFFC000FFFFFFFFFFFFFFFF0
FFFFFFFF3FFFFFFC000FFFFFFFFFFFFFFFF0
FFFFFFFF3FFFFFFC000FFFFFFFFFFFFFFFF0
FFFFFFFF3FFFFFFF000FFFFFFF3FFFFFFFF0
FFFFFFFF3FFFFFFF000FFFFFFF3FFFFFFFF0
FFFFFFFF3FFFFFFF000FFFFFFF3FFFFFFFF0
FFFFFFFF3FFFFFFF000FFFFFFF3FFFFFFFF0
FFFFFFFF3FFFFFFF000FFFFFFF3FFFFFFFF0
FFFFFFFF3FFFFFFF000FFFFFFF3FFFFFFFF0
FFFFFFFF0FFFFFFF003FFFFFFF3FFFFFFFF0
FFFFFFFF0FFFFFFF003FFFFFFF3FFFFFFFF0
FFFFFFFF0FFFFFFF003FFFFFFF3FFFFFFFF0
FFFFFFFF0FFFFFFF003FFFFFFF3FFFFFFFF0
FFFFFFFF0FFFFFFF003FFFFFFF3FFFFFFFF0
FFFFFFFF0FFFFFFF003FFFFFFF3FFFFFFFF0
FFFFFFFF0FFFFFFF003FFFFFFC3FFFFFFFF0
FFFFFFFF0FFFFFFF003FFFFFFC3FFFFFFFF0
FFFFFFFF0FFFFFFF003FFFFFFC3FFFFFFFF0
FFFFFFFF0FFFFFFF003FFFFFFC3FFFFFFFF0
FFFFFFFF0FFFFFFFC03FFFFFFC3FFFFFFFF0
FFFFFFFF0FFFFFFFC03FFFFFFC3FFFFFFFF0
FFFFFFFF03FFFFFFC03FFFFFFC3FFFFFFFF0
FFFFFFFF03FFFFFFC03FFFFFFC3FFFFFFFF0
FFFFFFFF03FFFFFFC0FFFFFFFC3FFFFFFFF0
FFFFFFFF03FFFFFFC0FFFFFFFC3FFFFFFFF0
FFFFFFFF03FFFFFFC0FFFFFFFC3FFFFFFFF0
FFFFFFFF03FFFFFFC0FFFFFFFC3FFFFFFFF0
FFFFFFFF03FFFFFFC0FFFFFFF03FFFFFFFF0
FFFFFFFF03FFFFFFC0FFFFFFF03FFFFFFFF0
FFFFFFFF03FFFFFFC0FFFFFFF03FFFFFFFF0
FFFFFFFF03FFFFFFC0FFFFFFF03FFFFFFFF0
FFFFFFFF03FFFFFFC0FFFFFFF03FFFFFFFF0
FFFFFFFF03FFFFFFC0FFFFFFF03FFFFFFFF0
FFFFFFFF00FFFFFFF0FFFFFFF03FFFFFFFF0
FFFFFFFF00FFFFFFF0FFFFFFF03FFFFFFFF0
FFFFFFFF00FFFFFFF0FFFFFFF03FFFFFFFF0
FFFFFFFF00FFFFFFF0FFFFFFF03FFFFFFFF0
FFFFFFFF00FFFFFFF0FFFFFFF03FFFFFFFF0
FFFFFFFF00FFFFFFF0FFFFFFF03FFFFFFFF0
FFFFFFFF00FFFFFFF3FFFFFFC03FFFFFFFF0
FFFFFFFF00FFFFFFF3FFFFFFC03FFFFFFFF0
FFFFFFFF00FFFFFFF3FFFFFFC03FFFFFFFF0
FFFFFFFF00FFFFFFF3FFFFFFC03FFFFFFFF0
FFFFFFFF003FFFFFF3FFFFFFC03FFFFFFFF0
FFFFFFFF003FFFFFF3FFFFFFC03FFFFFFFF0
FFFFFFFF003FFFFFF3FFFFFFC03FFFFFFFF0
FFFFFFFF003FFFFFF3FFFFFFC03FFFFFFFF0
FFFFFFFF003FFFFFFFFFFFFFC03FFFFFFFF0
FFFFFFFF003FFFFFFFFFFFFFC03FFFFFFFF0
FFFFFFFF003FFFFFFFFFFFFFC03FFFFFFFF0
FFFFFFFF003FFFFFFFFFFFFFC03FFFFFFFF0
FFFFFFFF003FFFFFFFFFFFFF003FFFFFFFF0
FFFFFFFF003FFFFFFFFFFFFF003FFFFFFFF0
FFFFFFFF003FFFFFFFFFFFFF003FFFFFFFF0
FFFFFFFF003FFFFFFFFFFFFF003FFFFFFFF0
FFFFFFFF000FFFFFFFFFFFFF003FFFFFFFF0
FFFFFFFF000FFFFFFFFFFFFF003FFFFFFFF0
FFFFFFFF000FFFFFFFFFFFFF003FFFFFFFF0
FFFFFFFF000FFFFFFFFFFFFF003FFFFFFFF0
FFFFFFFF000FFFFFFFFFFFFF003FFFFFFFF0
FFFFFFFF000FFFFFFFFFFFFF003FFFFFFFF0
FFFFFFFF000FFFFFFFFFFFFF003FFFFFFFF0
FFFFFFFF000FFFFFFFFFFFFF003FFFFFFFF0
FFFFFFFF000FFFFFFFFFFFFC003FFFFFFFF0
FFFFFFFF000FFFFFFFFFFFFC003FFFFFFFF0
FFFFFFFF000FFFFFFFFFFFFC003FFFFFFFF0
FFFFFFFF000FFFFFFFFFFFFC003FFFFFFFF0
FFFFFFFF0003FFFFFFFFFFFC003FFFFFFFF0
FFFFFFFF0003FFFFFFFFFFFC003FFFFFFFF0
FFFFFFFF0003FFFFFFFFFFFC003FFFFFFFF0
FFFFFFFF0003FFFFFFFFFFFC003FFFFFFFF0
FFFFFFFF0003FFFFFFFFFFFC003FFFFFFFF0
FFFFFFFF0003FFFFFFFFFFFC003FFFFFFFF0
FFFFFFFF0003FFFFFFFFFFFC003FFFFFFFF0
FFFFFFFF0003FFFFFFFFFFFC003FFFFFFFF0
FFFFFFFF0003FFFFFFFFFFFC003FFFFFFFF0
FFFFFFFF0003FFFFFFFFFFFC003FFFFFFFF0
FFFFFFFF0003FFFFFFFFFFF0003FFFFFFFF0
FFFFFFFF0003FFFFFFFFFFF0003FFFFFFFF0
FFFFFFFF0000FFFFFFFFFFF0003FFFFFFFF0
FFFFFFFF0000FFFFFFFFFFF0003FFFFFFFF0
FFFFFFFF0000FFFFFFFFFFF0003FFFFFFFF0
FFFFFFFF0000FFFFFFFFFFF0003FFFFFFFF0
FFFFFFFF0000FFFFFFFFFFF0003FFFFFFFF0
FFFFFFFF0000FFFFFFFFFFF0003FFFFFFFF0
FFFFFFFF0000FFFFFFFFFFF0003FFFFFFFF0
FFFFFFFF0000FFFFFFFFFFF0003FFFFFFFF0
FFFFFFFF0000FFFFFFFFFFF0003FFFFFFFF0
FFFFFFFF0000FFFFFFFFFFF0003FFFFFFFF0
FFFFFFFF0000FFFFFFFFFFC0003FFFFFFFF0
FFFFFFFF0000FFFFFFFFFFC0003FFFFFFFF0
FFFFFFFF00003FFFFFFFFFC0003FFFFFFFF0
FFFFFFFF00003FFFFFFFFFC0003FFFFFFFF0
FFFFFFFF00003FFFFFFFFFC0003FFFFFFFF0
FFFFFFFF00003FFFFFFFFFC0003FFFFFFFF0
FFFFFFFF00003FFFFFFFFFC0003FFFFFFFF0
FFFFFFFF00003FFFFFFFFFC0003FFFFFFFF0
FFFFFFFF00003FFFFFFFFFC0003FFFFFFFF0
FFFFFFFF00003FFFFFFFFFC0003FFFFFFFF0
FFFFFFFF00003FFFFFFFFFC0003FFFFFFFF0
FFFFFFFF00003FFFFFFFFFC0003FFFFFFFF0
FFFFFFFF00000FFFFFFFFF00003FFFFFFFF0
FFFFFFFF00000FFFFFFFFF00003FFFFFFFF0
FFFFFFFF00000FFFFFFFFF00003FFFFFFFF0
FFFFFFFF00000FFFFFFFFF00003FFFFFFFF0
FFFFFFFF00000FFFFFFFFF00003FFFFFFFF0
FFFFFFFF00000FFFFFFFFF00003FFFFFFFF0
FFFFFFFF00000FFFFFFFFF00003FFFFFFFF0
FFFFFFFF00000FFFFFFFFF00003FFFFFFFF0
FFFFFFFF00000FFFFFFFFF00003FFFFFFFF0
FFFFFFFF00000FFFFFFFFF00003FFFFFFFF0
FFFFFFFF00000FFFFFFFFF00003FFFFFFFF0
FFFFFFFF00000FFFFFFFFF00003FFFFFFFF0
FFFFFFFF000003FFFFFFFC00003FFFFFFFF0
FFFFFFFF000003FFFFFFFC00003FFFFFFFF0
FFFFFFFF000003FFFFFFFC00003FFFFFFFF0
FFFFFFFF000003FFFFFFFC00003FFFFFFFF0
FFFFFFFF000003FFFFFFFC00003FFFFFFFF0
FFFFFFFF000003FFFFFFFC00003FFFFFFFF0
ENDCHAR
STARTCHAR N
ENCODING 78
SWIDTH 498 0
DWIDTH 104 0
BBX 88 178 8 0
BITMAP
FFFFFFFFF00003FFFFFFFF
FFFFFFFFF00003FFFFFFFF
FFFFFFFFFC0003FFFFFFFF
FFFFFFFFFC0003FFFFFFFF
FFFFFFFFFC0003FFFFFFFF
FFFFFFFFFC0003FFFFFFFF
FFFFFFFFFC0003FFFFFFFF
FFFFFFFFFC0003FFFFFFFF
FFFFFFFFFC0003FFFFFFFF
FFFFFFFFFC0003FFFFFFFF
FFFFFFFFFC0003FFFFFFFF
FFFFFFFFFC0003FFFFFFFF
FFFFFFFFFF0003FFFFFFFF
FFFFFFFFFF0003FFFFFFFF
FFFFFFFFFF0003FFFFFFFF
FFFFFFFFFF0003FFFFFFFF
FFFFFFFFFF0003FFFFFFFF
FFFFFFFFFF0003FFFFFFFF
FFFFFFFFFF0003FFFFFFFF
FFFFFFFFFF0003FFFFFFFF
FFFFFFFFFF0003FFFFFFFF
FFFFFFFFFF0003FFFFFFFF
FFFFFFFFFFC003FFFFFFFF
FFFFFFFFFFC003FFFFFFFF
FFFFFFFFFFC003FFFFFFFF
FFFFFFFFFFC003FFFFFFFF
FFFFFFFFFFC003FFFFFFFF
FFFFFFFFFFC003FFFFFFFF
FFFFFFFFFFC003FFFFFFFF
FFFFFFFFFFC003FFFFFFFF
FFFFFFFFFFC003FFFFFFFF
FFFFFFFFFFC003FFFFFFFF
FFFFFFFFFFF003FFFFFFFF
FFFFFFFFFFF003FFFFFFFF
FFFFFFFFFFF003FFFFFFFF
FFFFFFFFFFF003FFFFFFFF
FFFFFFFFFFF003FFFFFFFF
FFFFFFFFFFF003FFFFFFFF
FFFFFFFFFFF003FFFFFFFF
FFFFFFFFFFF003FFFFFFFF
FFFFFFFFFFF003FFFFFFFF
FFFFFFFFFFF003FFFFFFFF
FFFFFFFFFFF003FFFFFFFF
FFFFFFFFFFF003FFFFFFFF
FFFFFFFFFFFC03FFFFFFFF
FFFFFFFFFFFC03FFFFFFFF
FFFFFFFFFFFC03FFFFFFFF
FFFFFFFFFFFC03FFFFFFFF
FFFFFFFFFFFC03FFFFFFFF
FFFFFFFFFFFC03FFFFFFFF
FFFFFFFFFFFC03FFFFFFFF
FFFFFFFFFFFC03FFFFFFFF
FFFFFFFFFFFC03FFFFFFFF
FFFFFFFFFFFC03FFFFFFFF
FFFFFFFFFFFF03FFFFFFFF
FFFFFFFFFFFF03FFFFFFFF
FFFFFFFFFFFF03FFFFFFFF
FFFFFFFFFFFF03FFFFFFFF
FFFFFFFFFFFF03FFFFFFFF
FFFFFFFFFFFF03FFFFFFFF
FFFFFFFFFFFF03FFFFFFFF
FFFFFFFFFFFF03FFFFFFFF
FFFFFFFFFFFF03FFFFFFFF
FFFFFFFFFFFF03FFFFFFFF
FFFFFFFFFFFFC3FFFFFFFF
FFFFFFFFFFFFC3FFFFFFFF
FFFFFFFFFFFFC3FFFFFFFF
FFFFFFFFFFFFC3FFFFFFFF
FFFFFFFFFFFFC3FFFFFFFF
FFFFFFFFFFFFC3FFFFFFFF
FFFFFFFFFFFFC3FFFFFFFF
FFFFFFFFFFFFC3FFFFFFFF
FFFFFFFFFFFFC3FFFFFFFF
FFFFFFFFFFFFC3FFFFFFFF
FFFFFFFFFFFFF3FFFFFFFF
FFFFFFFFFFFFF3FFFFFFFF
FFFFFFFFFFFFF3FFFFFFFF
FFFFFFFFFFFFF3FFFFFFFF
FFFFFFFFFFFFF3FFFFFFFF
FFFFFFFFFFFFF3FFFFFFFF
FFFFFFFFFFFFF3FFFFFFFF
FFFFFFFFFFFFF3FFFFFFFF
FFFFFFFFFFFFF3FFFFFFFF
FFFFFFFFFFFFF3FFFFFFFF
FFFFFFFFFFFFF3FFFFFFFF
FFFFFFFFFFFFF3FFFFFFFF
FFFFFFFFFFFFFFFFFFFFFF
FFFFFFFFFFFFFFFFFFFFFF
FFFFFFFFFFFFFFFFFFFFFF
FFFFFFFFFFFFFFFFFFFFFF
FFFFFFFFCFFFFFFFFFFFFF
FFFFFFFFCFFFFFFFFFFFFF
FFFFFFFFCFFFFFFFFFFFFF
FFFFFFFFCFFFFFFFFFFFFF
FFFFFFFFCFFFFFFFFFFFFF
FFFFFFFFCFFFFFFFFFFFFF
FFFFFFFFCFFFFFFFFFFFFF
FFFFFFFFCFFFFFFFFFFFFF
FFFFFFFFCFFFFFFFFFFFFF
FFFFFFFFCFFFFFFFFFFFFF
FFFFFFFFC3FFFFFFFFFFFF
FFFFFFFFC3FFFFFFFFFFFF
FFFFFFFFC3FFFFFFFFFFFF
FFFFFFFFC3FFFFFFFFFFFF
FFFFFFFFC3FFFFFFFFFFFF
FFFFFFFFC3FFFFFFFFFFFF
FFFFFFFFC3FFFFFFFFFFFF
FFFFFFFFC3FFFFFFFFFFFF
FFFFFFFFC3FFFFFFFFFFFF
FFFFFFFFC3FFFFFFFFFFFF
FFFFFFFFC0FFFFFFFFFFFF
FFFFFFFFC0FFFFFFFFFFFF
FFFFFFFFC0FFFFFFFFFFFF
FFFFFFFFC0FFFFFFFFFFFF
FFFFFFFFC0FFFFFFFFFFFF
FFFFFFFFC0FFFFFFFFFFFF
FFFFFFFFC0FFFFFFFFFFFF
FFFFFFFFC0FFFFFFFFFFFF
FFFFFFFFC0FFFFFFFFFFFF
FFFFFFFFC0FFFFFFFFFFFF
FFFFFFFFC03FFFFFFFFFFF
FFFFFFFFC03FFFFFFFFFFF
FFFFFFFFC03FFFFFFFFFFF
FFFFFFFFC03FFFFFFFFFFF
FFFFFFFFC03FFFFFFFFFFF
FFFFFFFFC03FFFFFFFFFFF
FFFFFFFFC03FFFFFFFFFFF
FFFFFFFFC03FFFFFFFFFFF
FFFFFFFFC03FFFFFFFFFFF
FFFFFFFFC03FFFFFFFFFFF
FFFFFFFFC00FFFFFFFFFFF
FFFFFFFFC00FFFFFFFFFFF
FFFFFFFFC00FFFFFFFFFFF
FFFFFFFFC00FFFFFFFFFFF
FFFFFFFFC00FFFFFFFFFFF
FFFFFFFFC00FFFFFFFFFFF
FFFFFFFFC00FFFFFFFFFFF
FFFFFFFFC00FFFFFFFFFFF
FFFFFFFFC00FFFFFFFFFFF
FFFFFFFFC00FFFFFFFFFFF
FFFFFFFFC003FFFFFFFFFF
FFFFFFFFC003FFFFFFFFFF
FFFFFFFFC003FFFFFFFFFF
FFFFFFFFC003FFFFFFFFFF
FFFFFFFFC003FFFFFFFFFF
FFFFFFFFC003FFFFFFFFFF
FFFFFFFFC003FFFFFFFFFF
FFFFFFFFC003FFFFFFFFFF
FFFFFFFFC003FFFFFFFFFF
FFFFFFFFC003FFFFFFFFFF
FFFFFFFFC000FFFFFFFFFF
FFFFFFFFC000FFFFFFFFFF
FFFFFFFFC000FFFFFFFFFF
FFFFFFFFC000FFFFFFFFFF
FFFFFFFFC000FFFFFFFFFF
FFFFFFFFC000FFFFFFFFFF
FFFFFFFFC000FFFFFFFFFF
FFFFFFFFC000FFFFFFFFFF
FFFFFFFFC000FFFFFFFFFF
FFFFFFFFC000FFFFFFFFFF
FFFFFFFFC0003FFFFFFFFF
FFFFFFFFC0003FFFFFFFFF
FFFFFFFFC0003FFFFFFFFF
FFFFFFFFC0003FFFFFFFFF
FFFFFFFFC0003FFFFFFFFF
FFFFFFFFC0003FFFFFFFFF
FFFFFFFFC0003FFFFFFFFF
FFFFFFFFC0003FFFFFFFFF
FFFFFFFFC0003FFFFFFFFF
FFFFFFFFC0003FFFFFFFFF
FFFFFFFFC0000FFFFFFFFF
FFFFFFFFC0000FFFFFFFFF
FFFFFFFFC0000FFFFFFFFF
FFFFFFFFC0000FFFFFFFFF
FFFFFFFFC0000FFFFFFFFF
FFFFFFFFC0000FFFFFFFFF
FFFFFFFFC0000FFFFFFFFF
FFFFFFFFC0000FFFFFFFFF
ENDCHAR
STARTCHAR O
ENCODING 79
SWIDTH 486 0
DWIDTH 102 0
BBX 88 182 6 -2
BITMAP
000000003FFFFF00000000
000000003FFFFF00000000
0000003FFFFFFFFF000000
0000003FFFFFFFFF000000
00000FFFFFFFFFFFF00000
00000FFFFFFFFFFFF00000
00003FFFFFFFFFFFFF0000
00003FFFFFFFFFFFFF0000
0003FFFFFFFFFFFFFFC000
0003FFFFFFFFFFFFFFC000
000FFFFFFFFFFFFFFFF000
000FFFFFFFFFFFFFFFF000
003FFFFFFFFFFFFFFFFC00
003FFFFFFFFFFFFFFFFC00
00FFFFFFFFFFFFFFFFFF00
00FFFFFFFFFFFFFFFFFF00
00FFFFFFFFFFFFFFFFFFC0
00FFFFFFFFFFFFFFFFFFC0
03FFFFFFFFFFFFFFFFFFC0
03FFFFFFFFFFFFFFFFFFC0
03FFFFFFFFFFFFFFFFFFF0
03FFFFFFFFFFFFFFFFFFF0
0FFFFFFFFFFFFFFFFFFFF0
0FFFFFFFFFFFFFFFFFFFF0
0FFFFFFFFFFFFFFFFFFFFC
0FFFFFFFFFFFFFFFFFFFFC
3FFFFFFFFFFFFFFFFFFFFC
3FFFFFFFFFFFFFFFFFFFFC
3FFFFFFFFFFFFFFFFFFFFC
3FFFFFFFFFFFFFFFFFFFFC
3FFFFFFFFFFFFFFFFFFFFF
3FFFFFFFFFFFFFFFFFFFFF
3FFFFFFFFF00FFFFFFFFFF
3FFFFFFFFF00FFFFFFFFFF
3FFFFFFFFC003FFFFFFFFF
3FFFFFFFFC003FFFFFFFFF
FFFFFFFFFC000FFFFFFFFF
FFFFFFFFFC000FFFFFFFFF
FFFFFFFFF0000FFFFFFFFF
FFFFFFFFF0000FFFFFFFFF
FFFFFFFFF0000FFFFFFFFF
FFFFFFFFF0000FFFFFFFFF
FFFFFFFFF0000FFFFFFFFF
FFFFFFFFF0000FFFFFFFFF
FFFFFFFFF0000FFFFFFFFF
FFFFFFFFF0000FFFFFFFFF
FFFFFFFFF0000FFFFFFFFF
FFFFFFFFF0000FFFFFFFFF
FFFFFFFFF0000FFFFFFFFF
FFFFFFFFF0000FFFFFFFFF
FFFFFFFFF0000FFFFFFFFF
FFFFFFFFF0000FFFFFFFFF
FFFFFFFFF0000FFFFFFFFF
FFFFFFFFF0000FFFFFFFFF
FFFFFFFFF0000FFFFFFFFF
FFFFFFFFF0000FFFFFFFFF
FFFFFFFFF0000FFFFFFFFF
FFFFFFFFF0000FFFFFFFFF
FFFFFFFFF0000FFFFFFFFF
FFFFFFFFF0000FFFFFFFFF
FFFFFFFFF0000FFFFFFFFF
FFFFFFFFF0000FFFFFFFFF
FFFFFFFFF0000FFFFFFFFF
FFFFFFFFF0000FFFFFFFFF
FFFFFFFFF0000FFFFFFFFF
FFFFFFFFF0000FFFFFFFFF
FFFFFFFFF0000FFFFFFFFF
FFFFFFFFF0000FFFFFFFFF
FFFFFFFFF0000FFFFFFFFF
FFFFFFFFF0000FFFFFFFFF
FFFFFFFFF0000FFFFFFFFF
FFFFFFFFF0000FFFFFFFFF
FFFFFFFFF0000FFFFFFFFF
FFFFFFFFF0000FFFFFFFFF
FFFFFFFFF0000FFFFFFFFF
FFFFFFFFF0000FFFFFFFFF
FFFFFFFFF0000FFFFFFFFF
FFFFFFFFF0000FFFFFFFFF
FFFFFFFFF0000FFFFFFFFF
FFFFFFFFF0000FFFFFFFFF
FFFFFFFFF0000FFFFFFFFF
FFFFFFFFF0000FFFFFFFFF
FFFFFFFFF0000FFFFFFFFF
FFFFFFFFF0000FFFFFFFFF
FFFFFFFFF0000FFFFFFFFF
FFFFFFFFF0000FFFFFFFFF
FFFFFFFFF0000FFFFFFFFF
FFFFFFFFF0000FFFFFFFFF
FFFFFFFFF0000FFFFFFFFF
FFFFFFFFF0000FFFFFFFFF
FFFFFFFFF0000FFFFFFFFF
FFFFFFFFF0000FFFFFFFFF
FFFFFFFFF0000FFFFFFFFF
FFFFFFFFF0000FFFFFFFFF
FFFFFFFFF0000FFFFFFFFF
FFFFFFFFF0000FFFFFFFFF
FFFFFFFFF0000FFFFFFFFF
FFFFFFFFF0000FFFFFFFFF
FFFFFFFFF0000FFFFFFFFF
FFFFFFFFF0000FFFFFFFFF
FFFFFFFFF0000FFFFFFFFF
FFFFFFFFF0000FFFFFFFFF
FFFFFFFFF0000FFFFFFFFF
FFFFFFFFF0000FFFFFFFFF
FFFFFFFFF0000FFFFFFFFF
FFFFFFFFF0000FFFFFFFFF
FFFFFFFFF0000FFFFFFFFF
FFFFFFFFF0000FFFFFFFFF
FFFFFFFFF0000FFFFFFFFF
FFFFFFFFF0000FFFFFFFFF
FFFFFFFFF0000FFFFFFFFF
FFFFFFFFF0000FFFFFFFFF
FFFFFFFFF0000FFFFFFFFF
FFFFFFFFF0000FFFFFFFFF
FFFFFFFFF0000FFFFFFFFF
FFFFFFFFF0000FFFFFFFFF
FFFFFFFFF0000FFFFFFFFF
FFFFFFFFF0000FFFFFFFFF
FFFFFFFFF0000FFFFFFFFF
FFFFFFFFF0000FFFFFFFFF
FFFFFFFFF0000FFFFFFFFF
FFFFFFFFF0000FFFFFFFFF
FFFFFFFFF0000FFFFFFFFF
FFFFFFFFF0000FFFFFFFFF
FFFFFFFFF0000FFFFFFFFF
FFFFFFFFF0000FFFFFFFFF
FFFFFFFFF0000FFFFFFFFF
FFFFFFFFF0000FFFFFFFFF
FFFFFFFFF0000FFFFFFFFF
FFFFFFFFF0000FFFFFFFFF
FFFFFFFFF0000FFFFFFFFF
FFFFFFFFF0000FFFFFFFFF
FFFFFFFFF0000FFFFFFFFF
FFFFFFFFF0000FFFFFFFFF
FFFFFFFFF0000FFFFFFFFF
FFFFFFFFF0000FFFFFFFFF
FFFFFFFFF0000FFFFFFFFF
FFFFFFFFF0000FFFFFFFFF
FFFFFFFFF0000FFFFFFFFF
FFFFFFFFF0000FFFFFFFFF
FFFFFFFFF0000FFFFFFFFF
FFFFFFFFF0000FFFFFFFFF
3FFFFFFFF0000FFFFFFFFF
3FFFFFFFF0000FFFFFFFFF
3FFFFFFFFC000FFFFFFFFF
3FFFFFFFFC000FFFFFFFFF
3FFFFFFFFC003FFFFFFFFF
3FFFFFFFFC003FFFFFFFFF
3FFFFFFFFF00FFFFFFFFFC
3FFFFFFFFF00FFFFFFFFFC
3FFFFFFFFFFFFFFFFFFFFC
3FFFFFFFFFFFFFFFFFFFFC
0FFFFFFFFFFFFFFFFFFFFC
0FFFFFFFFFFFFFFFFFFFFC
0FFFFFFFFFFFFFFFFFFFFC
0FFFFFFFFFFFFFFFFFFFFC
0FFFFFFFFFFFFFFFFFFFF0
0FFFFFFFFFFFFFFFFFFFF0
03FFFFFFFFFFFFFFFFFFF0
03FFFFFFFFFFFFFFFFFFF0
03FFFFFFFFFFFFFFFFFFC0
03FFFFFFFFFFFFFFFFFFC0
00FFFFFFFFFFFFFFFFFFC0
00FFFFFFFFFFFFFFFFFFC0
00FFFFFFFFFFFFFFFFFF00
00FFFFFFFFFFFFFFFFFF00
003FFFFFFFFFFFFFFFFC00
003FFFFFFFFFFFFFFFFC00
000FFFFFFFFFFFFFFFFC00
000FFFFFFFFFFFFFFFFC00
0003FFFFFFFFFFFFFFF000
0003FFFFFFFFFFFFFFF000
0000FFFFFFFFFFFFFFC000
0000FFFFFFFFFFFFFFC000
00003FFFFFFFFFFFFC0000
00003FFFFFFFFFFFFC0000
000003FFFFFFFFFFF00000
000003FFFFFFFFFFF00000
0000003FFFFFFFFC000000
0000003FFFFFFFFC000000
000000003FFFFF00000000
000000003FFFFF00000000
ENDCHAR
STARTCHAR P
ENCODING 80
SWIDTH 472 0
DWIDTH 99 0
BBX 86 178 8 0
BITMAP
FFFFFFFFFFFFFFC0000000
FFFFFFFFFFFFFFC0000000
FFFFFFFFFFFFFFFF000000
FFFFFFFFFFFFFFFF000000
FFFFFFFFFFFFFFFFF00000
FFFFFFFFFFFFFFFFF00000
FFFFFFFFFFFFFFFFFF0000
FFFFFFFFFFFFFFFFFF0000
FFFFFFFFFFFFFFFFFFC000
FFFFFFFFFFFFFFFFFFC000
FFFFFFFFFFFFFFFFFFF000
FFFFFFFFFFFFFFFFFFF000
FFFFFFFFFFFFFFFFFFFC00
FFFFFFFFFFFFFFFFFFFC00
FFFFFFFFFFFFFFFFFFFC00
FFFFFFFFFFFFFFFFFFFC00
FFFFFFFFFFFFFFFFFFFF00
FFFFFFFFFFFFFFFFFFFF00
FFFFFFFFFFFFFFFFFFFF00
FFFFFFFFFFFFFFFFFFFF00
FFFFFFFFFFFFFFFFFFFFC0
FFFFFFFFFFFFFFFFFFFFC0
FFFFFFFFFFFFFFFFFFFFC0
FFFFFFFFFFFFFFFFFFFFC0
FFFFFFFFFFFFFFFFFFFFC0
FFFFFFFFFFFFFFFFFFFFC0
FFFFFFFFFFFFFFFFFFFFF0
FFFFFFFFFFFFFFFFFFFFF0
FFFFFFFFFFFFFFFFFFFFF0
FFFFFFFFFFFFFFFFFFFFF0
FFFFFFFFFFFFFFFFFFFFF0
FFFFFFFFFFFFFFFFFFFFF0
FFFFFFFFF00FFFFFFFFFF0
FFFFFFFFF00FFFFFFFFFF0
FFFFFFFFF000FFFFFFFFFC
FFFFFFFFF000FFFFFFFFFC
FFFFFFFFF000FFFFFFFFFC
FFFFFFFFF000FFFFFFFFFC
FFFFFFFFF0003FFFFFFFFC
FFFFFFFFF0003FFFFFFFFC
FFFFFFFFF0003FFFFFFFFC
FFFFFFFFF0003FFFFFFFFC
FFFFFFFFF0003FFFFFFFFC
FFFFFFFFF0003FFFFFFFFC
FFFFFFFFF0000FFFFFFFFC
FFFFFFFFF0000FFFFFFFFC
FFFFFFFFF0000FFFFFFFFC
FFFFFFFFF0000FFFFFFFFC
FFFFFFFFF0000FFFFFFFFC
FFFFFFFFF0000FFFFFFFFC
FFFFFFFFF0000FFFFFFFFC
FFFFFFFFF0000FFFFFFFFC
FFFFFFFFF0000FFFFFFFFC
FFFFFFFFF0000FFFFFFFFC
FFFFFFFFF0000FFFFFFFFC
FFFFFFFFF0000FFFFFFFFC
FFFFFFFFF0000FFFFFFFFC
FFFFFFFFF0000FFFFFFFFC
FFFFFFFFF0000FFFFFFFFC
FFFFFFFFF0000FFFFFFFFC
FFFFFFFFF0000FFFFFFFFC
FFFFFFFFF0000FFFFFFFFC
FFFFFFFFF0000FFFFFFFFC
FFFFFFFFF0000FFFFFFFFC
FFFFFFFFF0003FFFFFFFFC
FFFFFFFFF0003FFFFFFFFC
FFFFFFFFF0003FFFFFFFFC
FFFFFFFFF0003FFFFFFFFC
FFFFFFFFF0003FFFFFFFFC
FFFFFFFFF0003FFFFFFFFC
FFFFFFFFF000FFFFFFFFFC
FFFFFFFFF000FFFFFFFFFC
FFFFFFFFF000FFFFFFFFFC
FFFFFFFFF000FFFFFFFFFC
FFFFFFFFF00FFFFFFFFFFC
FFFFFFFFF00FFFFFFFFFFC
FFFFFFFFFFFFFFFFFFFFF0
FFFFFFFFFFFFFFFFFFFFF0
FFFFFFFFFFFFFFFFFFFFF0
FFFFFFFFFFFFFFFFFFFFF0
FFFFFFFFFFFFFFFFFFFFF0
FFFFFFFFFFFFFFFFFFFFF0
FFFFFFFFFFFFFFFFFFFFF0
FFFFFFFFFFFFFFFFFFFFF0
FFFFFFFFFFFFFFFFFFFFC0
FFFFFFFFFFFFFFFFFFFFC0
FFFFFFFFFFFFFFFFFFFFC0
FFFFFFFFFFFFFFFFFFFFC0
FFFFFFFFFFFFFFFFFFFFC0
FFFFFFFFFFFFFFFFFFFFC0
FFFFFFFFFFFFFFFFFFFF00
FFFFFFFFFFFFFFFFFFFF00
FFFFFFFFFFFFFFFFFFFF00
FFFFFFFFFFFFFFFFFFFF00
FFFFFFFFFFFFFFFFFFFC00
FFFFFFFFFFFFFFFFFFFC00
FFFFFFFFFFFFFFFFFFFC00
FFFFFFFFFFFFFFFFFFFC00
FFFFFFFFFFFFFFFFFFF000
FFFFFFFFFFFFFFFFFFF000
FFFFFFFFFFFFFFFFFFC000
FFFFFFFFFFFFFFFFFFC000
FFFFFFFFFFFFFFFFFC0000
FFFFFFFFFFFFFFFFFC0000
FFFFFFFFFFFFFFFFC00000
FFFFFFFFFFFFFFFFC00000
FFFFFFFFFFFFFFF0000000
FFFFFFFFFFFFFFF0000000
FFFFFFFFF0000000000000
FFFFFFFFF0000000000000
FFFFFFFFF0000000000000
FFFFFFFFF0000000000000
FFFFFFFFF0000000000000
FFFFFFFFF0000000000000
FFFFFFFFF0000000000000
FFFFFFFFF0000000000000
FFFFFFFFF0000000000000
FFFFFFFFF0000000000000
FFFFFFFFF0000000000000
FFFFFFFFF0000000000000
FFFFFFFFF0000000000000
FFFFFFFFF0000000000000
FFFFFFFFF0000000000000
FFFFFFFFF0000000000000
FFFFFFFFF0000000000000
FFFFFFFFF0000000000000
FFFFFFFFF0000000000000
FFFFFFFFF0000000000000
FFFFFFFFF0000000000000
FFFFFFFFF0000000000000
FFFFFFFFF0000000000000
FFFFFFFFF0000000000000
FFFFFFFFF0000000000000
FFFFFFFFF0000000000000
FFFFFFFFF0000000000000
FFFFFFFFF0000000000000
FFFFFFFFF0000000000000
FFFFFFFFF0000000000000
FFFFFFFFF0000000000000
FFFFFFFFF0000000000000
FFFFFFFFF0000000000000
FFFFFFFFF0000000000000
FFFFFFFFF0000000000000
FFFFFFFFF0000000000000
FFFFFFFFF0000000000000
FFFFFFFFF0000000000000
FFFFFFFFF0000000000000
FFFFFFFFF0000000000000
FFFFFFFFF0000000000000
FFFFFFFFF0000000000000
FFFFFFFFF0000000000000
FFFFFFFFF0000000000000
FFFFFFFFF0000000000000
FFFFFFFFF0000000000000
FFFFFFFFF0000000000000
FFFFFFFFF0000000000000
FFFFFFFFF0000000000000
FFFFFFFFF0000000000000
FFFFFFFFF0000000000000
FFFFFFFFF0000000000000
FFFFFFFFF0000000000000
FFFFFFFFF0000000000000
FFFFFFFFF0000000000000
FFFFFFFFF0000000000000
FFFFFFFFF0000000000000
FFFFFFFFF0000000000000
FFFFFFFFF0000000000000
FFFFFFFFF0000000000000
FFFFFFFFF0000000000000
FFFFFFFFF0000000000000
FFFFFFFFF0000000000000
FFFFFFFFF0000000000000
FFFFFFFFF0000000000000
FFFFFFFFF0000000000000
FFFFFFFFF0000000000000
FFFFFFFFF0000000000000
FFFFFFFFF0000000000000
FFFFFFFFF0000000000000
ENDCHAR
STARTCHAR Q
ENCODING 81
SWIDTH 494 0
DWIDTH 103 0
BBX 94 200 6 -20
BITMAP
00000000FFFFFC0000000000
00000000FFFFFC0000000000
000000FFFFFFFFFC00000000
000000FFFFFFFFFC00000000
00000FFFFFFFFFFFC0000000
00000FFFFFFFFFFFC0000000
0000FFFFFFFFFFFFFC000000
0000FFFFFFFFFFFFFC000000
0003FFFFFFFFFFFFFF000000
0003FFFFFFFFFFFFFF000000
000FFFFFFFFFFFFFFFF00000
000FFFFFFFFFFFFFFFF00000
003FFFFFFFFFFFFFFFFC0000
003FFFFFFFFFFFFFFFFC0000
00FFFFFFFFFFFFFFFFFC0000
00FFFFFFFFFFFFFFFFFC0000
03FFFFFFFFFFFFFFFFFF0000
03FFFFFFFFFFFFFFFFFF0000
03FFFFFFFFFFFFFFFFFFC000
03FFFFFFFFFFFFFFFFFFC000
0FFFFFFFFFFFFFFFFFFFC000
0FFFFFFFFFFFFFFFFFFFC000
0FFFFFFFFFFFFFFFFFFFF000
0FFFFFFFFFFFFFFFFFFFF000
3FFFFFFFFFFFFFFFFFFFF000
3FFFFFFFFFFFFFFFFFFFF000
3FFFFFFFFFFFFFFFFFFFF000
3FFFFFFFFFFFFFFFFFFFF000
3FFFFFFFFFFFFFFFFFFFFC00
3FFFFFFFFFFFFFFFFFFFFC00
3FFFFFFFFFFFFFFFFFFFFC00
3FFFFFFFFFFFFFFFFFFFFC00
FFFFFFFFFF00FFFFFFFFFC00
FFFFFFFFFF00FFFFFFFFFC00
FFFFFFFFFC003FFFFFFFFC00
FFFFFFFFFC003FFFFFFFFC00
FFFFFFFFF0003FFFFFFFFC00
FFFFFFFFF0003FFFFFFFFC00
FFFFFFFFF0003FFFFFFFFF00
FFFFFFFFF0003FFFFFFFFF00
FFFFFFFFF0000FFFFFFFFF00
FFFFFFFFF0000FFFFFFFFF00
FFFFFFFFC0000FFFFFFFFF00
FFFFFFFFC0000FFFFFFFFF00
FFFFFFFFC0000FFFFFFFFF00
FFFFFFFFC0000FFFFFFFFF00
FFFFFFFFC0000FFFFFFFFF00
FFFFFFFFC0000FFFFFFFFF00
FFFFFFFFC0000FFFFFFFFF00
FFFFFFFFC0000FFFFFFFFF00
FFFFFFFFC0000FFFFFFFFF00
FFFFFFFFC0000FFFFFFFFF00
FFFFFFFFC0000FFFFFFFFF00
FFFFFFFFC0000FFFFFFFFF00
FFFFFFFFC0000FFFFFFFFF00
FFFFFFFFC0000FFFFFFFFF00
FFFFFFFFC0000FFFFFFFFF00
FFFFFFFFC0000FFFFFFFFF00
FFFFFFFFC0000FFFFFFFFF00
FFFFFFFFC0000FFFFFFFFF00
FFFFFFFFC0000FFFFFFFFF00
FFFFFFFFC0000FFFFFFFFF00
FFFFFFFFC0000FFFFFFFFF00
FFFFFFFFC0000FFFFFFFFF00
FFFFFFFFC0000FFFFFFFFF00
FFFFFFFFC0000FFFFFFFFF00
FFFFFFFFC0000FFFFFFFFF00
FFFFFFFFC0000FFFFFFFFF00
FFFFFFFFC0000FFFFFFFFF00
FFFFFFFFC0000FFFFFFFFF00
FFFFFFFFC0000FFFFFFFFF00
FFFFFFFFC0000FFFFFFFFF00
FFFFFFFFC0000FFFFFFFFF00
FFFFFFFFC0000FFFFFFFFF00
FFFFFFFFC0000FFFFFFFFF00
FFFFFFFFC0000FFFFFFFFF00
FFFFFFFFC0000FFFFFFFFF00
FFFFFFFFC0000FFFFFFFFF00
FFFFFFFFC0000FFFFFFFFF00
FFFFFFFFC0000FFFFFFFFF00
FFFFFFFFC0000FFFFFFFFF00
FFFFFFFFC0000FFFFFFFFF00
FFFFFFFFC0000FFFFFFFFF00
FFFFFFFFC0000FFFFFFFFF00
FFFFFFFFC0000FFFFFFFFF00
FFFFFFFFC0000FFFFFFFFF00
FFFFFFFFC0000FFFFFFFFF00
FFFFFFFFC0000FFFFFFFFF00
FFFFFFFFC0000FFFFFFFFF00
FFFFFFFFC0000FFFFFFFFF00
FFFFFFFFC0000FFFFFFFFF00
FFFFFFFFC0000FFFFFFFFF00
FFFFFFFFC0000FFFFFFFFF00
FFFFFFFFC0000FFFFFFFFF00
FFFFFFFFC0000FFFFFFFFF00
FFFFFFFFC0000FFFFFFFFF00
FFFFFFFFC0000FFFFFFFFF00
FFFFFFFFC0000FFFFFFFFF00
FFFFFFFFC0000FFFFFFFFF00
FFFFFFFFC0000FFFFFFFFF00
FFFFFFFFC0000FFFFFFFFF00
FFFFFFFFC0000FFFFFFFFF00
FFFFFFFFC0000FFFFFFFFF00
FFFFFFFFC0000FFFFFFFFF00
FFFFFFFFC0000FFFFFFFFF00
FFFFFFFFC0000FFFFFFFFF00
FFFFFFFFC0000FFFFFFFFF00
FFFFFFFFC0000FFFFFFFFF00
FFFFFFFFC0000FFFFFFFFF00
FFFFFFFFC0000FFFFFFFFF00
FFFFFFFFC0000FFFFFFFFF00
FFFFFFFFC0000FFFFFFFFF00
FFFFFFFFC0000FFFFFFFFF00
FFFFFFFFC0000FFFFFFFFF00
FFFFFFFFC0000FFFFFFFFF00
FFFFFFFFC0000FFFFFFFFF00
FFFFFFFFC0000FFFFFFFFF00
FFFFFFFFC0000FFFFFFFFF00
FFFFFFFFC0000FFFFFFFFF00
FFFFFFFFC0000FFFFFFFFF00
FFFFFFFFC0000FFFFFFFFF00
FFFFFFFFC0000FFFFFFFFF00
FFFFFFFFC0000FFFFFFFFF00
FFFFFFFFC0000FFFFFFFFF00
FFFFFFFFC0000FFFFFFFFF00
FFFFFFFFC0000FFFFFFFFF00
FFFFFFFFC0000FFFFFFFFF00
FFFFFFFFC0000FFFFFFFFF00
FFFFFFFFC0000FFFFFFFFF00
FFFFFFFFC0000FFFFFFFFF00
FFFFFFFFC0000FFFFFFFFF00
FFFFFFFFC0000FFFFFFFFF00
FFFFFFFFC0000FFFFFFFFF00
FFFFFFFFC0000FFFFFFFFF00
FFFFFFFFC0000FFFFFFFFF00
FFFFFFFFC0000FFFFFFFFF00
FFFFFFFFC0000FFFFFFFFF00
FFFFFFFFC0000FFFFFFFFF00
FFFFFFFFF0000FFFFFFFFF00
FFFFFFFFF0000FFFFFFFFF00
FFFFFFFFF0003FFFFFFFFF00
FFFFFFFFF0003FFFFFFFFF00
FFFFFFFFF0003FFFFFFFFF00
FFFFFFFFF0003FFFFFFFFF00
FFFFFFFFF0003FFFFFFFFC00
FFFFFFFFF0003FFFFFFFFC00
FFFFFFFFFC003FFFFFFFFC00
FFFFFFFFFC003FFFFFFFFC00
FFFFFFFFFF00FFFFFFFFFC00
FFFFFFFFFF00FFFFFFFFFC00
3FFFFFFFFFFFFFFFFFFFFC00
3FFFFFFFFFFFFFFFFFFFFC00
3FFFFFFFFFFFFFFFFFFFFC00
3FFFFFFFFFFFFFFFFFFFFC00
3FFFFFFFFFFFFFFFFFFFF000
3FFFFFFFFFFFFFFFFFFFF000
0FFFFFFFFFFFFFFFFFFFF000
0FFFFFFFFFFFFFFFFFFFF000
0FFFFFFFFFFFFFFFFFFFF000
0FFFFFFFFFFFFFFFFFFFF000
0FFFFFFFFFFFFFFFFFFFC000
0FFFFFFFFFFFFFFFFFFFC000
03FFFFFFFFFFFFFFFFFFC000
03FFFFFFFFFFFFFFFFFFC000
00FFFFFFFFFFFFFFFFFF0000
00FFFFFFFFFFFFFFFFFF0000
00FFFFFFFFFFFFFFFFFC0000
00FFFFFFFFFFFFFFFFFC0000
003FFFFFFFFFFFFFFFFC0000
003FFFFFFFFFFFFFFFFC0000
000FFFFFFFFFFFFFFFFFC000
000FFFFFFFFFFFFFFFFFC000
0003FFFFFFFFFFFFFFFFF000
0003FFFFFFFFFFFFFFFFF000
0000FFFFFFFFFFFFFFFFFF00
0000FFFFFFFFFFFFFFFFFF00
00000FFFFFFFFFFFFFFFFFF0
00000FFFFFFFFFFFFFFFFFF0
000000FFFFFFFFFFFFFFFFFC
000000FFFFFFFFFFFFFFFFFC
00000000FFFFC3FFFFFFFFF0
00000000FFFFC3FFFFFFFFF0
00000000000000FFFFFFFFC0
00000000000000FFFFFFFFC0
000000000000000FFFFFFFC0
000000000000000FFFFFFFC0
0000000000000003FFFFFF00
0000000000000003FFFFFF00
00000000000000003FFFFC00
00000000000000003FFFFC00
00000000000000000FFFFC00
00000000000000000FFFFC00
000000000000000000FFF000
000000000000000000FFF000
0000000000000000003FF000
0000000000000000003FF000
00000000000000000003C000
00000000000000000003C000
00000000000000000000C000
00000000000000000000C000
ENDCHAR
STARTCHAR R
ENCODING 82
SWIDTH 477 0
DWIDTH 100 0
BBX 88 178 8 0
BITMAP
FFFFFFFFFFFFFFFF000000
FFFFFFFFFFFFFFFF000000
FFFFFFFFFFFFFFFFFC0000
FFFFFFFFFFFFFFFFFC0000
FFFFFFFFFFFFFFFFFFC000
FFFFFFFFFFFFFFFFFFC000
FFFFFFFFFFFFFFFFFFF000
FFFFFFFFFFFFFFFFFFF000
FFFFFFFFFFFFFFFFFFFC00
FFFFFFFFFFFFFFFFFFFC00
FFFFFFFFFFFFFFFFFFFF00
FFFFFFFFFFFFFFFFFFFF00
FFFFFFFFFFFFFFFFFFFFC0
FFFFFFFFFFFFFFFFFFFFC0
FFFFFFFFFFFFFFFFFFFFC0
FFFFFFFFFFFFFFFFFFFFC0
FFFFFFFFFFFFFFFFFFFFF0
FFFFFFFFFFFFFFFFFFFFF0
FFFFFFFFFFFFFFFFFFFFF0
FFFFFFFFFFFFFFFFFFFFF0
FFFFFFFFFFFFFFFFFFFFF0
FFFFFFFFFFFFFFFFFFFFF0
FFFFFFFFFFFFFFFFFFFFF0
FFFFFFFFFFFFFFFFFFFFF0
FFFFFFFFFFFFFFFFFFFFFC
FFFFFFFFFFFFFFFFFFFFFC
FFFFFFFFFFFFFFFFFFFFFC
FFFFFFFFFFFFFFFFFFFFFC
FFFFFFFFFFFFFFFFFFFFFC
FFFFFFFFFFFFFFFFFFFFFC
FFFFFFFFFFFFFFFFFFFFFC
FFFFFFFFFFFFFFFFFFFFFC
FFFFFFFFFFFFFFFFFFFFFC
FFFFFFFFFFFFFFFFFFFFFC
FFFFFFFFF000FFFFFFFFFC
FFFFFFFFF000FFFFFFFFFC
FFFFFFFFF0003FFFFFFFFC
FFFFFFFFF0003FFFFFFFFC
FFFFFFFFF0000FFFFFFFFC
FFFFFFFFF0000FFFFFFFFC
FFFFFFFFF0000FFFFFFFFF
FFFFFFFFF0000FFFFFFFFF
FFFFFFFFF0000FFFFFFFFF
FFFFFFFFF0000FFFFFFFFF
FFFFFFFFF0000FFFFFFFFF
FFFFFFFFF0000FFFFFFFFF
FFFFFFFFF0000FFFFFFFFF
FFFFFFFFF0000FFFFFFFFF
FFFFFFFFF0000FFFFFFFFF
FFFFFFFFF0000FFFFFFFFF
FFFFFFFFF0000FFFFFFFFF
FFFFFFFFF0000FFFFFFFFF
FFFFFFFFF0000FFFFFFFFF
FFFFFFFFF0000FFFFFFFFF
FFFFFFFFF0000FFFFFFFFF
FFFFFFFFF0000FFFFFFFFF
FFFFFFFFF0000FFFFFFFFC
FFFFFFFFF0000FFFFFFFFC
FFFFFFFFF0003FFFFFFFFC
FFFFFFFFF0003FFFFFFFFC
FFFFFFFFF0003FFFFFFFFC
FFFFFFFFF0003FFFFFFFFC
FFFFFFFFF000FFFFFFFFFC
FFFFFFFFF000FFFFFFFFFC
FFFFFFFFFFFFFFFFFFFFFC
FFFFFFFFFFFFFFFFFFFFFC
FFFFFFFFFFFFFFFFFFFFFC
FFFFFFFFFFFFFFFFFFFFFC
FFFFFFFFFFFFFFFFFFFFF0
FFFFFFFFFFFFFFFFFFFFF0
FFFFFFFFFFFFFFFFFFFFF0
FFFFFFFFFFFFFFFFFFFFF0
FFFFFFFFFFFFFFFFFFFFF0
FFFFFFFFFFFFFFFFFFFFF0
FFFFFFFFFFFFFFFFFFFFC0
FFFFFFFFFFFFFFFFFFFFC0
FFFFFFFFFFFFFFFFFFFF00
FFFFFFFFFFFFFFFFFFFF00
FFFFFFFFFFFFFFFFFFFC00
FFFFFFFFFFFFFFFFFFFC00
FFFFFFFFFFFFFFFFFFF000
FFFFFFFFFFFFFFFFFFF000
FFFFFFFFFFFFFFFFFF0000
FFFFFFFFFFFFFFFFFF0000
FFFFFFFFFFFFFFFFFF0000
FFFFFFFFFFFFFFFFFF0000
FFFFFFFFFFFFFFFFFFF000
FFFFFFFFFFFFFFFFFFF000
FFFFFFFFFFFFFFFFFFFC00
FFFFFFFFFFFFFFFFFFFC00
FFFFFFFFFFFFFFFFFFFF00
FFFFFFFFFFFFFFFFFFFF00
FFFFFFFFFFFFFFFFFFFFC0
FFFFFFFFFFFFFFFFFFFFC0
FFFFFFFFFFFFFFFFFFFFC0
FFFFFFFFFFFFFFFFFFFFC0
FFFFFFFFF00FFFFFFFFFF0
FFFFFFFFF00FFFFFFFFFF0
FFFFFFFFF000FFFFFFFFF0
FFFFFFFFF000FFFFFFFFF0
FFFFFFFFF000FFFFFFFFF0
FFFFFFFFF000FFFFFFFFF0
FFFFFFFFF0003FFFFFFFF0
FFFFFFFFF0003FFFFFFFF0
FFFFFFFFF0003FFFFFFFF0
FFFFFFFFF0003FFFFFFFF0
FFFFFFFFF0003FFFFFFFF0
FFFFFFFFF0003FFFFFFFF0
FFFFFFFFF0003FFFFFFFF0
FFFFFFFFF0003FFFFFFFF0
FFFFFFFFF0003FFFFFFFF0
FFFFFFFFF0003FFFFFFFF0
FFFFFFFFF0003FFFFFFFF0
FFFFFFFFF0003FFFFFFFF0
FFFFFFFFF0003FFFFFFFF0
FFFFFFFFF0003FFFFFFFF0
FFFFFFFFF0003FFFFFFFF0
FFFFFFFFF0003FFFFFFFF0
FFFFFFFFF0003FFFFFFFF0
FFFFFFFFF0003FFFFFFFF0
FFFFFFFFF0003FFFFFFFF0
FFFFFFFFF0003FFFFFFFF0
FFFFFFFFF0003FFFFFFFF0
FFFFFFFFF0003FFFFFFFF0
FFFFFFFFF0003FFFFFFFF0
FFFFFFFFF0003FFFFFFFF0
FFFFFFFFF0003FFFFFFFF0
FFFFFFFFF0003FFFFFFFF0
FFFFFFFFF0003FFFFFFFF0
FFFFFFFFF0003FFFFFFFF0
FFFFFFFFF0003FFFFFFFF0
FFFFFFFFF0003FFFFFFFF0
FFFFFFFFF0003FFFFFFFF0
FFFFFFFFF0003FFFFFFFF0
FFFFFFFFF0003FFFFFFFF0
FFFFFFFFF0003FFFFFFFF0
FFFFFFFFF0003FFFFFFFF0
FFFFFFFFF0003FFFFFFFF0
FFFFFFFFF0003FFFFFFFF0
FFFFFFFFF0003FFFFFFFF0
FFFFFFFFF0003FFFFFFFF0
FFFFFFFFF0003FFFFFFFF0
FFFFFFFFF0003FFFFFFFF0
FFFFFFFFF0003FFFFFFFF0
FFFFFFFFF0003FFFFFFFF0
FFFFFFFFF0003FFFFFFFF0
FFFFFFFFF0003FFFFFFFF0
FFFFFFFFF0003FFFFFFFF0
FFFFFFFFF0003FFFFFFFF0
FFFFFFFFF0003FFFFFFFF0
FFFFFFFFF0003FFFFFFFF0
FFFFFFFFF0003FFFFFFFF0
FFFFFFFFF0003FFFFFFFF0
FFFFFFFFF0003FFFFFFFF0
FFFFFFFFF0003FFFFFFFF0
FFFFFFFFF0003FFFFFFFF0
FFFFFFFFF0003FFFFFFFF0
FFFFFFFFF0003FFFFFFFF0
FFFFFFFFF0003FFFFFFFF0
FFFFFFFFF0003FFFFFFFF0
FFFFFFFFF0003FFFFFFFF0
FFFFFFFFF0003FFFFFFFF0
FFFFFFFFF0003FFFFFFFF0
FFFFFFFFF0003FFFFFFFF0
FFFFFFFFF0003FFFFFFFF0
FFFFFFFFF0003FFFFFFFF0
FFFFFFFFF0003FFFFFFFF0
FFFFFFFFF0003FFFFFFFF0
FFFFFFFFF0003FFFFFFFF0
FFFFFFFFF0003FFFFFFFF0
FFFFFFFFF0003FFFFFFFF0
FFFFFFFFF0003FFFFFFFF0
FFFFFFFFF0003FFFFFFFF0
FFFFFFFFF0003FFFFFFFF0
FFFFFFFFF0003FFFFFFFF0
FFFFFFFFF0003FFFFFFFF0
FFFFFFFFF0003FFFFFFFF0
FFFFFFFFF0003FFFFFFFF0
ENDCHAR
STARTCHAR S
ENCODING 83
SWIDTH 461 0
DWIDTH 96 0
BBX 88 182 4 -2
BITMAP
00000000FFFFFC00000000
00000000FFFFFC00000000
000000FFFFFFFFFC000000
000000FFFFFFFFFC000000
00000FFFFFFFFFFFC00000
00000FFFFFFFFFFFC00000
0000FFFFFFFFFFFFFC0000
0000FFFFFFFFFFFFFC0000
0003FFFFFFFFFFFFFF0000
0003FFFFFFFFFFFFFF0000
000FFFFFFFFFFFFFFFC000
000FFFFFFFFFFFFFFFC000
003FFFFFFFFFFFFFFFF000
003FFFFFFFFFFFFFFFF000
00FFFFFFFFFFFFFFFFFC00
00FFFFFFFFFFFFFFFFFC00
00FFFFFFFFFFFFFFFFFF00
00FFFFFFFFFFFFFFFFFF00
03FFFFFFFFFFFFFFFFFF00
03FFFFFFFFFFFFFFFFFF00
03FFFFFFFFFFFFFFFFFFC0
03FFFFFFFFFFFFFFFFFFC0
0FFFFFFFFFFFFFFFFFFFC0
0FFFFFFFFFFFFFFFFFFFC0
0FFFFFFFFFFFFFFFFFFFC0
0FFFFFFFFFFFFFFFFFFFC0
3FFFFFFFFFFFFFFFFFFFF0
3FFFFFFFFFFFFFFFFFFFF0
3FFFFFFFFFFFFFFFFFFFF0
3FFFFFFFFFFFFFFFFFFFF0
3FFFFFFFFFFFFFFFFFFFF0
3FFFFFFFFFFFFFFFFFFFF0
3FFFFFFFFC03FFFFFFFFFC
3FFFFFFFFC03FFFFFFFFFC
3FFFFFFFF000FFFFFFFFFC
3FFFFFFFF000FFFFFFFFFC
FFFFFFFFF0003FFFFFFFFC
FFFFFFFFF0003FFFFFFFFC
FFFFFFFFC0003FFFFFFFFC
FFFFFFFFC0003FFFFFFFFC
FFFFFFFFC0003FFFFFFFFC
FFFFFFFFC0003FFFFFFFFC
FFFFFFFFC0003FFFFFFFFC
FFFFFFFFC0003FFFFFFFFC
FFFFFFFFF0003FFFFFFFFC
FFFFFFFFF0003FFFFFFFFC
FFFFFFFFF0003FFFFFFFFC
FFFFFFFFF0003FFFFFFFFC
FFFFFFFFF0003FFFFFFFFC
FFFFFFFFF0003FFFFFFFFC
FFFFFFFFFC003FFFFFFFFC
FFFFFFFFFC003FFFFFFFFC
FFFFFFFFFF000000000000
FFFFFFFFFF000000000000
3FFFFFFFFF000000000000
3FFFFFFFFF000000000000
3FFFFFFFFFC00000000000
3FFFFFFFFFC00000000000
3FFFFFFFFFF00000000000
3FFFFFFFFFF00000000000
3FFFFFFFFFFC0000000000
3FFFFFFFFFFC0000000000
3FFFFFFFFFFF0000000000
3FFFFFFFFFFF0000000000
0FFFFFFFFFFFC000000000
0FFFFFFFFFFFC000000000
0FFFFFFFFFFFF000000000
0FFFFFFFFFFFF000000000
03FFFFFFFFFFFF00000000
03FFFFFFFFFFFF00000000
03FFFFFFFFFFFFC0000000
03FFFFFFFFFFFFC0000000
00FFFFFFFFFFFFF0000000
00FFFFFFFFFFFFF0000000
00FFFFFFFFFFFFFC000000
00FFFFFFFFFFFFFC000000
003FFFFFFFFFFFFF000000
003FFFFFFFFFFFFF000000
000FFFFFFFFFFFFFC00000
000FFFFFFFFFFFFFC00000
0003FFFFFFFFFFFFF00000
0003FFFFFFFFFFFFF00000
0000FFFFFFFFFFFFFC0000
0000FFFFFFFFFFFFFC0000
00003FFFFFFFFFFFFF0000
00003FFFFFFFFFFFFF0000
00000FFFFFFFFFFFFF0000
00000FFFFFFFFFFFFF0000
000003FFFFFFFFFFFFC000
000003FFFFFFFFFFFFC000
000000FFFFFFFFFFFFF000
000000FFFFFFFFFFFFF000
0000003FFFFFFFFFFFFC00
0000003FFFFFFFFFFFFC00
0000000FFFFFFFFFFFFF00
0000000FFFFFFFFFFFFF00
00000003FFFFFFFFFFFF00
00000003FFFFFFFFFFFF00
00000000FFFFFFFFFFFFC0
00000000FFFFFFFFFFFFC0
000000003FFFFFFFFFFFC0
000000003FFFFFFFFFFFC0
000000000FFFFFFFFFFFF0
000000000FFFFFFFFFFFF0
0000000003FFFFFFFFFFF0
0000000003FFFFFFFFFFF0
0000000000FFFFFFFFFFF0
0000000000FFFFFFFFFFF0
00000000003FFFFFFFFFFC
00000000003FFFFFFFFFFC
00000000003FFFFFFFFFFC
00000000003FFFFFFFFFFC
00000000000FFFFFFFFFFC
00000000000FFFFFFFFFFC
FFFFFFFFF003FFFFFFFFFC
FFFFFFFFF003FFFFFFFFFC
FFFFFFFFF000FFFFFFFFFF
FFFFFFFFF000FFFFFFFFFF
FFFFFFFFF000FFFFFFFFFF
FFFFFFFFF000FFFFFFFFFF
FFFFFFFFF0003FFFFFFFFF
FFFFFFFFF0003FFFFFFFFF
FFFFFFFFF0003FFFFFFFFF
FFFFFFFFF0003FFFFFFFFF
FFFFFFFFF0000FFFFFFFFF
FFFFFFFFF0000FFFFFFFFF
FFFFFFFFF0000FFFFFFFFF
FFFFFFFFF0000FFFFFFFFF
FFFFFFFFF0000FFFFFFFFF
FFFFFFFFF0000FFFFFFFFF
FFFFFFFFF0000FFFFFFFFF
FFFFFFFFF0000FFFFFFFFF
FFFFFFFFF0000FFFFFFFFF
FFFFFFFFF0000FFFFFFFFF
FFFFFFFFF0000FFFFFFFFF
FFFFFFFFF0000FFFFFFFFF
FFFFFFFFF0000FFFFFFFFF
FFFFFFFFF0000FFFFFFFFF
FFFFFFFFF0000FFFFFFFFF
FFFFFFFFF0000FFFFFFFFF
FFFFFFFFF0000FFFFFFFFF
FFFFFFFFF0000FFFFFFFFF
FFFFFFFFF0000FFFFFFFFF
FFFFFFFFF0000FFFFFFFFF
3FFFFFFFF0000FFFFFFFFC
3FFFFFFFF0000FFFFFFFFC
3FFFFFFFFC003FFFFFFFFC
3FFFFFFFFC003FFFFFFFFC
3FFFFFFFFF00FFFFFFFFFC
3FFFFFFFFF00FFFFFFFFFC
3FFFFFFFFFFFFFFFFFFFFC
3FFFFFFFFFFFFFFFFFFFFC
3FFFFFFFFFFFFFFFFFFFFC
3FFFFFFFFFFFFFFFFFFFFC
0FFFFFFFFFFFFFFFFFFFF0
0FFFFFFFFFFFFFFFFFFFF0
0FFFFFFFFFFFFFFFFFFFF0
0FFFFFFFFFFFFFFFFFFFF0
0FFFFFFFFFFFFFFFFFFFF0
0FFFFFFFFFFFFFFFFFFFF0
03FFFFFFFFFFFFFFFFFFC0
03FFFFFFFFFFFFFFFFFFC0
03FFFFFFFFFFFFFFFFFFC0
03FFFFFFFFFFFFFFFFFFC0
00FFFFFFFFFFFFFFFFFF00
00FFFFFFFFFFFFFFFFFF00
00FFFFFFFFFFFFFFFFFF00
00FFFFFFFFFFFFFFFFFF00
003FFFFFFFFFFFFFFFFC00
003FFFFFFFFFFFFFFFFC00
000FFFFFFFFFFFFFFFF000
000FFFFFFFFFFFFFFFF000
0003FFFFFFFFFFFFFFC000
0003FFFFFFFFFFFFFFC000
00003FFFFFFFFFFFFF0000
00003FFFFFFFFFFFFF0000
00000FFFFFFFFFFFF00000
00000FFFFFFFFFFFF00000
0000003FFFFFFFFF000000
0000003FFFFFFFFF000000
000000003FFFFFC0000000
000000003FFFFFC0000000
ENDCHAR
STARTCHAR T
ENCODING 84
SWIDTH 396 0
DWIDTH 83 0
BBX 78 178 2 0
BITMAP
FFFFFFFFFFFFFFFFFFFC
FFFFFFFFFFFFFFFFFFFC
FFFFFFFFFFFFFFFFFFFC
FFFFFFFFFFFFFFFFFFFC
FFFFFFFFFFFFFFFFFFFC
FFFFFFFFFFFFFFFFFFFC
FFFFFFFFFFFFFFFFFFFC
FFFFFFFFFFFFFFFFFFFC
FFFFFFFFFFFFFFFFFFFC
FFFFFFFFFFFFFFFFFFFC
FFFFFFFFFFFFFFFFFFFC
FFFFFFFFFFFFFFFFFFFC
FFFFFFFFFFFFFFFFFFFC
FFFFFFFFFFFFFFFFFFFC
FFFFFFFFFFFFFFFFFFFC
FFFFFFFFFFFFFFFFFFFC
FFFFFFFFFFFFFFFFFFFC
FFFFFFFFFFFFFFFFFFFC
FFFFFFFFFFFFFFFFFFFC
FFFFFFFFFFFFFFFFFFFC
FFFFFFFFFFFFFFFFFFFC
FFFFFFFFFFFFFFFFFFFC
FFFFFFFFFFFFFFFFFFFC
FFFFFFFFFFFFFFFFFFFC
FFFFFFFFFFFFFFFFFFFC
FFFFFFFFFFFFFFFFFFFC
FFFFFFFFFFFFFFFFFFFC
FFFFFFFFFFFFFFFFFFFC
FFFFFFFFFFFFFFFFFFFC
FFFFFFFFFFFFFFFFFFFC
FFFFFFFFFFFFFFFFFFFC
FFFFFFFFFFFFFFFFFFFC
FFFFFFFFFFFFFFFFFFFC
FFFFFFFFFFFFFFFFFFFC
000003FFFFFFFFC00000
000003FFFFFFFFC00000
000003FFFFFFFFC00000
000003FFFFFFFFC00000
000003FFFFFFFFC00000
000003FFFFFFFFC00000
000003FFFFFFFFC00000
000003FFFFFFFFC00000
000003FFFFFFFFC00000
000003FFFFFFFFC00000
000003FFFFFFFFC00000
000003FFFFFFFFC00000
000003FFFFFFFFC00000
000003FFFFFFFFC00000
000003FFFFFFFFC00000
000003FFFFFFFFC00000
000003FFFFFFFFC00000
000003FFFFFFFFC00000
000003FFFFFFFFC00000
000003FFFFFFFFC00000
000003FFFFFFFFC00000
000003FFFFFFFFC00000
000003FFFFFFFFC00000
000003FFFFFFFFC00000
000003FFFFFFFFC00000
000003FFFFFFFFC00000
000003FFFFFFFFC00000
000003FFFFFFFFC00000
000003FFFFFFFFC00000
000003FFFFFFFFC00000
000003FFFFFFFFC00000
000003FFFFFFFFC00000
000003FFFFFFFFC00000
000003FFFFFFFFC00000
000003FFFFFFFFC00000
000003FFFFFFFFC00000
000003FFFFFFFFC00000
000003FFFFFFFFC00000
000003FFFFFFFFC00000
000003FFFFFFFFC00000
000003FFFFFFFFC00000
000003FFFFFFFFC00000
000003FFFFFFFFC00000
000003FFFFFFFFC00000
000003FFFFFFFFC00000
000003FFFFFFFFC00000
000003FFFFFFFFC00000
000003FFFFFFFFC00000
000003FFFFFFFFC00000
000003FFFFFFFFC00000
000003FFFFFFFFC00000
000003FFFFFFFFC00000
000003FFFFFFFFC00000
000003FFFFFFFFC00000
000003FFFFFFFFC00000
000003FFFFFFFFC00000
000003FFFFFFFFC00000
000003FFFFFFFFC00000
000003FFFFFFFFC00000
000003FFFFFFFFC00000
000003FFFFFFFFC00000
000003FFFFFFFFC00000
000003FFFFFFFFC00000
000003FFFFFFFFC00000
000003FFFFFFFFC00000
000003FFFFFFFFC00000
000003FFFFFFFFC00000
000003FFFFFFFFC00000
000003FFFFFFFFC00000
000003FFFFFFFFC00000
000003FFFFFFFFC00000
000003FFFFFFFFC00000
000003FFFFFFFFC00000
000003FFFFFFFFC00000
000003FFFFFFFFC00000
000003FFFFFFFFC00000
000003FFFFFFFFC00000
000003FFFFFFFFC00000
000003FFFFFFFFC00000
000003FFFFFFFFC00000
000003FFFFFFFFC00000
000003FFFFFFFFC00000
000003FFFFFFFFC00000
000003FFFFFFFFC00000
000003FFFFFFFFC00000
000003FFFFFFFFC00000
000003FFFFFFFFC00000
000003FFFFFFFFC00000
000003FFFFFFFFC00000
000003FFFFFFFFC00000
000003FFFFFFFFC00000
000003FFFFFFFFC00000
000003FFFFFFFFC00000
000003FFFFFFFFC00000
000003FFFFFFFFC00000
000003FFFFFFFFC00000
000003FFFFFFFFC00000
000003FFFFFFFFC00000
000003FFFFFFFFC00000
000003FFFFFFFFC00000
000003FFFFFFFFC00000
000003FFFFFFFFC00000
000003FFFFFFFFC00000
000003FFFFFFFFC00000
000003FFFFFFFFC00000
000003FFFFFFFFC00000
000003FFFFFFFFC00000
000003FFFFFFFFC00000
000003FFFFFFFFC00000
000003FFFFFFFFC00000
000003FFFFFFFFC00000
000003FFFFFFFFC00000
000003FFFFFFFFC00000
000003FFFFFFFFC00000
000003FFFFFFFFC00000
000003FFFFFFFFC00000
000003FFFFFFFFC00000
000003FFFFFFFFC00000
000003FFFFFFFFC00000
000003FFFFFFFFC00000
000003FFFFFFFFC00000
000003FFFFFFFFC00000
000003FFFFFFFFC00000
000003FFFFFFFFC00000
000003FFFFFFFFC00000
000003FFFFFFFFC00000
000003FFFFFFFFC00000
000003FFFFFFFFC00000
000003FFFFFFFFC00000
000003FFFFFFFFC00000
000003FFFFFFFFC00000
000003FFFFFFFFC00000
000003FFFFFFFFC00000
000003FFFFFFFFC00000
000003FFFFFFFFC00000
000003FFFFFFFFC00000
000003FFFFFFFFC00000
000003FFFFFFFFC00000
000003FFFFFFFFC00000
000003FFFFFFFFC00000
000003FFFFFFFFC00000
000003FFFFFFFFC00000
000003FFFFFFFFC00000
000003FFFFFFFFC00000
ENDCHAR
STARTCHAR U
ENCODING 85
SWIDTH 474 0
DWIDTH 99 0
BBX 86 180 6 -2
BITMAP
FFFFFFFFC0000FFFFFFFFC
FFFFFFFFC0000FFFFFFFFC
FFFFFFFFC0000FFFFFFFFC
FFFFFFFFC0000FFFFFFFFC
FFFFFFFFC0000FFFFFFFFC
FFFFFFFFC0000FFFFFFFFC
FFFFFFFFC0000FFFFFFFFC
FFFFFFFFC0000FFFFFFFFC
FFFFFFFFC0000FFFFFFFFC
FFFFFFFFC0000FFFFFFFFC
FFFFFFFFC0000FFFFFFFFC
FFFFFFFFC0000FFFFFFFFC
FFFFFFFFC0000FFFFFFFFC
FFFFFFFFC0000FFFFFFFFC
FFFFFFFFC0000FFFFFFFFC
FFFFFFFFC0000FFFFFFFFC
FFFFFFFFC0000FFFFFFFFC
FFFFFFFFC0000FFFFFFFFC
FFFFFFFFC0000FFFFFFFFC
FFFFFFFFC0000FFFFFFFFC
FFFFFFFFC0000FFFFFFFFC
FFFFFFFFC0000FFFFFFFFC
FFFFFFFFC0000FFFFFFFFC
FFFFFFFFC0000FFFFFFFFC
FFFFFFFFC0000FFFFFFFFC
FFFFFFFFC0000FFFFFFFFC
FFFFFFFFC0000FFFFFFFFC
FFFFFFFFC0000FFFFFFFFC
FFFFFFFFC0000FFFFFFFFC
FFFFFFFFC0000FFFFFFFFC
FFFFFFFFC0000FFFFFFFFC
FFFFFFFFC0000FFFFFFFFC
FFFFFFFFC0000FFFFFFFFC
FFFFFFFFC0000FFFFFFFFC
FFFFFFFFC0000FFFFFFFFC
FFFFFFFFC0000FFFFFFFFC
FFFFFFFFC0000FFFFFFFFC
FFFFFFFFC0000FFFFFFFFC
FFFFFFFFC0000FFFFFFFFC
FFFFFFFFC0000FFFFFFFFC
FFFFFFFFC0000FFFFFFFFC
FFFFFFFFC0000FFFFFFFFC
FFFFFFFFC0000FFFFFFFFC
FFFFFFFFC0000FFFFFFFFC
FFFFFFFFC0000FFFFFFFFC
FFFFFFFFC0000FFFFFFFFC
FFFFFFFFC0000FFFFFFFFC
FFFFFFFFC0000FFFFFFFFC
FFFFFFFFC0000FFFFFFFFC
FFFFFFFFC0000FFFFFFFFC
FFFFFFFFC0000FFFFFFFFC
FFFFFFFFC0000FFFFFFFFC
FFFFFFFFC0000FFFFFFFFC
FFFFFFFFC0000FFFFFFFFC
FFFFFFFFC0000FFFFFFFFC
FFFFFFFFC0000FFFFFFFFC
FFFFFFFFC0000FFFFFFFFC
FFFFFFFFC0000FFFFFFFFC
FFFFFFFFC0000FFFFFFFFC
FFFFFFFFC0000FFFFFFFFC
FFFFFFFFC0000FFFFFFFFC
FFFFFFFFC0000FFFFFFFFC
FFFFFFFFC0000FFFFFFFFC
FFFFFFFFC0000FFFFFFFFC
FFFFFFFFC0000FFFFFFFFC
FFFFFFFFC0000FFFFFFFFC
FFFFFFFFC0000FFFFFFFFC
FFFFFFFFC0000FFFFFFFFC
FFFFFFFFC0000FFFFFFFFC
FFFFFFFFC0000FFFFFFFFC
FFFFFFFFC0000FFFFFFFFC
FFFFFFFFC0000FFFFFFFFC
FFFFFFFFC0000FFFFFFFFC
FFFFFFFFC0000FFFFFFFFC
FFFFFFFFC0000FFFFFFFFC
FFFFFFFFC0000FFFFFFFFC
FFFFFFFFC0000FFFFFFFFC
FFFFFFFFC0000FFFFFFFFC
FFFFFFFFC0000FFFFFFFFC
FFFFFFFFC0000FFFFFFFFC
FFFFFFFFC0000FFFFFFFFC
FFFFFFFFC0000FFFFFFFFC
FFFFFFFFC0000FFFFFFFFC
FFFFFFFFC0000FFFFFFFFC
FFFFFFFFC0000FFFFFFFFC
FFFFFFFFC0000FFFFFFFFC
FFFFFFFFC0000FFFFFFFFC
FFFFFFFFC0000FFFFFFFFC
FFFFFFFFC0000FFFFFFFFC
FFFFFFFFC0000FFFFFFFFC
FFFFFFFFC0000FFFFFFFFC
FFFFFFFFC0000FFFFFFFFC
FFFFFFFFC0000FFFFFFFFC
FFFFFFFFC0000FFFFFFFFC
FFFFFFFFC0000FFFFFFFFC
FFFFFFFFC0000FFFFFFFFC
FFFFFFFFC0000FFFFFFFFC
FFFFFFFFC0000FFFFFFFFC
FFFFFFFFC0000FFFFFFFFC
FFFFFFFFC0000FFFFFFFFC
FFFFFFFFC0000FFFFFFFFC
FFFFFFFFC0000FFFFFFFFC
FFFFFFFFC0000FFFFFFFFC
FFFFFFFFC0000FFFFFFFFC
FFFFFFFFC0000FFFFFFFFC
FFFFFFFFC0000FFFFFFFFC
FFFFFFFFC0000FFFFFFFFC
FFFFFFFFC0000FFFFFFFFC
FFFFFFFFC0000FFFFFFFFC
FFFFFFFFC0000FFFFFFFFC
FFFFFFFFC0000FFFFFFFFC
FFFFFFFFC0000FFFFFFFFC
FFFFFFFFC0000FFFFFFFFC
FFFFFFFFC0000FFFFFFFFC
FFFFFFFFC0000FFFFFFFFC
FFFFFFFFC0000FFFFFFFFC
FFFFFFFFC0000FFFFFFFFC
FFFFFFFFC0000FFFFFFFFC
FFFFFFFFC0000FFFFFFFFC
FFFFFFFFC0000FFFFFFFFC
FFFFFFFFC0000FFFFFFFFC
FFFFFFFFC0000FFFFFFFFC
FFFFFFFFC0000FFFFFFFFC
FFFFFFFFC0000FFFFFFFFC
FFFFFFFFC0000FFFFFFFFC
FFFFFFFFC0000FFFFFFFFC
FFFFFFFFC0000FFFFFFFFC
FFFFFFFFC0000FFFFFFFFC
FFFFFFFFC0000FFFFFFFFC
FFFFFFFFC0000FFFFFFFFC
FFFFFFFFC0000FFFFFFFFC
FFFFFFFFC0000FFFFFFFFC
FFFFFFFFC0000FFFFFFFFC
FFFFFFFFC0000FFFFFFFFC
FFFFFFFFC0000FFFFFFFFC
FFFFFFFFC0000FFFFFFFFC
FFFFFFFFC0000FFFFFFFFC
FFFFFFFFC0000FFFFFFFFC
FFFFFFFFF0000FFFFFFFFC
FFFFFFFFF0000FFFFFFFFC
FFFFFFFFF0003FFFFFFFFC
FFFFFFFFF0003FFFFFFFFC
FFFFFFFFF0003FFFFFFFFC
FFFFFFFFF0003FFFFFFFFC
FFFFFFFFFC003FFFFFFFFC
FFFFFFFFFC003FFFFFFFFC
3FFFFFFFFF00FFFFFFFFFC
3FFFFFFFFF00FFFFFFFFFC
3FFFFFFFFFFFFFFFFFFFF0
3FFFFFFFFFFFFFFFFFFFF0
3FFFFFFFFFFFFFFFFFFFF0
3FFFFFFFFFFFFFFFFFFFF0
3FFFFFFFFFFFFFFFFFFFF0
3FFFFFFFFFFFFFFFFFFFF0
0FFFFFFFFFFFFFFFFFFFF0
0FFFFFFFFFFFFFFFFFFFF0
0FFFFFFFFFFFFFFFFFFFC0
0FFFFFFFFFFFFFFFFFFFC0
03FFFFFFFFFFFFFFFFFFC0
03FFFFFFFFFFFFFFFFFFC0
03FFFFFFFFFFFFFFFFFF00
03FFFFFFFFFFFFFFFFFF00
00FFFFFFFFFFFFFFFFFF00
00FFFFFFFFFFFFFFFFFF00
00FFFFFFFFFFFFFFFFFC00
00FFFFFFFFFFFFFFFFFC00
003FFFFFFFFFFFFFFFF000
003FFFFFFFFFFFFFFFF000
000FFFFFFFFFFFFFFFC000
000FFFFFFFFFFFFFFFC000
0003FFFFFFFFFFFFFF0000
0003FFFFFFFFFFFFFF0000
0000FFFFFFFFFFFFFC0000
0000FFFFFFFFFFFFFC0000
00000FFFFFFFFFFFC00000
00000FFFFFFFFFFFC00000
000000FFFFFFFFFC000000
000000FFFFFFFFFC000000
00000000FFFFFC00000000
00000000FFFFFC00000000
ENDCHAR
ENDFONT
